<svg width="685" height="18" viewBox="0 0 685 18" fill="none" xmlns="http://www.w3.org/2000/svg">
<mask id="path-1-inside-1" fill="white">
<path fill-rule="evenodd" clip-rule="evenodd" d="M625.604 0.671913L631.604 0.671631V0.671913H678.107L684.107 9.17177L678.107 17.6716H625.604L6.58824 17.6718C5.9384 17.6718 5.32904 17.3561 4.95428 16.8252L0.366074 10.3253C-0.122025 9.63386 -0.122024 8.71002 0.366074 8.01856L4.95429 1.51871C5.32904 0.987811 5.93837 0.672087 6.58821 0.672087L625.604 0.671913Z"/>
</mask>
<path fill-rule="evenodd" clip-rule="evenodd" d="M625.604 0.671913L631.604 0.671631V0.671913H678.107L684.107 9.17177L678.107 17.6716H625.604L6.58824 17.6718C5.9384 17.6718 5.32904 17.3561 4.95428 16.8252L0.366074 10.3253C-0.122025 9.63386 -0.122024 8.71002 0.366074 8.01856L4.95429 1.51871C5.32904 0.987811 5.93837 0.672087 6.58821 0.672087L625.604 0.671913Z" fill="#EDEEEF"/>
<path d="M625.604 0.671913V1.67191H625.604L625.604 0.671913ZM631.604 0.671631H632.604V-0.328416L631.604 -0.328369V0.671631ZM631.604 0.671913H630.604V1.67191H631.604V0.671913ZM678.107 0.671913L678.924 0.0952231L678.625 -0.328087H678.107V0.671913ZM684.107 9.17177L684.924 9.74846L685.331 9.17177L684.924 8.59508L684.107 9.17177ZM678.107 17.6716V18.6716H678.625L678.924 18.2483L678.107 17.6716ZM625.604 17.6716V16.6716V17.6716ZM6.58824 17.6718V18.6718V17.6718ZM4.95428 16.8252L5.77125 16.2485H5.77125L4.95428 16.8252ZM0.366074 10.3253L1.18304 9.74863L0.366074 10.3253ZM0.366074 8.01856L-0.450889 7.44187L0.366074 8.01856ZM4.95429 1.51871L4.13732 0.942017V0.942017L4.95429 1.51871ZM6.58821 0.672087L6.58821 -0.327913H6.58821L6.58821 0.672087ZM625.604 1.67191L631.604 1.67163L631.604 -0.328369L625.604 -0.328087L625.604 1.67191ZM630.604 0.671631V0.671913H632.604V0.671631H630.604ZM631.604 1.67191H678.107V-0.328087H631.604V1.67191ZM677.29 1.2486L683.29 9.74846L684.924 8.59508L678.924 0.0952231L677.29 1.2486ZM683.29 8.59508L677.29 17.0949L678.924 18.2483L684.924 9.74846L683.29 8.59508ZM678.107 16.6716H625.604V18.6716H678.107V16.6716ZM625.604 16.6716L6.58824 16.6718L6.58824 18.6718L625.604 18.6716V16.6716ZM6.58824 16.6718C6.2633 16.6718 5.95862 16.5139 5.77125 16.2485L4.13732 17.4019C4.69946 18.1982 5.61349 18.6718 6.58824 18.6718V16.6718ZM5.77125 16.2485L1.18304 9.74863L-0.45089 10.902L4.13732 17.4019L5.77125 16.2485ZM1.18304 9.74863C0.938988 9.4029 0.938988 8.94098 1.18304 8.59525L-0.450889 7.44187C-1.18304 8.47906 -1.18304 9.86482 -0.45089 10.902L1.18304 9.74863ZM1.18304 8.59525L5.77125 2.0954L4.13732 0.942017L-0.450889 7.44187L1.18304 8.59525ZM5.77125 2.0954C5.95863 1.82995 6.26329 1.67209 6.58821 1.67209L6.58821 -0.327913C5.61345 -0.327913 4.69946 0.145674 4.13732 0.942017L5.77125 2.0954ZM6.58821 1.67209L625.604 1.67191V-0.328087L6.58821 -0.327913L6.58821 1.67209Z" fill="#A4A9AD" mask="url(#path-1-inside-1)"/>
<path d="M679.05 16.7546C678.882 17.0146 678.594 17.1716 678.284 17.1716C677.987 17.1716 677.709 17.0275 677.538 16.7852L672.774 10.0367C672.408 9.51807 672.408 8.82519 672.774 8.30659L677.672 1.3684C677.759 1.24501 677.901 1.17163 678.052 1.17163C678.203 1.17163 678.344 1.24501 678.432 1.3684L683.364 8.35541C683.717 8.85587 683.73 9.52088 683.398 10.0352L679.05 16.7546Z" fill="#F9F9F9" stroke="#A4A9AD"/>
<line x1="0.551758" y1="9.17163" x2="672.552" y2="9.17157" stroke="#A4A9AD"/>
</svg>
