<svg width="685" height="17" viewBox="0 0 685 17" fill="none" xmlns="http://www.w3.org/2000/svg">
<path d="M2.89252 1.43201C3.01088 1.31404 3.10913 1.22824 3.17823 1.17163H680.493V16.1716H3.17823C3.10913 16.115 3.01089 16.0292 2.89252 15.9112C2.63669 15.6562 2.28658 15.2507 1.93329 14.6638C1.22906 13.4939 0.5 11.5834 0.5 8.67163C0.5 5.75982 1.22906 3.84938 1.93329 2.6795C2.28658 2.09261 2.63669 1.68701 2.89252 1.43201Z" fill="#EDEEEF" stroke="#A4A9AD"/>
<path d="M684.5 8.67163C684.5 10.82 684.064 12.7402 683.381 14.1049C682.684 15.4994 681.813 16.1716 681 16.1716C680.187 16.1716 679.316 15.4994 678.619 14.1049C677.936 12.7402 677.5 10.82 677.5 8.67163C677.5 6.52328 677.936 4.60304 678.619 3.23838C679.316 1.84382 680.187 1.17163 681 1.17163C681.813 1.17163 682.684 1.84382 683.381 3.23838C684.064 4.60304 684.5 6.52328 684.5 8.67163Z" fill="#F9F9F9" stroke="#A4A9AD"/>
</svg>
