<svg width="14" height="12" viewBox="0 0 14 12" fill="none" xmlns="http://www.w3.org/2000/svg">
<path fill-rule="evenodd" clip-rule="evenodd" d="M13.0552 9.86935C12.9396 11.3557 12.5929 12.0851 11.5083 11.9921C10.7867 11.9302 5.18164 11.2835 2.11812 10.93C1.01789 10.8032 0.254566 10.1864 0.340015 9.22183C0.427097 8.23957 1.11681 0.0674267 1.11681 0.0674267L1.77156 0L2.8839 0.725505L4.11693 0.195664L5.26858 0.981417L6.60815 0.511542L7.78553 1.19932L9.11815 0.713118L10.0483 1.37697L11.5126 0.972971L12.0881 1.43018C12.0881 1.43018 11.3004 9.16144 11.2225 10.5181C11.1696 11.4399 12.0685 11.2491 12.1396 10.5685C12.2489 9.52349 12.8702 1.47325 12.8702 1.47325L13.6668 1.52013C13.6667 1.52027 13.1495 8.65384 13.0552 9.86935ZM9.95496 2.27252L8.95868 1.75971L7.57993 2.08192L6.48868 1.52224L5.16477 1.83291L4.03393 1.30785L2.70647 1.72044L1.89742 1.11669C1.89742 1.11669 1.24036 8.29306 1.18335 8.93115C1.12634 9.56896 1.53481 10.0121 2.23527 10.0934C4.85671 10.3983 10.2276 11.0233 10.2276 11.0233L11.1088 2.08643L9.95496 2.27252ZM7.49775 4.15976L7.56551 3.22958L9.95714 3.46438L9.88067 4.39076L7.49775 4.15976ZM9.42308 9.93185L7.09867 9.64905L7.15772 8.83782L9.4907 9.11372L9.42308 9.93185ZM2.23541 7.36246L2.52224 2.73451L6.90096 3.16441L6.4714 7.82361L2.23541 7.36246ZM6.31194 9.55347L2.13105 9.04489L2.18044 8.24928L6.38623 8.74675L6.31194 9.55347ZM7.28549 7.07966L9.63861 7.32304L9.56935 8.16088L7.22534 7.90581L7.28549 7.07966ZM7.42699 5.134L9.79998 5.36781L9.72324 6.29869L7.36019 6.05432L7.42699 5.134Z" fill="black"/>
</svg>
