<svg width="55" height="22" viewBox="0 0 55 22" fill="none" xmlns="http://www.w3.org/2000/svg">
<path d="M8.95023 6.08272C8.95023 6.08272 9.68043 6.87428 9.59958 8.00648C9.53167 8.95466 9.20764 9.40559 8.84222 9.66335L6.78746 5.20958H2.3649L4.87369 10.8523C3.61251 11.3424 2.33127 12.0615 1.55386 13.1363C-0.312047 15.7146 1.78346 17.7748 3.20375 17.6658C4.62339 17.5568 5.40792 16.574 5.51593 16.097C5.51593 16.097 4.06136 14.3932 5.76105 12.8479L7.73367 17.284H12.358L9.69078 11.5029C10.6286 11.1871 13.1639 10.1149 13.5481 7.66584C14.0208 4.65033 10.194 3.87247 8.95023 6.08272Z" fill="#603226"/>
<path d="M23.1074 15.3601C22.729 14.637 23.8647 8.64773 23.8647 8.64773H20.3218L20.1866 9.93003C19.4292 8.47023 18.7398 8.47023 17.8201 8.37496C16.9004 8.27968 15.2376 8.9205 14.3314 11.322C13.4253 13.7234 14.1148 17.0248 16.2245 17.4476C18.3336 17.8705 19.5508 15.6061 19.5508 15.6061C19.7675 16.3017 19.9292 17.475 21.5791 17.5024C23.229 17.5299 23.7696 16.2201 23.7696 16.2201C23.1345 15.8919 23.1074 15.3601 23.1074 15.3601ZM19.8128 13.6229C19.8128 13.6229 19.4519 15.2602 18.3162 15.1871C17.1804 15.114 17.3337 13.095 17.5142 12.4131C17.6946 11.7311 18.1202 10.6485 18.9034 10.6211C18.9034 10.6211 20.4615 10.612 19.8128 13.6229Z" fill="#603226"/>
<path d="M53.7493 15.3601C53.3709 14.637 54.5066 8.64773 54.5066 8.64773H50.9637L50.8285 9.93003C50.0718 8.47023 49.3817 8.47023 48.4627 8.37496C47.543 8.27968 45.8801 8.9205 44.974 11.322C44.0679 13.7234 44.7574 17.0248 46.8671 17.4476C48.9762 17.8705 50.1934 15.6061 50.1934 15.6061C50.4101 16.3017 50.5718 17.475 52.2216 17.5024C53.8715 17.5299 54.4122 16.2201 54.4122 16.2201C53.7765 15.8919 53.7493 15.3601 53.7493 15.3601ZM50.4547 13.6229C50.4547 13.6229 50.0938 15.2602 48.9581 15.1871C47.8224 15.114 47.9756 13.095 48.1561 12.4131C48.3365 11.7311 48.7621 10.6485 49.5453 10.6211C49.5453 10.6211 51.1034 10.612 50.4547 13.6229Z" fill="#603226"/>
<path d="M34.5337 8.83844C34.5337 8.83844 30.6532 7.89678 27.2319 8.83844C27.2319 8.83844 26.7449 12.44 26.2721 13.2864C25.7987 14.1321 25.3932 15.0737 24.3655 15.7557C24.3655 15.7557 24.2976 17.5842 26.353 17.6795C28.4083 17.7747 29.4089 15.2238 29.6385 10.3805H31.0186L30.1805 17.284H33.5067L34.5337 8.83844Z" fill="#603226"/>
<path d="M44.026 7.09216C44.2556 5.08682 41.6867 4.06359 39.564 5.10052C37.5933 6.06306 35.7106 8.85213 35.3452 12.3316C34.9797 15.8111 37.0351 17.7205 39.2122 17.5978C41.3892 17.4752 44.3804 16.0708 43.6069 12.3453C43.6069 12.3453 42.9576 9.72592 38.9418 10.7491L39.0097 10.3941C39.0097 10.3941 43.6748 10.1553 44.026 7.09216ZM41.0781 6.98318C41.6311 7.3447 40.3919 8.89977 39.4017 9.13861C39.4017 9.13861 40.1183 6.35541 41.0781 6.98318ZM40.6661 13.1225C40.8756 14.4733 40.1183 15.7354 39.4017 15.7145C38.685 15.6943 38.3196 14.8688 38.685 12.2559C38.685 12.2566 40.4565 11.7717 40.6661 13.1225Z" fill="#603226"/>
</svg>
