<svg width="61" height="28" viewBox="0 0 61 28" fill="none" xmlns="http://www.w3.org/2000/svg">
<path fill-rule="evenodd" clip-rule="evenodd" d="M17.3895 8.39521H12.1738L14.7765 5.87769L17.3895 8.39521Z" fill="#00A24B"/>
<path fill-rule="evenodd" clip-rule="evenodd" d="M14.786 5.87769L12.173 8.39521L9.57031 5.87769H14.786Z" fill="#00AE5B"/>
<path fill-rule="evenodd" clip-rule="evenodd" d="M22.5941 8.39521H17.3887L19.9914 5.87769L22.5941 8.39521Z" fill="#39AB4B"/>
<path fill-rule="evenodd" clip-rule="evenodd" d="M33.0262 8.39521H27.8105L30.4133 5.87769L33.0262 8.39521Z" fill="#F05325"/>
<path fill-rule="evenodd" clip-rule="evenodd" d="M35.6298 5.87769L33.027 8.39521L30.4141 5.87769H35.6298Z" fill="#F26541"/>
<path fill-rule="evenodd" clip-rule="evenodd" d="M38.2313 8.39521H33.0156L35.6286 5.87769L38.2313 8.39521Z" fill="#E64648"/>
<path fill-rule="evenodd" clip-rule="evenodd" d="M46.0497 5.87769L43.447 8.39521L40.834 5.87769H46.0497Z" fill="#AC4C9D"/>
<path fill-rule="evenodd" clip-rule="evenodd" d="M48.663 8.39521H43.4473L46.05 5.87769L48.663 8.39521Z" fill="#853290"/>
<path fill-rule="evenodd" clip-rule="evenodd" d="M43.4481 8.39521H38.2324L40.8351 5.87769L43.4481 8.39521Z" fill="#B7497C"/>
<path fill-rule="evenodd" clip-rule="evenodd" d="M53.8798 8.39521H48.6641L51.2668 5.87769L53.8798 8.39521Z" fill="#713491"/>
<path fill-rule="evenodd" clip-rule="evenodd" d="M12.1747 8.39521H6.95898L9.57195 5.87769L12.1747 8.39521Z" fill="#00A15A"/>
<path fill-rule="evenodd" clip-rule="evenodd" d="M6.86608 6.22445H1.65039L4.26336 3.69702L6.86608 6.22445Z" fill="#00B398"/>
<path fill-rule="evenodd" clip-rule="evenodd" d="M20.2489 4.07357H15.0332L17.6462 1.54614L20.2489 4.07357Z" fill="#95C73D"/>
<path fill-rule="evenodd" clip-rule="evenodd" d="M34.8398 0.545166H40.0555L37.4528 3.0726L34.8398 0.545166Z" fill="#F2717E"/>
<path fill-rule="evenodd" clip-rule="evenodd" d="M6.86608 6.22437L4.26336 8.74189L1.65039 6.22437H6.86608Z" fill="#27BAA7"/>
<path fill-rule="evenodd" clip-rule="evenodd" d="M17.9227 20.7747L15.32 23.2922L12.707 20.7747H17.9227Z" fill="#ABD481"/>
<path fill-rule="evenodd" clip-rule="evenodd" d="M24.2441 23.9265L26.8571 21.4089L29.4598 23.9265H24.2441Z" fill="#D2E065"/>
<path fill-rule="evenodd" clip-rule="evenodd" d="M24.2441 23.9265H29.4598L26.8571 26.444L24.2441 23.9265Z" fill="#E9EA78"/>
<path fill-rule="evenodd" clip-rule="evenodd" d="M48.663 18.4851L46.05 21.0125L43.4473 18.4851H48.663Z" fill="#CD90C0"/>
<path fill-rule="evenodd" clip-rule="evenodd" d="M12.1747 18.4851L9.57195 21.0125L6.95898 18.4851H12.1747Z" fill="#7FCBB1"/>
<path fill-rule="evenodd" clip-rule="evenodd" d="M22.6048 18.4851L19.9919 21.0125L17.3789 18.4851H22.6048Z" fill="#C9DC5B"/>
<path fill-rule="evenodd" clip-rule="evenodd" d="M25.2079 21.0125H19.9922L22.5949 18.4851L25.2079 21.0125Z" fill="#DCE35F"/>
<path fill-rule="evenodd" clip-rule="evenodd" d="M27.8114 18.4851H22.5957L25.2087 21.0125L27.8114 18.4851Z" fill="url(#paint0_linear)"/>
<path fill-rule="evenodd" clip-rule="evenodd" d="M38.2313 18.4851L35.6286 21.0125L33.0156 18.4851H38.2313Z" fill="#FEC260"/>
<path fill-rule="evenodd" clip-rule="evenodd" d="M35.6298 21.0125H30.4141L33.027 18.4851L35.6298 21.0125Z" fill="#FFCF65"/>
<path fill-rule="evenodd" clip-rule="evenodd" d="M33.0262 18.4851L30.4133 21.0125L27.8105 18.4851H33.0262Z" fill="#FEC357"/>
<path fill-rule="evenodd" clip-rule="evenodd" d="M43.4481 18.4851L40.8454 21.0125L38.2324 18.4851H43.4481Z" fill="#F59BB5"/>
<path fill-rule="evenodd" clip-rule="evenodd" d="M51.2665 21.0125H46.0508L48.6535 18.4851L51.2665 21.0125Z" fill="#BF92C2"/>
<path fill-rule="evenodd" clip-rule="evenodd" d="M53.868 18.4851L51.2653 21.0125L48.6523 18.4851H53.868Z" fill="#A589BF"/>
<path fill-rule="evenodd" clip-rule="evenodd" d="M4.35547 15.9675H9.57116L6.95819 18.485L4.35547 15.9675Z" fill="#53C0A5"/>
<path fill-rule="evenodd" clip-rule="evenodd" d="M25.2079 15.9675L22.5949 18.485L19.9922 15.9675H25.2079Z" fill="#B4D448"/>
<path fill-rule="evenodd" clip-rule="evenodd" d="M12.1747 18.485H6.95898L9.57195 15.9675L12.1747 18.485Z" fill="#69C4A5"/>
<path fill-rule="evenodd" clip-rule="evenodd" d="M14.7762 15.9675L12.1735 18.485L9.56055 15.9675H14.7762Z" fill="#6DC38F"/>
<path fill-rule="evenodd" clip-rule="evenodd" d="M17.3895 18.485H12.1738L14.7765 15.9675L17.3895 18.485Z" fill="#8DCB88"/>
<path fill-rule="evenodd" clip-rule="evenodd" d="M19.993 15.9675L17.3903 18.485L14.7773 15.9675H19.993Z" fill="#9ACC5D"/>
<path fill-rule="evenodd" clip-rule="evenodd" d="M22.6048 18.485H17.3789L19.9919 15.9675L22.6048 18.485Z" fill="#ACD04B"/>
<path fill-rule="evenodd" clip-rule="evenodd" d="M30.4129 15.9675L27.8102 18.485L25.1973 15.9675H30.4129Z" fill="#FBB03B"/>
<path fill-rule="evenodd" clip-rule="evenodd" d="M22.5957 18.485H27.8114L25.2087 15.9675L22.5957 18.485Z" fill="url(#paint1_linear)"/>
<path fill-rule="evenodd" clip-rule="evenodd" d="M35.6298 15.9675L33.027 18.485L30.4141 15.9675H35.6298Z" fill="#FAA836"/>
<path fill-rule="evenodd" clip-rule="evenodd" d="M38.2313 18.485H33.0156L35.6286 15.9675L38.2313 18.485Z" fill="#FBB052"/>
<path fill-rule="evenodd" clip-rule="evenodd" d="M33.0262 18.485H27.8105L30.4133 15.9675L33.0262 18.485Z" fill="#FCB538"/>
<path fill-rule="evenodd" clip-rule="evenodd" d="M40.8446 15.9675L38.2316 18.485L35.6289 15.9675H40.8446Z" fill="#F89B66"/>
<path fill-rule="evenodd" clip-rule="evenodd" d="M43.4481 18.485H38.2324L40.8454 15.9675L43.4481 18.485Z" fill="#F48FAB"/>
<path fill-rule="evenodd" clip-rule="evenodd" d="M46.0497 15.9675L43.447 18.485L40.834 15.9675H46.0497Z" fill="#C973AF"/>
<path fill-rule="evenodd" clip-rule="evenodd" d="M48.663 18.485H43.4473L46.05 15.9675L48.663 18.485Z" fill="#C97CB4"/>
<path fill-rule="evenodd" clip-rule="evenodd" d="M51.2665 15.9675L48.6637 18.485L46.0508 15.9675H51.2665Z" fill="#9F71B1"/>
<path fill-rule="evenodd" clip-rule="evenodd" d="M53.868 18.485H48.6523L51.2653 15.9675L53.868 18.485Z" fill="#9C7FBA"/>
<path fill-rule="evenodd" clip-rule="evenodd" d="M56.4813 15.9675L53.8684 18.485L51.2656 15.9675H56.4813Z" fill="#9479B7"/>
<path fill-rule="evenodd" clip-rule="evenodd" d="M9.57116 15.9674H4.35547L6.95819 13.4399L9.57116 15.9674Z" fill="#3FBC9D"/>
<path fill-rule="evenodd" clip-rule="evenodd" d="M38.2328 13.4399L35.6301 15.9575L33.0273 13.4399H38.2328Z" fill="#F7942A"/>
<path fill-rule="evenodd" clip-rule="evenodd" d="M33.0262 13.4399L30.4133 15.9575L27.8105 13.4399H33.0262Z" fill="#F7942A"/>
<path fill-rule="evenodd" clip-rule="evenodd" d="M25.2079 15.9674H19.9922L22.5949 13.4399L25.2079 15.9674Z" fill="#9ECC45"/>
<path fill-rule="evenodd" clip-rule="evenodd" d="M14.7762 15.9674H9.56055L12.1735 13.4399L14.7762 15.9674Z" fill="#49B984"/>
<path fill-rule="evenodd" clip-rule="evenodd" d="M12.1747 13.4399L9.57195 15.9575L6.95898 13.4399H12.1747Z" fill="#45BC98"/>
<path fill-rule="evenodd" clip-rule="evenodd" d="M19.993 15.9674H14.7773L17.3903 13.4399L19.993 15.9674Z" fill="#7DC242"/>
<path fill-rule="evenodd" clip-rule="evenodd" d="M22.6048 13.4399L19.9919 15.9674L17.3789 13.4399H22.6048Z" fill="#73C054"/>
<path fill-rule="evenodd" clip-rule="evenodd" d="M17.3895 13.4399L14.7765 15.9575L12.1738 13.4399H17.3895Z" fill="#7FC349"/>
<path fill-rule="evenodd" clip-rule="evenodd" d="M27.8114 13.4399H22.5957L25.2087 15.9674L27.8114 13.4399Z" fill="url(#paint2_linear)"/>
<path fill-rule="evenodd" clip-rule="evenodd" d="M30.4144 15.9674H25.209L27.8117 13.4399L30.4144 15.9674Z" fill="#F99D2C"/>
<path fill-rule="evenodd" clip-rule="evenodd" d="M40.8446 15.9674H35.6289L38.2316 13.4399L40.8446 15.9674Z" fill="#F58963"/>
<path fill-rule="evenodd" clip-rule="evenodd" d="M35.6298 15.9674H30.4141L33.027 13.4399L35.6298 15.9674Z" fill="#F9A138"/>
<path fill-rule="evenodd" clip-rule="evenodd" d="M46.0497 15.9674H40.834L43.447 13.4399L46.0497 15.9674Z" fill="#BD6AAB"/>
<path fill-rule="evenodd" clip-rule="evenodd" d="M48.663 13.4399H43.4473L46.05 15.9674L48.663 13.4399Z" fill="url(#paint3_linear)"/>
<path fill-rule="evenodd" clip-rule="evenodd" d="M43.4481 13.4399L40.8454 15.9575L38.2324 13.4399H43.4481Z" fill="#DC6DAA"/>
<path fill-rule="evenodd" clip-rule="evenodd" d="M51.2665 15.9674H46.0508L48.6637 13.4399L51.2665 15.9674Z" fill="#9463A9"/>
<path fill-rule="evenodd" clip-rule="evenodd" d="M53.868 13.4399L51.2653 15.9575L48.6523 13.4399H53.868Z" fill="#8961A6"/>
<path fill-rule="evenodd" clip-rule="evenodd" d="M56.4813 15.9674H51.2656L53.8684 13.4399L56.4813 15.9674Z" fill="#8B6DB0"/>
<path fill-rule="evenodd" clip-rule="evenodd" d="M56.8818 12.2011L56.8613 12.2209L56.8818 12.2308L59.2591 14.5303V9.90161L56.8818 12.2011Z" fill="#B194C5"/>
<path fill-rule="evenodd" clip-rule="evenodd" d="M56.8613 12.2308H59.2591V9.92139L56.8613 12.2308Z" fill="#9E7EB9"/>
<path fill-rule="evenodd" clip-rule="evenodd" d="M35.6298 10.9226L33.0168 13.4401L30.4141 10.9226H35.6298Z" fill="#F47521"/>
<path fill-rule="evenodd" clip-rule="evenodd" d="M25.2079 10.9226L22.5949 13.4401L19.9922 10.9226H25.2079Z" fill="#73BF53"/>
<path fill-rule="evenodd" clip-rule="evenodd" d="M14.7762 10.9226L12.1735 13.4401L9.56055 10.9226H14.7762Z" fill="#32B673"/>
<path fill-rule="evenodd" clip-rule="evenodd" d="M9.57116 10.9226L6.95819 13.4401L4.35547 10.9226H9.57116Z" fill="#00AB89"/>
<path fill-rule="evenodd" clip-rule="evenodd" d="M19.993 10.9226L17.3903 13.4401L14.7773 10.9226H19.993Z" fill="#50B848"/>
<path fill-rule="evenodd" clip-rule="evenodd" d="M30.4129 10.9226L27.8102 13.4401L25.1973 10.9226H30.4129Z" fill="#F6883A"/>
<path fill-rule="evenodd" clip-rule="evenodd" d="M40.8446 10.9226L38.2316 13.4401L35.6289 10.9226H40.8446Z" fill="#F05F6C"/>
<path fill-rule="evenodd" clip-rule="evenodd" d="M46.0497 10.9226L43.447 13.4401L40.834 10.9226H46.0497Z" fill="#B74D9C"/>
<path fill-rule="evenodd" clip-rule="evenodd" d="M51.2665 10.9226L48.6637 13.4401L46.0508 10.9226H51.2665Z" fill="#8F4F9F"/>
<path fill-rule="evenodd" clip-rule="evenodd" d="M38.2313 13.4401H33.0156L35.6286 10.9226L38.2313 13.4401Z" fill="#F57E2B"/>
<path fill-rule="evenodd" clip-rule="evenodd" d="M33.0262 13.4401H27.8105L30.4133 10.9226L33.0262 13.4401Z" fill="#F57E2B"/>
<path fill-rule="evenodd" clip-rule="evenodd" d="M12.1747 13.4401H6.95898L9.57195 10.9226L12.1747 13.4401Z" fill="#00B388"/>
<path fill-rule="evenodd" clip-rule="evenodd" d="M17.3895 13.4401H12.1738L14.7765 10.9226L17.3895 13.4401Z" fill="#5EBB4C"/>
<path fill-rule="evenodd" clip-rule="evenodd" d="M22.5941 13.4401H17.3887L19.9914 10.9226L22.5941 13.4401Z" fill="#64BC4D"/>
<path fill-rule="evenodd" clip-rule="evenodd" d="M22.5957 13.4401H27.8114L25.2087 10.9226L22.5957 13.4401Z" fill="url(#paint4_linear)"/>
<path fill-rule="evenodd" clip-rule="evenodd" d="M43.4473 13.4401H48.663L46.05 10.9226L43.4473 13.4401Z" fill="url(#paint5_linear)"/>
<path fill-rule="evenodd" clip-rule="evenodd" d="M43.4481 13.4401H38.2324L40.8454 10.9226L43.4481 13.4401Z" fill="#D060A4"/>
<path fill-rule="evenodd" clip-rule="evenodd" d="M53.868 13.4401H48.6523L51.2653 10.9226L53.868 13.4401Z" fill="#8358A2"/>
<path fill-rule="evenodd" clip-rule="evenodd" d="M56.4813 10.9226L53.8684 13.4401L51.2656 10.9226H56.4813Z" fill="#7D56A1"/>
<path fill-rule="evenodd" clip-rule="evenodd" d="M35.6298 10.9225H30.4141L33.0168 8.39502L35.6298 10.9225Z" fill="#F36C29"/>
<path fill-rule="evenodd" clip-rule="evenodd" d="M14.7758 10.9225H9.57031L12.173 8.39502L14.7758 10.9225Z" fill="#02AA62"/>
<path fill-rule="evenodd" clip-rule="evenodd" d="M25.2079 10.9225H19.9922L22.5949 8.39502L25.2079 10.9225Z" fill="#60B946"/>
<path fill-rule="evenodd" clip-rule="evenodd" d="M46.0497 10.9225H40.834L43.447 8.39502L46.0497 10.9225Z" fill="#B04399"/>
<path fill-rule="evenodd" clip-rule="evenodd" d="M12.1747 8.39502L9.57195 10.9225L6.95898 8.39502H12.1747Z" fill="#00AD6C"/>
<path fill-rule="evenodd" clip-rule="evenodd" d="M9.57116 10.9225H4.35547L6.95819 8.39502L9.57116 10.9225Z" fill="#00A57C"/>
<path fill-rule="evenodd" clip-rule="evenodd" d="M19.993 10.9225H14.7773L17.3903 8.39502L19.993 10.9225Z" fill="#32AC54"/>
<path fill-rule="evenodd" clip-rule="evenodd" d="M17.3895 8.39502L14.7765 10.9225L12.1738 8.39502H17.3895Z" fill="#00A856"/>
<path fill-rule="evenodd" clip-rule="evenodd" d="M22.5941 8.39502L19.9914 10.9225L17.3887 8.39502H22.5941Z" fill="#4BB74F"/>
<path fill-rule="evenodd" clip-rule="evenodd" d="M30.4129 10.9225H25.1973L27.8102 8.39502L30.4129 10.9225Z" fill="#F47836"/>
<path fill-rule="evenodd" clip-rule="evenodd" d="M33.0262 8.39502L30.4133 10.9225L27.8105 8.39502H33.0262Z" fill="#F16129"/>
<path fill-rule="evenodd" clip-rule="evenodd" d="M38.2313 8.39502L35.6286 10.9225L33.0156 8.39502H38.2313Z" fill="#F15B56"/>
<path fill-rule="evenodd" clip-rule="evenodd" d="M40.8446 10.9225H35.6289L38.2316 8.39502L40.8446 10.9225Z" fill="#DD4E64"/>
<path fill-rule="evenodd" clip-rule="evenodd" d="M43.4481 8.39502L40.8351 10.9225L38.2324 8.39502H43.4481Z" fill="#CB4C7A"/>
<path fill-rule="evenodd" clip-rule="evenodd" d="M48.663 8.39502L46.05 10.9225L43.4473 8.39502H48.663Z" fill="#8D3D94"/>
<path fill-rule="evenodd" clip-rule="evenodd" d="M27.8114 8.39502L25.2087 10.9225L22.5957 8.39502H27.8114Z" fill="#7CC152"/>
<path fill-rule="evenodd" clip-rule="evenodd" d="M51.2665 10.9225H46.0508L48.6637 8.39502L51.2665 10.9225Z" fill="#89479C"/>
<path fill-rule="evenodd" clip-rule="evenodd" d="M53.8798 8.39502L51.2668 10.9225L48.6641 8.39502H53.8798Z" fill="#744397"/>
<path fill-rule="evenodd" clip-rule="evenodd" d="M56.4813 10.9225H51.2656L53.8684 8.39502L56.4813 10.9225Z" fill="#764C9C"/>
<path fill-rule="evenodd" clip-rule="evenodd" d="M21.7346 11.4081C21.7346 11.2297 21.6629 11.1206 21.5297 11.081C21.212 11.0017 20.546 10.853 19.6443 10.8332C19.634 10.8332 19.5008 10.8332 19.3881 10.8332C19.2856 10.8332 19.1729 10.8332 19.1627 10.8332C18.2609 10.853 17.5949 11.0017 17.2772 11.081C17.144 11.1206 17.0723 11.2297 17.0723 11.4081V15.9872H18.5376V11.9928C18.8143 11.8937 19.2036 11.8739 19.3881 11.8739C19.5725 11.8739 19.9927 11.864 20.2591 11.9631V15.9773H21.7244V11.4081H21.7346ZM16.0066 14.8771C15.8119 14.9267 15.2791 15.0456 14.818 15.0258C14.3569 15.0159 13.6908 14.8176 13.6088 14.1833C13.5678 13.9157 13.5576 13.6877 13.5576 13.4796V13.4498V13.4201C13.5576 13.2219 13.5576 12.984 13.6088 12.7164C13.7215 12.1019 14.3671 11.8838 14.818 11.8739C15.2791 11.864 15.8222 11.9829 16.0066 12.0226C16.0578 12.0325 16.1603 12.0622 16.1603 12.0622L16.3448 11.1504C16.3448 11.1504 15.7504 10.9521 15.2893 10.8927C14.7462 10.8233 14.0085 10.8134 13.3629 11.0513C12.246 11.4576 12.082 12.5578 12.082 13.43C12.082 14.3022 12.1947 15.3429 13.3629 15.8088C13.9675 16.0566 14.7565 16.0268 15.2996 15.9674C15.7607 15.9079 16.355 15.7097 16.355 15.7097L16.1603 14.7978C16.1501 14.8375 16.0681 14.8573 16.0066 14.8771ZM31.7664 14.8771C31.5717 14.9267 31.0389 15.0456 30.5777 15.0258C30.1166 15.0159 29.4711 14.8771 29.3686 14.1833C29.3276 13.9157 29.3174 13.6877 29.3174 13.4796C29.3174 13.4697 29.3174 13.4598 29.3174 13.4498C29.3174 13.4399 29.3174 13.43 29.3174 13.4201C29.3174 13.2219 29.3276 12.984 29.3686 12.7164C29.4711 12.1118 30.1269 11.8838 30.5777 11.8739C31.0389 11.864 31.5819 11.9829 31.7664 12.0226C31.8176 12.0325 31.9201 12.0622 31.9201 12.0622L32.1045 11.1504C32.1045 11.1504 31.5102 10.9521 31.0491 10.8927C30.506 10.8233 29.7682 10.8134 29.1227 11.0513C28.0058 11.4576 27.8418 12.5578 27.8418 13.43C27.8418 14.3022 27.9545 15.3429 29.1227 15.8088C29.7272 16.0566 30.5163 16.0268 31.0593 15.9674C31.5205 15.9079 32.1148 15.7097 32.1148 15.7097L31.9201 14.7978C31.8996 14.8375 31.8176 14.8573 31.7664 14.8771ZM37.4022 11.0314C37.3612 10.9819 37.31 10.9323 37.1358 10.9323H36.439C36.357 10.9323 36.1931 10.9125 36.0906 10.972C36.0189 11.0116 35.9061 11.19 35.8652 11.2495C35.6602 11.5964 35.486 11.8937 35.3426 12.1415C35.1991 12.3893 35.0659 12.6074 34.9429 12.7957C34.9019 12.8552 34.8712 12.9245 34.8302 12.9741C34.7892 13.0336 34.7482 13.1029 34.697 13.1921C34.6458 13.2813 34.4511 13.5886 34.3384 13.7868H34.3076V10.9224H32.8423V15.5511C32.8423 15.6998 32.8526 15.7989 32.914 15.8682C32.955 15.9178 33.0063 15.9674 33.1805 15.9674H33.2112H33.867C34.0515 15.9674 34.1539 15.9674 34.2359 15.9277C34.3076 15.8881 34.3691 15.789 34.4511 15.6502C34.6048 15.4222 35.1479 14.4905 35.2913 14.2626C35.4245 14.0445 35.5578 13.8265 35.6807 13.6084C35.8037 13.3904 35.8344 13.3507 35.9779 13.1228H35.9984V15.9773H37.4739V11.4477C37.4739 11.2495 37.4842 11.1206 37.4022 11.0314ZM41.3165 10.9026C41.1628 10.8828 40.9579 10.8828 40.8042 10.8828C40.6505 10.8828 40.4455 10.8828 40.2918 10.9026C40.1279 10.9224 39.9639 10.9422 39.759 10.9918C39.7692 10.5061 39.8615 10.2583 40.3021 10.0403C40.9476 9.7132 42.249 9.624 42.9765 9.57444L42.956 8.41479C41.255 8.56347 40.0357 8.71214 39.2876 9.17798C38.7343 9.51497 38.3757 10.1295 38.3757 11.3387C38.3757 11.7451 38.3757 12.6074 38.3757 13.0236V13.9752C38.3757 15.779 39.6463 15.9575 40.3021 16.0367C40.4558 16.0566 40.6607 16.0566 40.8144 16.0566C40.9681 16.0566 41.1731 16.0566 41.3268 16.0367C41.9826 15.9475 43.2532 15.7691 43.2532 13.9752V12.9741C43.2429 11.1603 41.9723 10.9819 41.3165 10.9026ZM41.7571 13.4598V13.4697V14.0644C41.7571 14.4806 41.6957 15.0654 40.9989 15.1051C40.9784 15.1051 40.8657 15.115 40.8042 15.115C40.7529 15.115 40.63 15.1051 40.6095 15.1051C39.9127 15.0654 39.8512 14.4905 39.8512 14.0644V13.4697V13.4598V12.8651C39.8512 12.4488 39.9127 11.864 40.6095 11.8244C40.63 11.8244 40.7427 11.8144 40.8042 11.8144C40.8554 11.8144 40.9784 11.8144 40.9989 11.8244C41.6957 11.864 41.7571 12.4389 41.7571 12.8651V13.4598ZM46.8704 10.9026C46.7167 10.8828 46.5117 10.8828 46.358 10.8828C46.2043 10.8828 45.9994 10.8828 45.8457 10.9026C45.1899 10.9918 43.9192 11.1702 43.9192 12.9642V13.9652C43.9192 15.7691 45.1899 15.9475 45.8457 16.0268C45.9994 16.0467 46.2043 16.0467 46.358 16.0467C46.5117 16.0467 46.7167 16.0467 46.8704 16.0268C47.5262 15.9376 48.7968 15.7592 48.7968 13.9652V12.9642C48.7968 11.1603 47.5262 10.9819 46.8704 10.9026ZM47.3007 13.4598V13.4697V14.0644C47.3007 14.4806 47.2393 15.0654 46.5425 15.1051C46.522 15.1051 46.4092 15.115 46.3478 15.115C46.2965 15.115 46.1736 15.1051 46.1531 15.1051C45.4563 15.0654 45.3948 14.4905 45.3948 14.0644V13.4697V13.4598V12.8651C45.3948 12.4488 45.4563 11.864 46.1531 11.8244C46.1736 11.8244 46.2863 11.8144 46.3478 11.8144C46.399 11.8144 46.522 11.8144 46.5425 11.8244C47.2393 11.864 47.3007 12.4389 47.3007 12.8651V13.4598ZM27.1348 12.1514C27.1348 11.8739 27.1143 11.4775 26.4482 11.1504C25.9359 10.9026 25.1674 10.8728 24.7165 10.8927C24.0607 10.9323 23.3332 11.1206 22.9848 11.2198C22.8823 11.2495 22.7798 11.2891 22.7798 11.2891L23.0053 12.2109C23.0053 12.2109 23.077 12.1911 23.1385 12.1812C23.3127 12.1316 23.7635 12.0424 24.0607 12.0028C24.3886 11.9532 24.9112 11.9136 25.2186 11.9532C25.444 11.9829 25.6695 12.0721 25.6695 12.31V12.7858C25.0649 12.7759 24.7267 12.7858 24.4193 12.8155C23.948 12.8552 23.5483 12.9344 23.2512 13.0831C22.8413 13.2913 22.5134 13.6282 22.4827 14.3617C22.4622 14.996 22.6979 15.4123 23.1897 15.6998C23.5791 15.9277 24.2246 16.0367 24.819 16.0467C25.4235 16.0665 25.8949 16.0169 26.4072 15.9475C26.8274 15.8881 27.1143 15.789 27.1143 15.789V14.9366V12.1514H27.1348ZM25.6797 14.9663C25.6797 14.9663 25.403 15.0357 24.86 15.0159C24.4091 15.0059 23.866 14.9564 23.907 14.3518C23.9275 14.0148 24.1632 13.8859 24.3988 13.8166C24.5833 13.767 25.0649 13.7472 25.6797 13.7868V14.9663Z" fill="white"/>
<path fill-rule="evenodd" clip-rule="evenodd" d="M32.6586 23.7975C32.6586 23.4209 32.4639 23.1433 32.054 23.1433C31.6236 23.1433 31.4392 23.4209 31.4392 23.7876C31.4392 24.1444 31.6236 24.4517 32.0335 24.4517C32.4741 24.4517 32.6586 24.1741 32.6586 23.7975ZM31.0703 23.7975C31.0703 23.2325 31.4597 22.8757 32.0643 22.8757C32.7098 22.8757 33.0172 23.2722 33.0172 23.8074C33.0172 24.3724 32.6586 24.7391 32.0233 24.7391C31.3982 24.7391 31.0703 24.3724 31.0703 23.7975Z" fill="#068942"/>
<path fill-rule="evenodd" clip-rule="evenodd" d="M33.7335 23.183H33.1289V22.9055H34.6967V23.183H34.0921V24.6995H33.7335V23.183Z" fill="#068942"/>
<path fill-rule="evenodd" clip-rule="evenodd" d="M35.5059 23.8173C35.5059 23.2425 35.8747 22.8757 36.5101 22.8757C36.7867 22.8757 36.9507 22.9253 37.0736 22.9848L36.9712 23.2425C36.8072 23.1929 36.715 23.1731 36.5101 23.1731C36.1514 23.1731 35.8747 23.3614 35.8747 23.7975C35.8747 24.2336 36.1617 24.4418 36.5613 24.4418C36.7457 24.4418 36.8585 24.4219 36.9917 24.3823L37.0736 24.6499C36.9199 24.7094 36.7662 24.7391 36.5203 24.7391C35.8645 24.7391 35.5059 24.3823 35.5059 23.8173Z" fill="#068942"/>
<path fill-rule="evenodd" clip-rule="evenodd" d="M37.4219 22.9055H38.6515V23.183H37.7805V24.4319H38.0162C38.3031 24.4319 38.4261 24.313 38.4261 24.1345C38.4261 23.9363 38.2826 23.8372 37.9957 23.8372H37.8113V23.5597H37.9855C38.5183 23.5597 38.8052 23.748 38.8052 24.1345C38.8052 24.4914 38.5285 24.6995 38.0264 24.6995H37.4219V22.9055Z" fill="#068942"/>
<path fill-rule="evenodd" clip-rule="evenodd" d="M39.082 22.9055H40.2399V23.1731H39.4407V23.6687H40.1785V23.9264H39.4407V24.4319H40.3014V24.6995H39.082V22.9055Z" fill="#068942"/>
<path fill-rule="evenodd" clip-rule="evenodd" d="M40.6289 22.9055H41.3052C41.7048 22.9055 41.9815 23.1236 41.9815 23.52C41.9815 23.857 41.7048 24.1445 41.172 24.1445H41.0183V23.8768H41.1925C41.4692 23.8768 41.6126 23.748 41.6126 23.5299C41.6126 23.3119 41.5101 23.183 41.254 23.183H40.9875V24.7094H40.6289V22.9055Z" fill="#068942"/>
<path fill-rule="evenodd" clip-rule="evenodd" d="M42.1973 22.9055H43.4269V23.183H42.5559V24.4319H42.7916C43.0888 24.4319 43.2015 24.313 43.2015 24.1345C43.2015 23.9363 43.058 23.8372 42.7711 23.8372H42.5867V23.5597H42.7608C43.2937 23.5597 43.5806 23.748 43.5806 24.1345C43.5806 24.4914 43.3039 24.6995 42.8018 24.6995H42.1973V22.9055Z" fill="#068942"/>
<path fill-rule="evenodd" clip-rule="evenodd" d="M44.8718 23.8669L44.6463 23.1236L44.3902 23.8669H44.8718ZM44.4311 22.9055H44.9025L45.5481 24.7094H45.1689L44.964 24.1246H44.2877L44.0622 24.7094H43.6934L44.4311 22.9055Z" fill="#068942"/>
<path fill-rule="evenodd" clip-rule="evenodd" d="M45.7324 22.9055H46.0911V23.6588H46.9723V22.9055H47.331V24.6995H46.9723V23.9363H46.0911V24.6995H45.7324V22.9055Z" fill="#068942"/>
<path fill-rule="evenodd" clip-rule="evenodd" d="M47.7012 22.9055H48.0598V23.7282L48.7566 22.9055H49.2177L48.4594 23.7381L49.2587 24.6995H48.7976L48.0598 23.748V24.6995H47.7012V22.9055Z" fill="#068942"/>
<path fill-rule="evenodd" clip-rule="evenodd" d="M50.4147 23.8669L50.1893 23.1236L49.9331 23.8669H50.4147ZM49.9741 22.9055H50.4455L51.091 24.7094H50.7119L50.507 24.1246H49.8307L49.6052 24.7094H49.2363L49.9741 22.9055Z" fill="#068942"/>
<defs>
<linearGradient id="paint0_linear" x1="22.5975" y1="19.7473" x2="27.8126" y2="19.7473" gradientUnits="userSpaceOnUse">
<stop stop-color="#B8D371"/>
<stop offset="1" stop-color="#F9D664"/>
</linearGradient>
<linearGradient id="paint1_linear" x1="22.5975" y1="17.2251" x2="27.8126" y2="17.2251" gradientUnits="userSpaceOnUse">
<stop stop-color="#B3CF59"/>
<stop offset="1" stop-color="#EEB657"/>
</linearGradient>
<linearGradient id="paint2_linear" x1="22.5975" y1="14.7015" x2="27.8121" y2="14.7015" gradientUnits="userSpaceOnUse">
<stop stop-color="#92C160"/>
<stop offset="1" stop-color="#E3954B"/>
</linearGradient>
<linearGradient id="paint3_linear" x1="43.4453" y1="14.7015" x2="48.6607" y2="14.7015" gradientUnits="userSpaceOnUse">
<stop stop-color="#946EAC"/>
<stop offset="1" stop-color="#876EAD"/>
</linearGradient>
<linearGradient id="paint4_linear" x1="22.5975" y1="12.1812" x2="27.8126" y2="12.1812" gradientUnits="userSpaceOnUse">
<stop stop-color="#86BD61"/>
<stop offset="1" stop-color="#DF8548"/>
</linearGradient>
<linearGradient id="paint5_linear" x1="43.4448" y1="12.1812" x2="48.6607" y2="12.1812" gradientUnits="userSpaceOnUse">
<stop stop-color="#9367A7"/>
<stop offset="0.91" stop-color="#806AAB"/>
<stop offset="1" stop-color="#806AAB"/>
</linearGradient>
</defs>
</svg>
