<svg width="36" height="26" viewBox="0 0 36 26" fill="none" xmlns="http://www.w3.org/2000/svg">
<path d="M6.48684 1.25935V7.80364L4.88436 7.80349V5.37268L2.26459 5.37283V7.83444H0.662109V1.29047H2.26459V3.90823H4.88436V1.29047H6.48684V1.25935ZM24.9779 7.80317H23.3754V4.53104L21.9269 6.77489H21.0328L19.5848 4.50024V7.80317H17.9823V1.25935H19.1841L21.4647 4.74958L23.7452 1.25935H24.947V7.80364L24.9779 7.80317ZM12.2497 0.979072C9.69166 0.979072 7.62691 2.97312 7.62691 5.4352C7.62691 6.30732 7.87349 7.11787 8.33592 7.80317H10.5548C9.87717 7.27371 9.44566 6.4635 9.44566 5.52852C9.44566 3.9703 10.7088 2.69313 12.2499 2.69313C13.791 2.69313 15.0546 3.9703 15.0546 5.52852C15.0546 6.4635 14.6231 7.27371 13.945 7.80317H16.1637C16.5952 7.118 16.8727 6.30748 16.8727 5.4352C16.8723 2.97327 14.8071 0.97876 12.2497 0.97876V0.979072Z" fill="#C8102E"/>
<path d="M10.7402 6.33615C10.9559 6.9905 11.5419 7.45807 12.2504 7.45807C12.9594 7.45807 13.5449 6.9905 13.7606 6.33615H10.7402ZM27.9063 2.84624V4.03023H30.7724V5.40117H27.9063V6.52311H31.173V7.92517H26.2726V1.38135H31.173V2.78386H27.9063V2.84624Z" fill="#C8102E"/>
<path d="M12.2454 16.0759L11.0127 14.175H9.81083V16.0759H8.17757V9.53204H11.0127C12.6155 9.53204 13.6939 10.4046 13.6939 11.838C13.6939 12.6793 13.2933 13.3962 12.6152 13.8012L14.1254 16.0759H12.2454ZM9.78005 12.7421H10.9822C11.5987 12.7421 12.0914 12.3995 12.0914 11.8695C12.0914 11.3401 11.5982 10.9969 10.9822 10.9969H9.78005V12.7421ZM16.5295 10.9657V12.1497H19.3955V13.5206H16.5295V14.6425H19.7961V16.0446H14.8958V9.50077H19.7961V10.9033H16.5295V10.9657ZM26.977 12.8042C26.977 14.7362 25.5286 16.1071 23.4943 16.1071H20.9057V9.56316H23.4943C25.4978 9.53189 26.977 10.872 26.977 12.804V12.8042ZM25.3433 12.8042C25.3433 11.8067 24.5422 11.0282 23.4947 11.0282H22.508V14.6425H23.4946C24.542 14.6113 25.3432 13.8325 25.3432 12.8042H25.3433ZM29.4424 9.53204V16.0763L27.8396 16.0762V9.53158L29.4424 9.53204ZM35.606 10.9965H33.7569V16.0757L32.1544 16.0759V10.9965H30.3054V9.53204H35.606V10.9965ZM5.55809 13.7387C5.31151 14.3307 4.7874 14.7049 4.07839 14.7049C3.03093 14.7049 2.29115 13.9256 2.29115 12.8353C2.29115 11.7446 3.03108 10.9657 4.07884 10.9657C4.7874 10.9657 5.31151 11.3083 5.55809 11.9314L7.25289 11.9316C6.91399 10.4359 5.71224 9.43872 4.07884 9.43872C2.13715 9.43872 0.658203 10.872 0.658203 12.8353C0.658203 14.7981 2.13715 16.2316 4.07884 16.2316C5.71209 16.2316 6.91399 15.2345 7.25289 13.7387H5.55809Z" fill="#C8102E"/>
<path d="M6.30666 22.5002C6.30666 23.5909 5.44366 24.3074 3.99516 24.3074L0.728516 24.3075V17.7637H3.81025C5.22783 17.7637 6.02945 18.4493 6.02945 19.5089C6.02945 20.1008 5.69024 20.7552 5.13522 20.9422C5.90592 21.1291 6.30651 21.8148 6.30651 22.5004L6.30666 22.5002ZM2.331 19.1037V20.4746H3.53319C4.14961 20.4746 4.48836 20.1632 4.48836 19.7582C4.48836 19.3527 4.14946 19.1349 3.53319 19.1349H2.331V19.1037ZM4.73509 22.2822C4.73509 21.8767 4.3959 21.6589 3.81041 21.6589H2.331V22.9678H3.77948C4.42666 22.9678 4.73509 22.6872 4.73509 22.2822ZM11.2682 23.1859H8.5254L8.09435 24.3074L6.36834 24.3075L9.11134 17.7637H10.652L13.395 24.308L11.669 24.3078L11.2684 23.1859H11.2682ZM10.7446 21.8459L9.88158 19.6333L9.01858 21.8459H10.7446ZM19.8977 17.7637V24.308L18.665 24.3078L15.5523 20.7238V24.3074L13.9499 24.3075V17.7637H15.1825L18.2952 21.4409V17.7637H19.8977ZM23.8115 21.8771L22.8563 22.9986V24.3391H21.2535V17.7948H22.8563V20.7863L25.4449 17.7948H27.3556L24.8902 20.6614L27.5713 24.3391H25.5684L23.8115 21.8771Z" fill="#C8102E"/>
</svg>
