<svg width="160" height="32" viewBox="0 0 160 32" fill="none" xmlns="http://www.w3.org/2000/svg">
<rect width="160" height="32" fill="white"/>
<rect width="32" height="32" fill="#F9F9F9"/>
<path d="M15.9992 4.2666L18.873 13.1112H28.1727L20.6491 18.5774L23.5229 27.422L15.9992 21.9558L8.47557 27.422L11.3493 18.5774L3.8257 13.1112H13.1254L15.9992 4.2666Z" fill="#CED1D3"/>
<rect x="32" width="32" height="32" fill="#F9F9F9"/>
<path d="M47.9992 4.2666L50.873 13.1112H60.1727L52.6491 18.5774L55.5229 27.422L47.9992 21.9558L40.4756 27.422L43.3493 18.5774L35.8257 13.1112H45.1254L47.9992 4.2666Z" fill="#CED1D3"/>
<rect x="64" width="32" height="32" fill="#F9F9F9"/>
<path d="M79.9992 4.2666L82.873 13.1112H92.1727L84.6491 18.5774L87.5229 27.422L79.9992 21.9558L72.4756 27.422L75.3493 18.5774L67.8257 13.1112H77.1254L79.9992 4.2666Z" fill="#CED1D3"/>
<rect x="96" width="32" height="32" fill="#F9F9F9"/>
<path d="M111.999 4.2666L114.873 13.1112H124.173L116.649 18.5774L119.523 27.422L111.999 21.9558L104.476 27.422L107.349 18.5774L99.8257 13.1112H109.125L111.999 4.2666Z" fill="#CED1D3"/>
<rect x="128" width="32" height="32" fill="#F9F9F9"/>
<path d="M143.999 4.2666L146.873 13.1112H156.173L148.649 18.5774L151.523 27.422L143.999 21.9558L136.476 27.422L139.349 18.5774L131.826 13.1112H141.125L143.999 4.2666Z" fill="#CED1D3"/>
</svg>
