<svg width="685" height="22" viewBox="0 0 685 22" fill="none" xmlns="http://www.w3.org/2000/svg">
<path d="M3.89252 3.76038C4.01088 3.64241 4.10913 3.55661 4.17823 3.5H680.493V18.5H4.17823C4.10913 18.4434 4.01089 18.3576 3.89252 18.2396C3.63669 17.9846 3.28658 17.579 2.93329 16.9921C2.22906 15.8222 1.5 13.9118 1.5 11C1.5 8.08819 2.22906 6.17775 2.93329 5.00787C3.28658 4.42098 3.63669 4.01538 3.89252 3.76038Z" fill="#EDEEEF" stroke="#A4A9AD"/>
<path d="M684.5 11C684.5 13.1483 684.064 15.0686 683.381 16.4332C682.684 17.8278 681.813 18.5 681 18.5C680.187 18.5 679.316 17.8278 678.619 16.4332C677.936 15.0686 677.5 13.1483 677.5 11C677.5 8.85165 677.936 6.93141 678.619 5.56675C679.316 4.17219 680.187 3.5 681 3.5C681.813 3.5 682.684 4.17219 683.381 5.56675C684.064 6.93141 684.5 8.85165 684.5 11Z" fill="#F9F9F9" stroke="#A4A9AD"/>
<rect x="0.294314" y="0.631571" width="3.97471" height="9.57272" rx="1.5" transform="matrix(0.94447 0.328597 -0.355842 0.934546 9.45886 -0.0553717)" fill="white" stroke="#A4A9AD"/>
<rect x="0.294314" y="0.631571" width="3.97471" height="9.57272" rx="1.5" transform="matrix(0.94447 0.328597 -0.355842 0.934546 20.4589 -0.0553717)" fill="white" stroke="#A4A9AD"/>
<rect x="0.294314" y="0.631571" width="3.97471" height="9.57272" rx="1.5" transform="matrix(0.94447 0.328597 -0.355842 0.934546 31.4589 -0.0553717)" fill="white" stroke="#A4A9AD"/>
<rect x="0.294314" y="0.631571" width="3.97471" height="9.57272" rx="1.5" transform="matrix(0.94447 0.328597 -0.355842 0.934546 42.4589 -0.0553717)" fill="white" stroke="#A4A9AD"/>
<rect x="0.294314" y="0.631571" width="3.97471" height="9.57272" rx="1.5" transform="matrix(0.94447 0.328597 -0.355842 0.934546 53.4589 -0.0553717)" fill="white" stroke="#A4A9AD"/>
<rect x="0.294314" y="0.631571" width="3.97471" height="9.57272" rx="1.5" transform="matrix(0.94447 0.328597 -0.355842 0.934546 64.4589 -0.0553717)" fill="white" stroke="#A4A9AD"/>
<rect x="0.294314" y="0.631571" width="3.97471" height="9.57272" rx="1.5" transform="matrix(0.94447 0.328597 -0.355842 0.934546 75.4589 -0.0553717)" fill="white" stroke="#A4A9AD"/>
<rect x="0.294314" y="0.631571" width="3.97471" height="9.57272" rx="1.5" transform="matrix(0.94447 0.328597 -0.355842 0.934546 86.4589 -0.0553717)" fill="white" stroke="#A4A9AD"/>
<rect x="0.294314" y="0.631571" width="3.97471" height="9.57272" rx="1.5" transform="matrix(0.94447 0.328597 -0.355842 0.934546 97.4589 -0.0553717)" fill="white" stroke="#A4A9AD"/>
<rect x="0.294314" y="0.631571" width="3.97471" height="9.57272" rx="1.5" transform="matrix(0.94447 0.328597 -0.355842 0.934546 108.459 -0.0553717)" fill="white" stroke="#A4A9AD"/>
<rect x="0.294314" y="0.631571" width="3.97471" height="9.57272" rx="1.5" transform="matrix(0.94447 0.328597 -0.355842 0.934546 119.459 -0.0553717)" fill="white" stroke="#A4A9AD"/>
<rect x="0.294314" y="0.631571" width="3.97471" height="9.57272" rx="1.5" transform="matrix(0.94447 0.328597 -0.355842 0.934546 130.459 -0.0553717)" fill="white" stroke="#A4A9AD"/>
<rect x="0.294314" y="0.631571" width="3.97471" height="9.57272" rx="1.5" transform="matrix(0.94447 0.328597 -0.355842 0.934546 141.459 -0.0553717)" fill="white" stroke="#A4A9AD"/>
<rect x="0.294314" y="0.631571" width="3.97471" height="9.57272" rx="1.5" transform="matrix(0.94447 0.328597 -0.355842 0.934546 152.459 -0.0553717)" fill="white" stroke="#A4A9AD"/>
<rect x="0.294314" y="0.631571" width="3.97471" height="9.57272" rx="1.5" transform="matrix(0.94447 0.328597 -0.355842 0.934546 163.459 -0.0553717)" fill="white" stroke="#A4A9AD"/>
<rect x="0.294314" y="0.631571" width="3.97471" height="9.57272" rx="1.5" transform="matrix(0.94447 0.328597 -0.355842 0.934546 174.459 -0.0553717)" fill="white" stroke="#A4A9AD"/>
<rect x="0.294314" y="0.631571" width="3.97471" height="9.57272" rx="1.5" transform="matrix(0.94447 0.328597 -0.355842 0.934546 185.459 -0.0553717)" fill="white" stroke="#A4A9AD"/>
<rect x="0.294314" y="0.631571" width="3.97471" height="9.57272" rx="1.5" transform="matrix(0.94447 0.328597 -0.355842 0.934546 196.459 -0.0553717)" fill="white" stroke="#A4A9AD"/>
<rect x="0.294314" y="0.631571" width="3.97471" height="9.57272" rx="1.5" transform="matrix(0.94447 0.328597 -0.355842 0.934546 207.459 -0.0553717)" fill="white" stroke="#A4A9AD"/>
<rect x="0.294314" y="0.631571" width="3.97471" height="9.57272" rx="1.5" transform="matrix(0.94447 0.328597 -0.355842 0.934546 218.459 -0.0553717)" fill="white" stroke="#A4A9AD"/>
<rect x="0.294314" y="0.631571" width="3.97471" height="9.57272" rx="1.5" transform="matrix(0.94447 0.328597 -0.355842 0.934546 229.459 -0.0553717)" fill="white" stroke="#A4A9AD"/>
<rect x="0.294314" y="0.631571" width="3.97471" height="9.57272" rx="1.5" transform="matrix(0.94447 0.328597 -0.355842 0.934546 240.459 -0.0553717)" fill="white" stroke="#A4A9AD"/>
<rect x="0.294314" y="0.631571" width="3.97471" height="9.57272" rx="1.5" transform="matrix(0.94447 0.328597 -0.355842 0.934546 251.459 -0.0553717)" fill="white" stroke="#A4A9AD"/>
<rect x="0.294314" y="0.631571" width="3.97471" height="9.57272" rx="1.5" transform="matrix(0.94447 0.328597 -0.355842 0.934546 263.003 -0.0553717)" fill="white" stroke="#A4A9AD"/>
<rect x="0.294314" y="0.631571" width="3.97471" height="9.57272" rx="1.5" transform="matrix(0.94447 0.328597 -0.355842 0.934546 274.548 -0.0553717)" fill="white" stroke="#A4A9AD"/>
<rect x="0.294314" y="0.631571" width="3.97471" height="9.57272" rx="1.5" transform="matrix(0.94447 0.328597 -0.355842 0.934546 286.092 -0.0553717)" fill="white" stroke="#A4A9AD"/>
<rect x="0.294314" y="0.631571" width="3.97471" height="9.57272" rx="1.5" transform="matrix(0.94447 0.328597 -0.355842 0.934546 297.636 -0.0553717)" fill="white" stroke="#A4A9AD"/>
<rect x="0.294314" y="0.631571" width="3.97471" height="9.57272" rx="1.5" transform="matrix(0.94447 0.328597 -0.355842 0.934546 309.003 -0.0553717)" fill="white" stroke="#A4A9AD"/>
<rect x="0.294314" y="0.631571" width="3.97471" height="9.57272" rx="1.5" transform="matrix(0.94447 0.328597 -0.355842 0.934546 320.37 -0.0553717)" fill="white" stroke="#A4A9AD"/>
<rect x="0.294314" y="0.631571" width="3.97471" height="9.57272" rx="1.5" transform="matrix(0.94447 0.328597 -0.355842 0.934546 331.736 -0.0553717)" fill="white" stroke="#A4A9AD"/>
<rect x="0.294314" y="0.631571" width="3.97471" height="9.57272" rx="1.5" transform="matrix(0.94447 0.328597 -0.355842 0.934546 343.102 -0.0553717)" fill="white" stroke="#A4A9AD"/>
<rect x="0.294314" y="0.631571" width="3.97471" height="9.57272" rx="1.5" transform="matrix(0.94447 0.328597 -0.355842 0.934546 354.47 -0.0553717)" fill="white" stroke="#A4A9AD"/>
<rect x="0.294314" y="0.631571" width="3.97471" height="9.57272" rx="1.5" transform="matrix(0.94447 0.328597 -0.355842 0.934546 365.837 -0.0553717)" fill="white" stroke="#A4A9AD"/>
<rect x="0.294314" y="0.631571" width="3.97471" height="9.57272" rx="1.5" transform="matrix(0.94447 0.328597 -0.355842 0.934546 377.203 -0.0553717)" fill="white" stroke="#A4A9AD"/>
<rect x="0.294314" y="0.631571" width="3.97471" height="9.57272" rx="1.5" transform="matrix(0.94447 0.328597 -0.355842 0.934546 388.569 -0.0553717)" fill="white" stroke="#A4A9AD"/>
<rect x="0.294314" y="0.631571" width="3.97471" height="9.57272" rx="1.5" transform="matrix(0.94447 0.328597 -0.355842 0.934546 399.936 -0.0553717)" fill="white" stroke="#A4A9AD"/>
<rect x="0.294314" y="0.631571" width="3.97471" height="9.57272" rx="1.5" transform="matrix(0.94447 0.328597 -0.355842 0.934546 411.304 -0.0553717)" fill="white" stroke="#A4A9AD"/>
<rect x="0.294314" y="0.631571" width="3.97471" height="9.57272" rx="1.5" transform="matrix(0.94447 0.328597 -0.355842 0.934546 422.67 -0.0553717)" fill="white" stroke="#A4A9AD"/>
<rect x="0.294314" y="0.631571" width="3.97471" height="9.57272" rx="1.5" transform="matrix(0.94447 0.328597 -0.355842 0.934546 434.036 -0.0553717)" fill="white" stroke="#A4A9AD"/>
<rect x="0.294314" y="0.631571" width="3.97471" height="9.57272" rx="1.5" transform="matrix(0.94447 0.328597 -0.355842 0.934546 445.403 -0.0553717)" fill="white" stroke="#A4A9AD"/>
<rect x="0.294314" y="0.631571" width="3.97471" height="9.57272" rx="1.5" transform="matrix(0.94447 0.328597 -0.355842 0.934546 456.77 -0.0553717)" fill="white" stroke="#A4A9AD"/>
<rect x="0.294314" y="0.631571" width="3.97471" height="9.57272" rx="1.5" transform="matrix(0.94447 0.328597 -0.355842 0.934546 468.137 -0.0553717)" fill="white" stroke="#A4A9AD"/>
<rect x="0.294314" y="0.631571" width="3.97471" height="9.57272" rx="1.5" transform="matrix(0.94447 0.328597 -0.355842 0.934546 479.503 -0.0553717)" fill="white" stroke="#A4A9AD"/>
<rect x="0.294314" y="0.631571" width="3.97471" height="9.57272" rx="1.5" transform="matrix(0.94447 0.328597 -0.355842 0.934546 490.87 -0.0553717)" fill="white" stroke="#A4A9AD"/>
<rect x="0.294314" y="0.631571" width="3.97471" height="9.57272" rx="1.5" transform="matrix(0.94447 0.328597 -0.355842 0.934546 502.237 -0.0553717)" fill="white" stroke="#A4A9AD"/>
<rect x="0.294314" y="0.631571" width="3.97471" height="9.57272" rx="1.5" transform="matrix(0.94447 0.328597 -0.355842 0.934546 513.603 -0.0553717)" fill="white" stroke="#A4A9AD"/>
<rect x="0.294314" y="0.631571" width="3.97471" height="9.57272" rx="1.5" transform="matrix(0.94447 0.328597 -0.355842 0.934546 524.97 -0.0553717)" fill="white" stroke="#A4A9AD"/>
<rect x="0.294314" y="0.631571" width="3.97471" height="9.57272" rx="1.5" transform="matrix(0.94447 0.328597 -0.355842 0.934546 536.337 -0.0553717)" fill="white" stroke="#A4A9AD"/>
<rect x="0.294314" y="0.631571" width="3.97471" height="9.57272" rx="1.5" transform="matrix(0.94447 0.328597 -0.355842 0.934546 547.704 -0.0553717)" fill="white" stroke="#A4A9AD"/>
<rect x="0.294314" y="0.631571" width="3.97471" height="9.57272" rx="1.5" transform="matrix(0.94447 0.328597 -0.355842 0.934546 559.07 -0.0553717)" fill="white" stroke="#A4A9AD"/>
<rect x="0.294314" y="0.631571" width="3.97471" height="9.57272" rx="1.5" transform="matrix(0.94447 0.328597 -0.355842 0.934546 570.436 -0.0553717)" fill="white" stroke="#A4A9AD"/>
<rect x="0.294314" y="0.631571" width="3.97471" height="9.57272" rx="1.5" transform="matrix(0.94447 0.328597 -0.355842 0.934546 581.804 -0.0553717)" fill="white" stroke="#A4A9AD"/>
<rect x="0.294314" y="0.631571" width="3.97471" height="9.57272" rx="1.5" transform="matrix(0.94447 0.328597 -0.355842 0.934546 593.171 -0.0553717)" fill="white" stroke="#A4A9AD"/>
<rect x="0.294314" y="0.631571" width="3.97471" height="9.57272" rx="1.5" transform="matrix(0.94447 0.328597 -0.355842 0.934546 604.537 -0.0553717)" fill="white" stroke="#A4A9AD"/>
<rect x="0.294314" y="0.631571" width="3.97471" height="9.57272" rx="1.5" transform="matrix(0.94447 0.328597 -0.355842 0.934546 615.903 -0.0553717)" fill="white" stroke="#A4A9AD"/>
<rect x="0.294314" y="0.631571" width="3.97471" height="9.57272" rx="1.5" transform="matrix(0.94447 0.328597 -0.355842 0.934546 627.27 -0.0553717)" fill="white" stroke="#A4A9AD"/>
<rect x="0.294314" y="0.631571" width="3.97471" height="9.57272" rx="1.5" transform="matrix(0.94447 0.328597 -0.355842 0.934546 638.638 -0.0553717)" fill="white" stroke="#A4A9AD"/>
<rect x="0.294314" y="0.631571" width="3.97471" height="9.57272" rx="1.5" transform="matrix(0.94447 0.328597 -0.355842 0.934546 650.004 -0.0553717)" fill="white" stroke="#A4A9AD"/>
<rect x="0.294314" y="0.631571" width="3.97471" height="9.57272" rx="1.5" transform="matrix(0.94447 0.328597 -0.355842 0.934546 661.37 -0.0553717)" fill="white" stroke="#A4A9AD"/>
<rect x="0.294314" y="0.631571" width="3.97471" height="9.57272" rx="1.5" transform="matrix(0.94447 0.328597 -0.355842 0.934546 672.737 -0.0553717)" fill="white" stroke="#A4A9AD"/>
<rect x="0.650156" y="0.302975" width="3.97471" height="9.57272" rx="1.5" transform="matrix(0.94447 -0.328597 0.355842 0.934546 5.53571 12.0245)" fill="white" stroke="#A4A9AD"/>
<rect x="0.650156" y="0.302975" width="3.97471" height="9.57272" rx="1.5" transform="matrix(0.94447 -0.328597 0.355842 0.934546 16.5357 12.0245)" fill="white" stroke="#A4A9AD"/>
<rect x="0.650156" y="0.302975" width="3.97471" height="9.57272" rx="1.5" transform="matrix(0.94447 -0.328597 0.355842 0.934546 27.5357 12.0245)" fill="white" stroke="#A4A9AD"/>
<rect x="0.650156" y="0.302975" width="3.97471" height="9.57272" rx="1.5" transform="matrix(0.94447 -0.328597 0.355842 0.934546 38.5357 12.0245)" fill="white" stroke="#A4A9AD"/>
<rect x="0.650156" y="0.302975" width="3.97471" height="9.57272" rx="1.5" transform="matrix(0.94447 -0.328597 0.355842 0.934546 49.5357 12.0245)" fill="white" stroke="#A4A9AD"/>
<rect x="0.650156" y="0.302975" width="3.97471" height="9.57272" rx="1.5" transform="matrix(0.94447 -0.328597 0.355842 0.934546 60.5357 12.0245)" fill="white" stroke="#A4A9AD"/>
<rect x="0.650156" y="0.302975" width="3.97471" height="9.57272" rx="1.5" transform="matrix(0.94447 -0.328597 0.355842 0.934546 71.5357 12.0245)" fill="white" stroke="#A4A9AD"/>
<rect x="0.650156" y="0.302975" width="3.97471" height="9.57272" rx="1.5" transform="matrix(0.94447 -0.328597 0.355842 0.934546 82.5357 12.0245)" fill="white" stroke="#A4A9AD"/>
<rect x="0.650156" y="0.302975" width="3.97471" height="9.57272" rx="1.5" transform="matrix(0.94447 -0.328597 0.355842 0.934546 93.5357 12.0245)" fill="white" stroke="#A4A9AD"/>
<rect x="0.650156" y="0.302975" width="3.97471" height="9.57272" rx="1.5" transform="matrix(0.94447 -0.328597 0.355842 0.934546 104.536 12.0245)" fill="white" stroke="#A4A9AD"/>
<rect x="0.650156" y="0.302975" width="3.97471" height="9.57272" rx="1.5" transform="matrix(0.94447 -0.328597 0.355842 0.934546 115.536 12.0245)" fill="white" stroke="#A4A9AD"/>
<rect x="0.650156" y="0.302975" width="3.97471" height="9.57272" rx="1.5" transform="matrix(0.94447 -0.328597 0.355842 0.934546 126.536 12.0245)" fill="white" stroke="#A4A9AD"/>
<rect x="0.650156" y="0.302975" width="3.97471" height="9.57272" rx="1.5" transform="matrix(0.94447 -0.328597 0.355842 0.934546 137.536 12.0245)" fill="white" stroke="#A4A9AD"/>
<rect x="0.650156" y="0.302975" width="3.97471" height="9.57272" rx="1.5" transform="matrix(0.94447 -0.328597 0.355842 0.934546 148.536 12.0245)" fill="white" stroke="#A4A9AD"/>
<rect x="0.650156" y="0.302975" width="3.97471" height="9.57272" rx="1.5" transform="matrix(0.94447 -0.328597 0.355842 0.934546 159.536 12.0245)" fill="white" stroke="#A4A9AD"/>
<rect x="0.650156" y="0.302975" width="3.97471" height="9.57272" rx="1.5" transform="matrix(0.94447 -0.328597 0.355842 0.934546 170.536 12.0245)" fill="white" stroke="#A4A9AD"/>
<rect x="0.650156" y="0.302975" width="3.97471" height="9.57272" rx="1.5" transform="matrix(0.94447 -0.328597 0.355842 0.934546 181.536 12.0245)" fill="white" stroke="#A4A9AD"/>
<rect x="0.650156" y="0.302975" width="3.97471" height="9.57272" rx="1.5" transform="matrix(0.94447 -0.328597 0.355842 0.934546 192.536 12.0245)" fill="white" stroke="#A4A9AD"/>
<rect x="0.650156" y="0.302975" width="3.97471" height="9.57272" rx="1.5" transform="matrix(0.94447 -0.328597 0.355842 0.934546 203.536 12.0245)" fill="white" stroke="#A4A9AD"/>
<rect x="0.650156" y="0.302975" width="3.97471" height="9.57272" rx="1.5" transform="matrix(0.94447 -0.328597 0.355842 0.934546 214.536 12.0245)" fill="white" stroke="#A4A9AD"/>
<rect x="0.650156" y="0.302975" width="3.97471" height="9.57272" rx="1.5" transform="matrix(0.94447 -0.328597 0.355842 0.934546 225.536 12.0245)" fill="white" stroke="#A4A9AD"/>
<rect x="0.650156" y="0.302975" width="3.97471" height="9.57272" rx="1.5" transform="matrix(0.94447 -0.328597 0.355842 0.934546 236.536 12.0245)" fill="white" stroke="#A4A9AD"/>
<rect x="0.650156" y="0.302975" width="3.97471" height="9.57272" rx="1.5" transform="matrix(0.94447 -0.328597 0.355842 0.934546 247.536 12.0245)" fill="white" stroke="#A4A9AD"/>
<rect x="0.650156" y="0.302975" width="3.97471" height="9.57272" rx="1.5" transform="matrix(0.94447 -0.328597 0.355842 0.934546 259.081 12.0245)" fill="white" stroke="#A4A9AD"/>
<rect x="0.650156" y="0.302975" width="3.97471" height="9.57272" rx="1.5" transform="matrix(0.94447 -0.328597 0.355842 0.934546 270.625 12.0245)" fill="white" stroke="#A4A9AD"/>
<rect x="0.650156" y="0.302975" width="3.97471" height="9.57272" rx="1.5" transform="matrix(0.94447 -0.328597 0.355842 0.934546 282.169 12.0245)" fill="white" stroke="#A4A9AD"/>
<rect x="0.650156" y="0.302975" width="3.97471" height="9.57272" rx="1.5" transform="matrix(0.94447 -0.328597 0.355842 0.934546 293.713 12.0245)" fill="white" stroke="#A4A9AD"/>
<rect x="0.650156" y="0.302975" width="3.97471" height="9.57272" rx="1.5" transform="matrix(0.94447 -0.328597 0.355842 0.934546 305.081 12.0245)" fill="white" stroke="#A4A9AD"/>
<rect x="0.650156" y="0.302975" width="3.97471" height="9.57272" rx="1.5" transform="matrix(0.94447 -0.328597 0.355842 0.934546 316.447 12.0245)" fill="white" stroke="#A4A9AD"/>
<rect x="0.650156" y="0.302975" width="3.97471" height="9.57272" rx="1.5" transform="matrix(0.94447 -0.328597 0.355842 0.934546 327.813 12.0245)" fill="white" stroke="#A4A9AD"/>
<rect x="0.650156" y="0.302975" width="3.97471" height="9.57272" rx="1.5" transform="matrix(0.94447 -0.328597 0.355842 0.934546 339.18 12.0245)" fill="white" stroke="#A4A9AD"/>
<rect x="0.650156" y="0.302975" width="3.97471" height="9.57272" rx="1.5" transform="matrix(0.94447 -0.328597 0.355842 0.934546 350.547 12.0245)" fill="white" stroke="#A4A9AD"/>
<rect x="0.650156" y="0.302975" width="3.97471" height="9.57272" rx="1.5" transform="matrix(0.94447 -0.328597 0.355842 0.934546 361.914 12.0245)" fill="white" stroke="#A4A9AD"/>
<rect x="0.650156" y="0.302975" width="3.97471" height="9.57272" rx="1.5" transform="matrix(0.94447 -0.328597 0.355842 0.934546 373.28 12.0245)" fill="white" stroke="#A4A9AD"/>
<rect x="0.650156" y="0.302975" width="3.97471" height="9.57272" rx="1.5" transform="matrix(0.94447 -0.328597 0.355842 0.934546 384.647 12.0245)" fill="white" stroke="#A4A9AD"/>
<rect x="0.650156" y="0.302975" width="3.97471" height="9.57272" rx="1.5" transform="matrix(0.94447 -0.328597 0.355842 0.934546 396.014 12.0245)" fill="white" stroke="#A4A9AD"/>
<rect x="0.650156" y="0.302975" width="3.97471" height="9.57272" rx="1.5" transform="matrix(0.94447 -0.328597 0.355842 0.934546 407.38 12.0245)" fill="white" stroke="#A4A9AD"/>
<rect x="0.650156" y="0.302975" width="3.97471" height="9.57272" rx="1.5" transform="matrix(0.94447 -0.328597 0.355842 0.934546 418.747 12.0245)" fill="white" stroke="#A4A9AD"/>
<rect x="0.650156" y="0.302975" width="3.97471" height="9.57272" rx="1.5" transform="matrix(0.94447 -0.328597 0.355842 0.934546 430.114 12.0245)" fill="white" stroke="#A4A9AD"/>
<rect x="0.650156" y="0.302975" width="3.97471" height="9.57272" rx="1.5" transform="matrix(0.94447 -0.328597 0.355842 0.934546 441.481 12.0245)" fill="white" stroke="#A4A9AD"/>
<rect x="0.650156" y="0.302975" width="3.97471" height="9.57272" rx="1.5" transform="matrix(0.94447 -0.328597 0.355842 0.934546 452.847 12.0245)" fill="white" stroke="#A4A9AD"/>
<rect x="0.650156" y="0.302975" width="3.97471" height="9.57272" rx="1.5" transform="matrix(0.94447 -0.328597 0.355842 0.934546 464.213 12.0245)" fill="white" stroke="#A4A9AD"/>
<rect x="0.650156" y="0.302975" width="3.97471" height="9.57272" rx="1.5" transform="matrix(0.94447 -0.328597 0.355842 0.934546 475.581 12.0245)" fill="white" stroke="#A4A9AD"/>
<rect x="0.650156" y="0.302975" width="3.97471" height="9.57272" rx="1.5" transform="matrix(0.94447 -0.328597 0.355842 0.934546 486.948 12.0245)" fill="white" stroke="#A4A9AD"/>
<rect x="0.650156" y="0.302975" width="3.97471" height="9.57272" rx="1.5" transform="matrix(0.94447 -0.328597 0.355842 0.934546 498.314 12.0245)" fill="white" stroke="#A4A9AD"/>
<rect x="0.650156" y="0.302975" width="3.97471" height="9.57272" rx="1.5" transform="matrix(0.94447 -0.328597 0.355842 0.934546 509.68 12.0245)" fill="white" stroke="#A4A9AD"/>
<rect x="0.650156" y="0.302975" width="3.97471" height="9.57272" rx="1.5" transform="matrix(0.94447 -0.328597 0.355842 0.934546 521.047 12.0245)" fill="white" stroke="#A4A9AD"/>
<rect x="0.650156" y="0.302975" width="3.97471" height="9.57272" rx="1.5" transform="matrix(0.94447 -0.328597 0.355842 0.934546 532.415 12.0245)" fill="white" stroke="#A4A9AD"/>
<rect x="0.650156" y="0.302975" width="3.97471" height="9.57272" rx="1.5" transform="matrix(0.94447 -0.328597 0.355842 0.934546 543.781 12.0245)" fill="white" stroke="#A4A9AD"/>
<rect x="0.650156" y="0.302975" width="3.97471" height="9.57272" rx="1.5" transform="matrix(0.94447 -0.328597 0.355842 0.934546 555.147 12.0245)" fill="white" stroke="#A4A9AD"/>
<rect x="0.650156" y="0.302975" width="3.97471" height="9.57272" rx="1.5" transform="matrix(0.94447 -0.328597 0.355842 0.934546 566.514 12.0245)" fill="white" stroke="#A4A9AD"/>
<rect x="0.650156" y="0.302975" width="3.97471" height="9.57272" rx="1.5" transform="matrix(0.94447 -0.328597 0.355842 0.934546 577.881 12.0245)" fill="white" stroke="#A4A9AD"/>
<rect x="0.650156" y="0.302975" width="3.97471" height="9.57272" rx="1.5" transform="matrix(0.94447 -0.328597 0.355842 0.934546 589.248 12.0245)" fill="white" stroke="#A4A9AD"/>
<rect x="0.650156" y="0.302975" width="3.97471" height="9.57272" rx="1.5" transform="matrix(0.94447 -0.328597 0.355842 0.934546 600.614 12.0245)" fill="white" stroke="#A4A9AD"/>
<rect x="0.650156" y="0.302975" width="3.97471" height="9.57272" rx="1.5" transform="matrix(0.94447 -0.328597 0.355842 0.934546 611.981 12.0245)" fill="white" stroke="#A4A9AD"/>
<rect x="0.650156" y="0.302975" width="3.97471" height="9.57272" rx="1.5" transform="matrix(0.94447 -0.328597 0.355842 0.934546 623.348 12.0245)" fill="white" stroke="#A4A9AD"/>
<rect x="0.650156" y="0.302975" width="3.97471" height="9.57272" rx="1.5" transform="matrix(0.94447 -0.328597 0.355842 0.934546 634.714 12.0245)" fill="white" stroke="#A4A9AD"/>
<rect x="0.650156" y="0.302975" width="3.97471" height="9.57272" rx="1.5" transform="matrix(0.94447 -0.328597 0.355842 0.934546 646.081 12.0245)" fill="white" stroke="#A4A9AD"/>
<rect x="0.650156" y="0.302975" width="3.97471" height="9.57272" rx="1.5" transform="matrix(0.94447 -0.328597 0.355842 0.934546 657.448 12.0245)" fill="white" stroke="#A4A9AD"/>
<rect x="0.650156" y="0.302975" width="3.97471" height="9.57272" rx="1.5" transform="matrix(0.94447 -0.328597 0.355842 0.934546 668.815 12.0245)" fill="white" stroke="#A4A9AD"/>
<path d="M0.929018 8.80813C1.01732 8.65157 1.10015 8.5549 1.15588 8.5H678.299C678.367 8.57933 678.462 8.70649 678.56 8.89094C678.769 9.28311 679 9.95181 679 11C679 12.0482 678.769 12.7169 678.56 13.1091C678.462 13.2935 678.367 13.4207 678.299 13.5H1.15588C1.10015 13.4451 1.01732 13.3484 0.929018 13.1919C0.733689 12.8455 0.5 12.1847 0.5 11C0.5 9.8153 0.733689 9.15445 0.929018 8.80813Z" fill="#F9F9F9" stroke="#A4A9AD"/>
</svg>
