<?xml version="1.0" standalone="no"?>
<!DOCTYPE svg PUBLIC "-//W3C//DTD SVG 20010904//EN"
 "http://www.w3.org/TR/2001/REC-SVG-20010904/DTD/svg10.dtd">
<svg version="1.0" xmlns="http://www.w3.org/2000/svg"
 width="512.000000pt" height="512.000000pt" viewBox="0 0 512.000000 512.000000"
 preserveAspectRatio="xMidYMid meet">
<metadata>
Created by potrace 1.11, written by Peter Selinger 2001-2013
</metadata>
<g transform="translate(0.000000,512.000000) scale(0.100000,-0.100000)"
fill="#000000" stroke="none">
<path d="M0 2560 l0 -2560 2560 0 2560 0 0 2560 0 2560 -2560 0 -2560 0 0
-2560z m2650 2088 c43 -16 89 -57 117 -105 36 -61 38 -157 6 -219 -30 -56 -93
-111 -145 -125 -197 -53 -363 156 -269 339 34 66 89 106 176 125 24 5 80 -2
115 -15z m-785 -418 c71 -39 108 -101 113 -191 3 -55 0 -77 -18 -114 -57 -117
-189 -165 -306 -111 -144 67 -181 260 -71 374 80 84 180 98 282 42z m1621 7
c44 -23 98 -89 112 -136 36 -117 -16 -238 -122 -287 -88 -41 -176 -28 -250 38
-53 46 -78 104 -77 181 0 108 80 208 181 225 54 9 114 1 156 -21z m-2502 -451
c103 -31 166 -119 166 -230 -1 -234 -302 -321 -424 -122 -82 131 -19 306 126
351 56 18 75 18 132 1z m1657 -71 c115 -41 180 -169 145 -286 -71 -244 -412
-221 -452 29 -8 51 11 131 40 171 66 88 167 121 267 86z m1665 -24 c114 -52
165 -198 110 -317 -69 -148 -261 -180 -373 -63 -112 118 -75 313 72 380 52 24
138 24 191 0z m-2449 -390 c114 -58 157 -199 97 -320 -84 -168 -324 -167 -409
2 -101 204 111 421 312 318z m1641 -8 c122 -75 149 -250 55 -354 -67 -74 -150
-100 -236 -75 -105 31 -168 114 -168 224 -1 100 46 176 136 219 67 32 147 27
213 -14z m-2507 -445 c93 -27 159 -121 159 -224 -1 -134 -97 -234 -225 -234
-213 0 -316 250 -165 400 64 65 143 85 231 58z m1664 -7 c110 -50 165 -168
131 -282 -31 -106 -113 -169 -219 -169 -32 0 -72 6 -90 13 -144 61 -190 245
-92 372 56 75 183 106 270 66z m1645 -2 c60 -27 88 -54 116 -114 41 -87 28
-183 -35 -256 -46 -54 -100 -79 -176 -79 -208 -1 -306 263 -153 408 66 62 165
79 248 41z m-2462 -465 c87 -36 142 -120 142 -219 0 -75 -24 -128 -77 -176
-51 -47 -100 -62 -174 -57 -70 5 -127 40 -172 105 -35 49 -47 146 -27 208 16
50 75 114 125 136 49 23 133 24 183 3z m1639 -5 c116 -56 165 -196 109 -314
-40 -87 -115 -135 -208 -135 -206 1 -308 256 -162 404 66 66 178 85 261 45z
m839 -472 c17 -8 47 -34 67 -56 102 -113 63 -302 -77 -367 -88 -41 -176 -28
-250 38 -53 46 -78 104 -77 181 0 108 80 208 181 225 54 9 114 1 156 -21z
m-3276 -9 c42 -26 61 -45 82 -87 106 -203 -94 -422 -298 -327 -148 69 -182
272 -63 382 53 50 87 63 159 64 57 0 73 -4 120 -32z m1627 -57 c83 -42 127
-116 127 -211 0 -248 -321 -326 -436 -106 -29 54 -31 155 -4 206 64 123 198
170 313 111z m-853 -385 c104 -32 166 -118 166 -231 -1 -233 -302 -319 -424
-121 -82 131 -19 306 126 351 56 18 75 18 132 1z m1633 -1 c54 -16 112 -65
139 -118 9 -17 19 -59 22 -94 4 -54 1 -70 -22 -118 -99 -202 -393 -163 -435
58 -18 96 21 192 99 243 66 44 120 52 197 29z m-779 -551 c169 -84 171 -332 2
-421 -38 -21 -56 -24 -116 -21 -86 4 -140 35 -184 105 -127 200 87 442 298
337z"/>
</g>
</svg>
