<svg xmlns="http://www.w3.org/2000/svg" xmlns:xlink="http://www.w3.org/1999/xlink"><defs><clipPath id="anagram-logo-a"><path fill="#fff" d="M0 0h72v72H0z"/></clipPath><clipPath id="arrow-refresh-a"><path fill="#fff" d="M0 0h16v16H0z"/></clipPath><circle id="delivery-badge-a" cx="17" cy="16.5" r="16.5"/><clipPath id="payment-apple-pay-a"><path fill="#fff" d="M0 0h34v16H0z"/></clipPath><clipPath id="payment-google-pay-a"><path fill="#fff" d="M0 0h35v14H0z"/></clipPath><linearGradient id="payment-mir-b" x1="30" y1="10.36" x2="21.3" y2="10.36" gradientUnits="userSpaceOnUse"><stop stop-color="#1E5CD8"/><stop offset="1" stop-color="#02AFFF"/></linearGradient><clipPath id="payment-mir-a"><path fill="#fff" d="M0 0h30v8H0z"/></clipPath><clipPath id="social-fb-a"><path fill="#fff" transform="translate(0 .5)" d="M0 0h16v16H0z"/></clipPath><clipPath id="social-ig-a"><path fill="#fff" transform="translate(0 .5)" d="M0 0h16v16H0z"/></clipPath><clipPath id="social-ok-a"><path fill="#fff" transform="translate(0 .5)" d="M0 0h16v16H0z"/></clipPath></defs><symbol id="icon-anagram-logo" viewBox="0 0 72 72"><g clip-path="url(#anagram-logo-a)" fill="#262626"><path d="M0 34.244l5.471-.288.067 1.26-4.323.227 4.419 1.612.063 1.197-4.226 2.065 4.323-.227.065 1.259-5.471.288-.103-1.964 4.115-1.95-4.297-1.515L0 34.244zM5.366 28.763l-.552 2.956.968.66-.25 1.316-4.92-3.5.288-1.527 5.85-1.48-.245 1.314-1.14.26zm-1.025.239l-2.644.605 2.248 1.52.396-2.125zM6.565 20.519c2.018.833 1.923 2.523 1.273 4.102l-.95 2.303-5.064-2.09.949-2.302c.65-1.58 1.773-2.847 3.792-2.013zm-.493 1.195c-1.302-.538-1.95.092-2.45 1.301l-.416 1.015 3.27 1.35.417-1.014c.499-1.21.489-2.115-.821-2.652zM12.112 17.047L9.409 21.12l-4.563-3.03 2.656-4.006.81.537-1.96 2.954 1.01.67 1.839-2.773.802.532-1.838 2.774 1.135.75 2.002-3.022.81.54zM17.175 9.94c.816.93.476 1.73-.812 2.862l-2.476 2.176-3.615-4.12 2.6-2.285c.987-.868 1.8-1.177 2.528-.347.424.483.41.966.076 1.487l.026.03c.652-.346 1.208-.332 1.673.198zm-5.316.815l.852.972 1.7-1.495c.412-.361.522-.698.213-1.051-.31-.354-.683-.255-1.066.083l-1.699 1.491zm4.29-.038c-.305-.347-.656-.236-1.12.172l-1.724 1.514.894 1.019 1.723-1.514c.547-.481.53-.843.226-1.19zM20.765 3.354l-.416 4.333.975 1.68-1.09.64-.979-1.679-3.97-1.784 1.265-.737 2.722 1.288.227-3 1.266-.741zM29.623 5.12l-2.91.75-.186 1.156-1.296.334 1.083-5.945 1.499-.388 3.82 4.675-1.296.333-.714-.915zm-.646-.827L27.31 2.152l-.43 2.682 2.096-.541zM37.413 0l.224 5.48-1.416.057-3.194-3.787.16 3.917-1.259.052-.224-5.485 1.408-.058 3.193 3.798-.159-3.922L37.413 0zM42.855 5.208L39.892 4.7l-.643.978-1.32-.226L41.355.475l1.528.263L44.45 6.57l-1.318-.227-.277-1.136zm-.25-1.022l-.644-2.638-1.49 2.273 2.134.365zM47.183 7.807c-1.634-.635-2.785-2-2.059-3.867.726-1.868 2.535-2.074 4.001-1.5 1.306.507 2.249 1.489 2.142 2.833l-1.233-.48c-.044-.583-.38-1.122-1.254-1.462-1.218-.474-2.082.1-2.46 1.078-.376.978-.039 2.022 1.216 2.508 1.19.463 1.832-.083 2.086-.591l-1.678-.653.35-.897 2.882 1.12c-.645 2.112-2.215 2.605-3.993 1.911zM54.195 11.508l.05-2.188-.025-.017-1.642-1.079-1.019 1.552-1.053-.692L53.514 4.5l2.825 1.858c1.244.817 1.494 1.834.888 2.758-.473.72-1.096.928-1.832.742l-.024 2.421-1.176-.77zm-1.094-4.083l1.734 1.14c.641.42 1.07.224 1.319-.155.258-.393.268-.833-.387-1.267l-1.733-1.142-.933 1.424z"/><path d="M59.456 14.866L57.34 12.73l-1.092.422-.942-.95 5.675-2.061 1.092 1.101-2.11 5.658-.942-.95.435-1.084zm.387-.98l1.006-2.521-2.527.987 1.52 1.535zM68.682 20.568l-4.684 2.845-.654-1.078 3.7-2.25-4.654.674-.621-1.025 2.748-3.821-3.7 2.25-.657-1.078 4.685-2.845 1.019 1.678-2.703 3.667 4.501-.7 1.02 1.683zM69.479 30.603l-1.749-1.456-1.915 1.214.838-2.11-1.74-1.449 2.257.146.847-2.106.559 2.202 2.265.144-1.92 1.215.558 2.2zM69.177 39.534c-2.183-.032-2.716-1.638-2.692-3.345l.036-2.491 5.479.078-.036 2.491c-.022 1.708-.604 3.298-2.787 3.267zm.018-1.293c1.41.02 1.782-.805 1.8-2.113l.016-1.097-3.537-.05-.016 1.096c-.02 1.309.321 2.144 1.737 2.164zM65.303 44.806l1.005-4.783 5.363 1.128-.99 4.708-.95-.2.73-3.474-1.187-.25-.685 3.259-.942-.199.685-3.258-1.333-.28-.749 3.55-.947-.2zM64.606 51.074c-1.098-.458-1.307-1.606-.558-3.407.729-1.75 1.769-2.395 2.795-1.966l-.506 1.218c-.54-.19-1.06.305-1.442 1.224-.4.961-.316 1.472.067 1.632.52.217.795-.583 1.6-1.87.807-1.287 1.406-1.544 2.202-1.213.832.346 1.362 1.23.588 3.088-.743 1.787-1.712 2.198-2.62 1.854l.47-1.131c.38.107.879-.177 1.268-1.11.433-1.041.254-1.405-.094-1.55-.477-.198-.855.629-1.348 1.467-.776 1.313-1.294 2.234-2.422 1.764zM66.716 54.753l-4.728-2.771.637-1.088 4.728 2.77-.637 1.089zM59.638 55.096c1.097-1.37 2.741-2.059 4.305-.805 1.564 1.253 1.216 3.042.232 4.272-.876 1.094-2.095 1.702-3.343 1.194l.828-1.033c.565.132 1.183-.025 1.77-.759.817-1.022.53-2.015-.29-2.667-.819-.651-1.92-.645-2.762.406-.797 1-.466 1.774-.06 2.167l1.125-1.407.75.603-1.933 2.417c-1.818-1.251-1.816-2.897-.622-4.388zM56.437 65.754l-3.445-4.265 1.101-.891 4.823 1.135-2.461-3.05.98-.793 3.445 4.264-1.095.887-4.829-1.14 2.466 3.051-.985.802zM45.763 66.749c-.484-1.14.089-1.792 1.666-2.464l3.03-1.291 2.146 5.045-3.183 1.356c-1.21.516-2.081.553-2.51-.463-.25-.59-.084-1.044.393-1.436l-.016-.035c-.728.126-1.25-.064-1.526-.712zm1.218-.417c.181.425.548.43 1.118.189l2.11-.9-.53-1.25-2.11.899c-.67.289-.769.637-.588 1.062zm4.087 1.307l-.507-1.19-2.081.887c-.505.215-.715.5-.53.934.183.433.567.456 1.035.256l2.083-.887zM40.285 71.828l-.628-3.206c-.37-1.883.764-2.53 2.248-2.82 1.484-.291 2.776-.122 3.146 1.761l.628 3.206-1.236.243-.614-3.13c-.215-1.099-.818-1.324-1.74-1.142-.922.182-1.394.617-1.18 1.716l.613 3.132-1.237.24zM33.98 66.459l1.135 1.871h.031l1.965.026.026-1.852 1.26.015-.072 5.484-3.381-.044c-1.486-.02-2.244-.743-2.23-1.848.012-.861.426-1.373 1.148-1.614l-1.28-2.054 1.399.016zm3.118 2.853l-2.074-.027c-.767-.01-1.023.386-1.028.84-.007.47.223.849 1.005.86l2.075.027.022-1.7zM27.344 65.319l4.782 1-1.117 5.365-4.705-.98.198-.95 3.474.722.25-1.189-3.256-.679.195-.943 3.258.679.277-1.333-3.555-.741.2-.951zM22.399 64.484l2.769 1.167.85-.807 1.233.521-4.466 4.067-1.428-.602-.2-6.036 1.232.52.01 1.17zm.015 1.052l.028 2.716 1.962-1.876-1.99-.84zM13.36 64.022l1.856-2.685c1.091-1.584 2.343-1.217 3.586-.357 1.244.86 2.024 1.906.933 3.485l-1.857 2.686-1.036-.717 1.81-2.623c.636-.922.377-1.51-.396-2.045-.772-.534-1.415-.57-2.05.352l-1.812 2.622-1.035-.718z"/></g></symbol><symbol id="icon-arrow-refresh" viewBox="0 0 16 16"><g clip-path="url(#arrow-refresh-a)"><path fill-rule="evenodd" clip-rule="evenodd" d="M4.446.85a.65.65 0 0 1 .46.796L4.52 3.09l.518-.298a6.432 6.432 0 1 1-2.354 8.785.65.65 0 0 1 1.126-.65 5.13 5.13 0 1 0 1.878-7.009l-.518.299 1.445.387a.65.65 0 0 1-.336 1.257l-2.962-.794a.65.65 0 0 1-.46-.797L3.65 1.31a.65.65 0 0 1 .796-.46z"/></g></symbol><symbol id="icon-arrow-right" viewBox="0 0 7 12"><title>arrow-right</title><path d="M.334 11.333l6-5.333-6-5.333" stroke="#A1A1A1" fill="none" fill-rule="evenodd" stroke-linecap="round" stroke-linejoin="round"/></symbol><symbol id="icon-blog-feather" viewBox="0 0 8 15"><path fill-rule="evenodd" clip-rule="evenodd" d="M7.06 3.99c-.509 2.646-1.89 2.892-3.049 3.542.335.154 1.697-.003 2.492-.388-1.026 2.09-2.645 3.33-4.125 3.874-.148.69-.37 1.872-.37 1.872L.667 14.167C1.513 6.946 1.887 1.428 7.333.833c-.025 1.323-.99 2.854-2.222 3.692.529 0 1.522-.317 1.95-.535z" fill="#000"/></symbol><symbol id="icon-cart" viewBox="0 0 20 20"><path fill-rule="evenodd" clip-rule="evenodd" d="M5.492 13.849L2.082 2.742s-.778-.073-1.213-.084C-.018 2.636-.446.308.669.246 1.006.227 3.827 0 3.827 0l1.1 4.475L20 5.284l-1.827 8.15-12.68.415zm.265 1.332c3.097 0 3.175 4.735.215 4.735-3.512 0-3.254-4.735-.215-4.735zm10.456.085c3.098 0 3.175 4.734.215 4.734-3.512 0-3.253-4.734-.215-4.734z" fill="#262626"/></symbol><symbol id="icon-catalog-button-dark" viewBox="0 0 20 20"><path d="M3 10h14M3 15h14M3 5h14" stroke="#262626" stroke-width="1.5"/></symbol><symbol id="icon-catalog-button" viewBox="0 0 24 24"><path d="M2 12h20M2 17h20M2 7h20" stroke="#A4A9AD" stroke-width="2"/></symbol><symbol id="icon-catalog-grid" viewBox="0 0 17 17"><path fill-rule="evenodd" clip-rule="evenodd" d="M5 0H0v5h5V0zm1 0h5v5H6V0zm6 0h5v5h-5V0zm0 6h5v5h-5V6zm-1 0H6v5h5V6zM0 6h5v5H0V6zm17 6h-5v5h5v-5zM6 12h5v5H6v-5zm-1 0H0v5h5v-5z"/></symbol><symbol id="icon-catalog-list" viewBox="0 0 17 17"><path fill-rule="evenodd" clip-rule="evenodd" d="M0 0h17v5H0V0zm0 12h17v5H0v-5zm17-6H0v5h17V6z"/></symbol><symbol id="icon-catalog-view-grid" viewBox="0 0 14 14"><path fill-rule="evenodd" clip-rule="evenodd" d="M6 0H0v6h6V0zm8 0H8v6h6V0zM8 8h6v6H8V8zM6 8H0v6h6V8z"/></symbol><symbol id="icon-catalog-view-list" viewBox="0 0 14 14"><path fill-rule="evenodd" clip-rule="evenodd" d="M0 0h14v2H0V0zm0 12h14v2H0v-2zm14-6H0v2h14V6z"/></symbol><symbol id="icon-delivery-badge" viewBox="0 0 34 33"><g fill-rule="evenodd"><circle fill-rule="nonzero" cx="17" cy="16.5" r="16.5"/><mask id="delivery-badge-b" fill="#fff"><use xlink:href="#delivery-badge-a"/></mask><path d="M23.953 13.695l.606 2.665 3.929.304.012 4.188-2.137.75c-.11-1.45-1.145-2.856-3.111-2.856-2.028 0-3.108 1.557-3.075 3.086h-4.853c0-1.104-.554-2.22-1.634-2.756l6.097-.145.132-6.997 5.792.133.946 1.554-2.704.074zm-17.346-2c-.027-.828.142-1.763 1.744-1.691 1.602.071 7.544.057 8.657.057 1.114 0 1.76.585 1.76 2.065 0 2.211.07 6.126.07 6.126l-12.06-.166s-.095-3.97-.17-6.39zm3.985 7.456c-.39.232-.721.544-.969.916a2.88 2.88 0 0 0-.462 1.228l-2.661-.5.268-1.553 3.824-.091zm1.62.341c3.042 0 3.119 4.508.206 4.508-3.442 0-3.189-4.508-.204-4.508h-.002zm.097 3.195c1.212 0 1.179-1.88-.089-1.88s-1.346 1.88.09 1.88h-.001zm10.95-3.195c3.042 0 3.12 4.508.205 4.508-3.442 0-3.188-4.508-.204-4.508h-.002zm.096 3.195c1.212 0 1.181-1.88-.087-1.88-1.267 0-1.348 1.88.09 1.88h-.003z" fill="#FFF" mask="url(#delivery-badge-b)"/></g></symbol><symbol id="icon-down-arrow-small" viewBox="0 0 12 8"><path fill-rule="evenodd" clip-rule="evenodd" d="M11.563.952a.75.75 0 0 1 .004 1.06L6.582 7.03a.75.75 0 0 1-1.06.003L.506 2.048A.75.75 0 0 1 1.563.984l4.484 4.455L10.503.956a.75.75 0 0 1 1.06-.004z" fill="#262626"/></symbol><symbol id="icon-download-file" viewBox="0 0 16 17"><title>download-file</title><g transform="translate(0 1)" fill="none" fill-rule="evenodd"><circle stroke="#A4A9AD" stroke-width="1.3" cx="8" cy="7.5" r="7.35"/><path d="M7.646 10.354a.5.5 0 0 0 .708 0l3.182-3.182a.5.5 0 1 0-.708-.708L8 9.293 5.172 6.464a.5.5 0 1 0-.708.708l3.182 3.182zM7.5 0v10h1V0h-1z" fill="#A4A9AD" fill-rule="nonzero"/><path stroke="#A4A9AD" stroke-linecap="round" d="M5.5 11.5h5"/></g></symbol><symbol id="icon-factory" viewBox="0 0 60 46"><path fill-rule="evenodd" clip-rule="evenodd" d="M1.59 45.5L.995 25.99l14.5-9.428 4.811 9.427 14.678-9.25 4.811 9.25 13.612-9.428 5.9 9.428-.39 19.156L1.59 45.5zm17.538-14.303L6.443 31.5v7.108l13.292.24-.607-7.652zm17.526-.421l-13.2.317-.22 7.819 13.45.243-.03-8.38zm3.901-.093l-.388 8.535 13.446.243.212-9.097-13.27.319zM42.573.643l6.463-.11.955 15.634-8.345 4.624.927-20.148zM23.686 5.366l6.117-.111L31.258 16.1l-8.546 4.289.974-15.024z"/></symbol><symbol id="icon-flag" viewBox="0 0 16 18"><path fill-rule="evenodd" clip-rule="evenodd" d="M13.932 18l-1.79-.135s1.77-15.825 1.92-17.02c.149-1.195 2.025-1.082 1.935.083C15.907 2.094 13.932 18 13.932 18zM6.036 9.916l.79-7.778 5.87-.061-1.051 8.967-5.609-1.128zM0 10.017l3.158-2.85L.088 4.21l5.245-.34-.57 7.387L0 10.017z"/></symbol><symbol id="icon-get-doc" viewBox="0 0 18 20"><path fill-rule="evenodd" clip-rule="evenodd" d="M11.159 20L0 18.17 2.23 0 18 2.107l-1.695 14.26L11.16 20zM3.34 1.476L1.564 17.079l8.44 1.476.666-4.006 4.442.42L16.445 3.16 3.34 1.476zm1.31 4.107l.128-1.493 9.964 1.42-.28 1.273-9.812-1.2zm9.126 4.32l-9.38-1.337.11-1.298 9.591 1.172-.321 1.463zm-4.22 2.223l-5.43-.385.126-1.481 5.75.59-.445 1.276z" fill="#262626"/></symbol><symbol id="icon-globe" viewBox="0 0 41 53"><path fill-rule="evenodd" clip-rule="evenodd" d="M19.492 45.368c-6.005 0-10.871-1.43-14.661-3.784l1.279-2.81c.536.349 1.102.673 1.692.977l1.157-2.346C-5.305 29.71-1.057 5.397 17.44 5.397c2.517 0 4.755.436 6.72 1.205l1.174-2.378c-.97-.38-1.994-.696-3.079-.93L23.755 0c23.705 5.983 22.333 45.368-4.263 45.368zM8.048 32.858c-.494-4.12.238-8.262 1.833-12.008L4.347 18.1c-1.588 5.075-.463 11.028 3.701 14.758zM17.461 8.61c-5.403 0-9.31 2.553-11.56 6.113l5.566 2.998c2.207-3.722 5.282-6.852 8.797-8.87a16.191 16.191 0 0 0-2.803-.24zm-5.77 26.628c3.743-1.427 6.968-4.821 9.231-8.902l-8.096-4.023c-1.865 4.23-2.541 8.927-1.134 12.925zm12.415-24.476c-3.615 1.121-7.19 4.418-9.702 8.54l7.874 4.239c1.79-4.27 2.547-8.937 1.828-12.779zm-.087 17.112c-1.97 3.404-4.697 6.345-7.999 8.458.856.112 1.756.172 2.704.172 5.163 0 8.753-2.455 10.775-5.908l-5.48-2.722zm6.633.175c1.733-5.143.652-11.47-3.24-15.48.425 4.346-.337 8.71-2.044 12.635l5.284 2.845zM27.375 8.31c11.96 8.286 9.195 31.403-8.38 31.403-2.75 0-5.179-.404-7.298-1.121L10.5 40.904c2.52.876 5.423 1.372 8.726 1.372 20.64 0 23.737-27.054 9.392-36.368L27.375 8.31zM9.939 49.625l6.735-.136.167-1.961 4.791-.109v1.969l6.529-.133.537 3.741-19.13-.179.371-3.192z" fill="#262626"/></symbol><symbol id="icon-just-box" viewBox="0 0 19 19"><path fill-rule="evenodd" clip-rule="evenodd" d="M.75 15.314L.893 4.682 7.77.167l10.182 2.806.298 10.758-6.763 4.519L.75 15.314zm1.534-1.19l8.389 2.13-.058-8.168-2.7-.617-.041 3.706-3.076.204-.01-4.624-2.442-.557-.062 7.927zM8.079 1.677L3.311 4.77l1.986.503 4.96-3.05-2.178-.546zm5.633 1.412L8.58 6.105l2.75.697 5.109-3.03-2.727-.684z"/></symbol><symbol id="icon-lightning" viewBox="0 0 16 16"><path fill-rule="evenodd" clip-rule="evenodd" d="M6.249 15.334l.492-6.928-2.074-.3.656-7.439 4.506.55-1.214 4.1 2.051.501-4.417 9.516z" fill="#262626"/></symbol><symbol id="icon-list-clip" viewBox="0 0 17 21"><path fill-rule="evenodd" clip-rule="evenodd" d="M10.54 21L0 19.204 2.106 1.383l3.406.472c1.005-2.928 5.602-2.18 5.635.782L17 3.449 15.4 16.81 10.54 21zM7.702 3.438l.3-1.237 1.862.258C9.51.853 6.902 1.11 6.706 2.631c-.14 1.092-.639 5.436-1.074 8.866-.173 1.365 2.098 1.904 2.29.155l.684-6.304 1.26.208s-.552 5.944-.59 6.388c-.282 3.206-5.319 2.49-4.999-.508.468-4.382.761-6.55 1-8.322L3.155 2.83 1.477 18.135l7.971 1.447.63-4.555 4.195.62 1.259-11.164-7.829-1.045z" fill="#262626"/></symbol><symbol id="icon-mail-box" viewBox="0 0 14 13"><path fill-rule="evenodd" clip-rule="evenodd" d="M0 8.057V2.945C0 1.442.841.167 3.049.167c1.051 0 10.106.111 10.106.111l.178 7.723L0 8.057zm4.261-4.718c0-2.243-3.23-2.352-3.23.038 0 .45.008 3.442.008 3.442l3.241-.057s-.019-2.701-.019-3.423zm6.622.204l-5.236-.096-.011 1.054 3.694.008c0 1.128.901 1.405 1.602 1.405l-.05-2.37zm-2.58 5.414l.042 3.876-2.973-.046.008-3.778 2.923-.052z" fill="#262626"/></symbol><symbol id="icon-mail-hand" viewBox="0 0 14 12"><path fill-rule="evenodd" clip-rule="evenodd" d="M10.29 11.833l-6.538-1.92.564-1.62-1.514-.39-.417-3.884 3.053-2.17 1.024.293L7.034.5l6.633 1.973-3.378 9.36zm2.236-8.3L9.08 5.94l1.002 4.304 2.443-6.712zM7.55 1.445l-.322.916 2.337.671c.183.875-.697 1.392-1.437 1.315a19.52 19.52 0 0 1-1.508-.254L4.745 9.436l4.705 1.445-1.246-5.27 4.1-2.82L7.55 1.445zM.333 3.711l1.142-.04.772 5.314-1.841.002-.073-5.276z" fill="#000"/></symbol><symbol id="icon-manager" viewBox="0 0 20 20"><path fill-rule="evenodd" clip-rule="evenodd" d="M18.205 15.337c-.379 2.215-1.429 3.43-3.438 4.026-1.048.311-2.389.45-4.091.465l-1.592.005.028-1.23s1.531.01 1.615.008c4.176-.039 5.744-.658 6.22-3.137h-.984l-.37 1.344-1.914.012v-2.366l-1.85-.029v2.406l-1.123.007v-2.43l-2.045-.032v2.474l-1.206.007v-2.5l-1.917-.03v2.542l-2.766.017s0-5.292.055-7.334c.053-1.982 1.472-3.924 4.245-3.92l4.839.042c2.845.02 4.257 2.042 4.248 4.059h.966V9.65c0-2.274-1.49-4.814-4.7-4.837l-5.853-.046C3.463 4.762 1.936 7.19 1.877 9.413c-.02.697-.041 2.74-.041 2.74l-1.103.094S.659 10.035.668 9.196c.027-2.594 1.995-5.71 5.624-5.705l2.243.02L9.073.5h1.198l.415 3.028 2.063.018c3.745.026 5.63 3.172 5.63 5.825v.467c1.244.671 1.36 4.7-.174 5.499zM6.771 8.417c-2.349 0-2.462 3.646.04 3.646 2.284 0 2.3-3.646-.04-3.646zm6.024.565c-1.653 0-1.732 2.567.028 2.567 1.609 0 1.62-2.567-.028-2.567z"/></symbol><symbol id="icon-monalisa" viewBox="0 0 56 56"><path fill-rule="evenodd" clip-rule="evenodd" d="M4.667 49.997l7.078-48.441 30.948 2.666 8.64 9.582-5.86 40.64-40.806-4.447zm25.125-3.812c1.067-.638 5.416-3.99 5.416-3.99l-3.71-1.043-.17-7.436s-4.422 1.42-7.926-.133c0 .422-.065 1.692-.103 2.142-10.492 4.202-5.686 10.162 6.493 10.46zM27.97 17.396c-3.997-.5-4.709 3.015-4.878 4.481-.088.752-.233 1.76-.233 2.994-.451 3.86.995 4.647 1.412 5.197.199.264.462 1.304 1.788 1.47 1.617.203 1.94-.474 2.195-.681.398-.324 1.92-.812 2.084-2.212.297-2.54 1.169-2.36 1.279-2.97.15-.83.095-1.736.233-2.994.341-3.123-.775-4.897-3.88-5.285zm10.433-2.084l.644-7.94-24.746-1.961-5.176 36.722c2.397-3.7 6.527-5.999 9.57-9.03-1.091-3.458-.481-9.547.613-10.674-.223-.395-.164-1.259-.066-2.058.111-.916 1.592-2.194 2.02-3.08.784-1.625 3.528-4.33 7.862-3.867 8.212.874 8.76 5.926 8.845 9.877.071 3.248.169 6.163.287 8.075.113 1.816-.256 6.668 1.734 9.195.802 1.018 2.975 2.881 2.975 2.881l.34.635 4.031-27.54-8.933-1.235z"/></symbol><symbol id="icon-more-sizes" viewBox="0 0 19 5"><circle cx="2.5" cy="2.5" r="2.5"/><circle cx="9.5" cy="2.5" r="2.5"/><circle cx="16.5" cy="2.5" r="2.5"/></symbol><symbol id="icon-msg-market-grey-logo" viewBox="0 0 91 11"><title>msg-market-grey-logo</title><path d="M21.413 9.097a5.282 5.282 0 0 0 3.732 1.4c.804.004 1.6-.145 2.349-.438a4.664 4.664 0 0 0 1.662-1.085V5.372h-2.487v2.485c-.44.323-.98.482-1.524.452a2.61 2.61 0 0 1-2.692-2.76 2.599 2.599 0 0 1 .828-2 3.043 3.043 0 0 1 2.143-.768 5.44 5.44 0 0 1 2.623.727v-2.32A5.929 5.929 0 0 0 25.246.5c-1.552 0-2.826.467-3.822 1.4A4.687 4.687 0 0 0 19.918 5.5a4.738 4.738 0 0 0 1.495 3.598zm-6.402 1.401c-1.482 0-2.726-.343-3.732-1.03V6.942a4.951 4.951 0 0 0 1.649.933c.63.246 1.3.377 1.976.386.98 0 1.47-.252 1.47-.755a.714.714 0 0 0-.37-.564 3.03 3.03 0 0 0-.617-.249l-.854-.265-.7-.2-.633-.24a3.295 3.295 0 0 1-.632-.302 3.67 3.67 0 0 1-.935-.878 3.023 3.023 0 0 1-.343-1.414 2.502 2.502 0 0 1 1.006-2.139c.676-.502 1.6-.755 2.77-.755a6.824 6.824 0 0 1 3.256.797v2.376a6.284 6.284 0 0 0-1.524-.659 5.928 5.928 0 0 0-1.703-.274c-.842 0-1.263.21-1.263.63 0 .184.134.331.4.439l.439.149c.1.037.316.101.645.193.33.092.554.156.674.193a6.32 6.32 0 0 1 2.17 1.14c.522.448.782 1.088.781 1.92a2.711 2.711 0 0 1-1.098 2.255c-.726.56-1.67.84-2.832.84zm-12.539-.19H0V.694h2.459l2.43 3.693L7.335.694h2.443v9.614H7.32V4.453l-1.716 2.57h-1.36l-1.771-2.57v5.855zm32.34 0H33.81V.694h1.003l3.476 4.654L41.76.694h.99v9.614h-1.004V2.23l-3.146 4.197h-.62l-3.169-4.197v8.077zm9.695 0h1.058l1.168-2.653h5.039l1.196 2.652h1.071l-4.3-9.67h-.947l-4.285 9.67zm2.569-3.544l2.184-4.85 2.182 4.85h-4.366zm9.737 3.544h-1.017V.694h4.3c.934 0 1.673.236 2.216.707a2.383 2.383 0 0 1 .82 1.901 2.514 2.514 0 0 1-.6 1.717 2.702 2.702 0 0 1-1.666.865l3.102 4.424h-1.195l-3.02-4.319h-2.94v4.319zm0-8.694v3.447h3.227a2.36 2.36 0 0 0 1.537-.44 1.56 1.56 0 0 0 .538-1.266 1.572 1.572 0 0 0-.549-1.278 2.34 2.34 0 0 0-1.526-.452l-3.227-.011zM66.92.694h-1.017v9.614h1.017v-4.89l5.089 4.888h1.436L67.99 5.085l4.725-4.39H71.37l-4.45 4.17V.695zm14.861 9.614h-6.806V.694h6.587v.92h-5.577v3.074h4.586v.92h-4.573v3.78h5.783v.92zm4.654 0h1.017V1.614h3.359v-.92h-7.684v.92h3.308v8.694z" fill="#A4A9AD" fill-rule="evenodd"/></symbol><symbol id="icon-msg-market-logo--black" viewBox="0 0 141 16"><path fill-rule="evenodd" clip-rule="evenodd" d="M68.799 15.12h1.636l1.805-4.089h7.788l1.85 4.089h1.656L76.886.21h-1.463L68.8 15.12zm3.97-5.463l3.377-7.476 3.373 7.476h-6.75zM52.262 15.12h1.55V2.668L58.71 9.14h.96l4.863-6.472V15.12h1.55V.3h-1.53l-5.368 7.175L53.813.3h-1.551V15.12zm35.559 0H86.25V.3h6.644c1.446 0 2.588.363 3.428 1.09a3.672 3.672 0 0 1 1.266 2.93 3.87 3.87 0 0 1-.927 2.648A4.182 4.182 0 0 1 94.085 8.3l4.796 6.82h-1.846l-4.67-6.657H87.82v6.657zm0-13.403v5.314h4.989a3.655 3.655 0 0 0 2.375-.677 2.405 2.405 0 0 0 .831-1.953 2.419 2.419 0 0 0-.848-1.97 3.625 3.625 0 0 0-2.359-.697l-4.988-.017zM103.445.3h-1.572V15.12h1.572V7.583l7.866 7.534h2.219l-8.429-8.049L112.404.3h-2.081l-6.878 6.43V.3zm22.97 14.821h-10.52V.3h10.181v1.418h-8.62v4.739h7.089v1.418h-7.069v5.828h8.939v1.418zm7.195 0h1.571V1.717h5.193V.3h-11.878v1.418h5.114V15.12z" fill="#262626"/><path d="M3.821 15.12H0V.299h3.8l3.758 5.693 3.78-5.693h3.777v14.82h-3.8V6.094L8.66 10.057H6.56L3.82 6.093v9.027zM23.203 15.414c-2.292 0-4.215-.53-5.77-1.588V9.931a7.658 7.658 0 0 0 2.55 1.438c.973.38 2.008.582 3.053.596 1.516 0 2.274-.388 2.274-1.164a1.098 1.098 0 0 0-.573-.87 4.688 4.688 0 0 0-.954-.383l-1.32-.41-1.083-.307-.977-.37a5.097 5.097 0 0 1-.977-.466A5.667 5.667 0 0 1 17.98 6.64a4.65 4.65 0 0 1-.53-2.18 3.849 3.849 0 0 1 1.555-3.296C20.05.39 21.479 0 23.288 0A10.57 10.57 0 0 1 28.32 1.23v3.662a9.725 9.725 0 0 0-2.355-1.015 9.185 9.185 0 0 0-2.633-.423c-1.301 0-1.952.323-1.952.971 0 .284.207.511.618.677l.679.23c.156.058.488.156.997.298.51.142.856.24 1.042.298a9.78 9.78 0 0 1 3.353 1.756c.808.69 1.21 1.678 1.208 2.962a4.17 4.17 0 0 1-1.697 3.476c-1.122.862-2.58 1.293-4.377 1.293zM38.87 15.414a8.177 8.177 0 0 1-5.769-2.16 7.302 7.302 0 0 1-2.311-5.547 7.21 7.21 0 0 1 2.328-5.547C34.658.72 36.628 0 39.026 0a9.183 9.183 0 0 1 4.33 1.06v3.577a8.427 8.427 0 0 0-4.055-1.12A4.711 4.711 0 0 0 35.99 4.7a4.008 4.008 0 0 0-1.28 3.084 4.016 4.016 0 0 0 1.14 3.042 4.036 4.036 0 0 0 3.021 1.212c.843.047 1.675-.2 2.355-.697V7.51h3.845v5.554a7.212 7.212 0 0 1-2.569 1.672 9.866 9.866 0 0 1-3.63.677z" fill="#262626"/></symbol><symbol id="icon-msg-market-logo--white" viewBox="0 0 180 20"><path fill-rule="evenodd" clip-rule="evenodd" d="M88.22 19.615h2.098l2.315-5.304h9.987l2.372 5.304h2.123L98.59.273h-1.875L88.22 19.615zm5.092-7.087l4.33-9.7 4.325 9.7h-8.655zm-26.298 7.087h1.99V3.462l6.278 8.395h1.232l6.236-8.395v16.153h1.989V.388h-1.963l-6.884 9.308L69.003.388h-1.989v19.227zm45.598 0h-2.015V.388h8.521c1.853 0 3.318.471 4.395 1.414.536.47.961 1.055 1.242 1.714.281.658.411 1.372.381 2.088a5.057 5.057 0 0 1-1.188 3.434 5.344 5.344 0 0 1-3.303 1.73l6.149 8.847h-2.368l-5.987-8.636h-5.827v8.636zm0-17.387V9.12h6.397a4.648 4.648 0 0 0 3.046-.878 3.12 3.12 0 0 0 1.066-2.533 3.165 3.165 0 0 0-1.088-2.556 4.608 4.608 0 0 0-3.024-.904l-6.397-.022zm20.034-1.84h-2.014v19.227h2.014V9.837l10.087 9.774h2.846L134.77 9.17l9.365-8.782h-2.668l-8.821 8.342V.388zm29.455 19.227h-13.49V.388h13.055v1.84h-11.053v6.147h9.09v1.84h-9.064v7.56h11.462v1.84zm9.226 0h2.015V2.228H180V.388h-15.231v1.84h6.558v17.387z" fill="#fff"/><path d="M4.9 19.616H0V.387h4.874L9.69 7.774 14.54.388h4.843v19.228h-4.874V7.905l-3.403 5.14H8.412L4.9 7.907v11.71zM29.753 19.996c-2.939 0-5.405-.686-7.398-2.06v-5.053a9.79 9.79 0 0 0 3.268 1.866c1.25.493 2.576.755 3.917.773 1.944 0 2.915-.504 2.915-1.51a1.436 1.436 0 0 0-.735-1.129 5.973 5.973 0 0 0-1.223-.496l-1.693-.531-1.388-.4-1.253-.479a6.503 6.503 0 0 1-1.253-.606 7.303 7.303 0 0 1-1.854-1.756 6.09 6.09 0 0 1-.679-2.827 5.045 5.045 0 0 1 .465-2.391A4.996 4.996 0 0 1 24.37 1.51C25.71.505 27.542 0 29.862 0c2.249-.019 4.467.529 6.453 1.593v4.751a12.396 12.396 0 0 0-3.02-1.317 11.653 11.653 0 0 0-3.377-.549c-1.668 0-2.502.42-2.502 1.26 0 .37.266.663.792.878l.87.299c.2.075.627.202 1.28.386.653.185 1.096.312 1.336.387a12.49 12.49 0 0 1 4.3 2.279c1.035.895 1.551 2.176 1.548 3.841a5.462 5.462 0 0 1-.54 2.524 5.412 5.412 0 0 1-1.635 1.986c-1.44 1.118-3.31 1.677-5.614 1.677zM49.843 19.996a10.417 10.417 0 0 1-7.398-2.801 9.477 9.477 0 0 1-2.249-3.277 9.552 9.552 0 0 1-.714-3.92 9.448 9.448 0 0 1 .715-3.926 9.375 9.375 0 0 1 2.27-3.27C44.443.933 46.967 0 50.043 0c1.935-.01 3.842.462 5.553 1.374v4.642a10.71 10.71 0 0 0-5.2-1.454A5.999 5.999 0 0 0 46.148 6.1a5.2 5.2 0 0 0-1.252 1.82 5.239 5.239 0 0 0-.388 2.18c-.042.724.067 1.45.318 2.129.252.68.641 1.298 1.143 1.818.502.519 1.106.927 1.773 1.198.667.27 1.382.398 2.1.374a4.64 4.64 0 0 0 3.02-.904v-4.97h4.931v7.205a9.235 9.235 0 0 1-3.294 2.169 12.521 12.521 0 0 1-4.656.878z" fill="#fff"/></symbol><symbol id="icon-msg-market-logo" viewBox="0 0 180 20"><path fill-rule="evenodd" clip-rule="evenodd" d="M88.22 19.44h2.098l2.315-5.257h9.987l2.372 5.256h2.123L98.59.271h-1.875L88.22 19.439zm5.092-7.024l4.33-9.613 4.325 9.613h-8.655zM67.015 19.44h1.988V3.43l6.28 8.32h1.231l6.236-8.32v16.01h1.989V.384h-1.963l-6.884 9.225L69.003.384h-1.988V19.44zm45.597 0h-2.015V.384h8.521c1.853 0 3.318.467 4.395 1.401a4.728 4.728 0 0 1 1.623 3.769 4.984 4.984 0 0 1-1.188 3.403 5.36 5.36 0 0 1-3.303 1.714l6.149 8.769h-2.367l-5.988-8.56h-5.827v8.56zm0-17.233V9.04h6.397a4.678 4.678 0 0 0 3.046-.87 3.094 3.094 0 0 0 1.066-2.51 3.112 3.112 0 0 0-1.088-2.533 4.637 4.637 0 0 0-3.024-.897l-6.397-.022zM132.646.384h-2.014V19.44h2.014V9.749l10.087 9.686h2.846L134.77 9.087l9.365-8.703h-2.668l-8.821 8.268V.384zm29.455 19.056h-13.49V.384h13.055v1.823h-11.053V8.3h9.091v1.823h-9.065v7.493h11.462v1.824zm9.226 0h2.015V2.207H180V.384h-15.231v1.823h6.558V19.44z" fill="#262626"/><path d="M4.9 19.44H0V.386h4.874l4.817 7.32L14.54.384h4.843V19.44h-4.874V7.835l-3.403 5.096H8.412L4.9 7.835V19.44zM29.753 19.818c-2.939 0-5.405-.68-7.398-2.041v-5.009c.96.821 2.07 1.45 3.268 1.85a11.16 11.16 0 0 0 3.917.765c1.944 0 2.915-.499 2.915-1.496a1.414 1.414 0 0 0-.735-1.119 6 6 0 0 0-1.223-.492l-1.693-.526-1.388-.396-1.253-.474a6.528 6.528 0 0 1-1.253-.601 7.278 7.278 0 0 1-1.854-1.74 5.992 5.992 0 0 1-.679-2.803 4.96 4.96 0 0 1 1.993-4.239C25.71.501 27.542 0 29.862 0a13.525 13.525 0 0 1 6.453 1.58V6.29a12.453 12.453 0 0 0-3.02-1.306 11.75 11.75 0 0 0-3.377-.544c-1.668 0-2.502.416-2.502 1.249 0 .366.266.657.792.87l.87.296c.2.074.627.2 1.28.383a65.14 65.14 0 0 1 1.336.383 12.528 12.528 0 0 1 4.3 2.259c1.035.887 1.551 2.157 1.548 3.807a5.375 5.375 0 0 1-2.175 4.47c-1.44 1.108-3.31 1.662-5.614 1.662zM49.843 19.817a10.47 10.47 0 0 1-7.398-2.776 9.39 9.39 0 0 1-2.964-7.132 9.29 9.29 0 0 1 2.986-7.133C44.442.926 46.967 0 50.043 0a11.75 11.75 0 0 1 5.553 1.362v4.6a10.783 10.783 0 0 0-5.2-1.44 6.031 6.031 0 0 0-4.248 1.523 5.152 5.152 0 0 0-1.64 3.964 5.174 5.174 0 0 0 5.335 5.47 4.67 4.67 0 0 0 3.02-.897V9.656h4.93v7.141a9.242 9.242 0 0 1-3.294 2.15 12.62 12.62 0 0 1-4.656.87z" fill="#2F2BDF"/></symbol><symbol id="icon-ninja" viewBox="0 0 26 62"><path fill-rule="evenodd" clip-rule="evenodd" d="M22.41 15.48s.885 5.807 1.608 9.359c.724 3.55-3.93 8.738-3.93 8.738L21.18 61.7s-4.61 1.59-5.185-2.538c-.506-3.621-1.316-9.924-1.316-9.924l-4.032-.105s-.62 5.148-1.247 9.681c-.64 4.63-5.481 2.71-5.481 2.71l1.593-28.081s-5.034-4.656-4.156-8.716c.773-3.569 1.832-9.204 1.832-9.204.43-.446.935-.844 1.496-1.197L.5 8.505l2.561-2.097 4.47 6.641c.297-.09.6-.175.909-.25.013-2.122.046-7.409.046-8.71 0-5.221 8.898-5.745 8.898.193 0 1.501.01 6.72.014 8.604.555.146 1.093.324 1.61.526l3.808-7.235L25.5 8.189l-4.036 6.524a8.8 8.8 0 0 1 .945.766zM15.945 4.828l-6.085-.015c-1.049 3.35 7.236 3.165 6.085.015z" fill="#262626"/></symbol><symbol id="icon-order-car" viewBox="0 0 30 14"><path fill-rule="evenodd" clip-rule="evenodd" d="M25.689 4.198l.094 2.4L30 6.971l-.434 4.09-1.483.539c-.107-1.45-1.115-2.855-3.028-2.855-1.976 0-3.03 1.557-2.998 3.087h-4.723c0-1.19-.618-2.381-1.825-2.863l6.172-.04.79-6.685 5.515.135.83 1.819h-3.127zm-4.94 3.924L8.72 8s.445-4.305.63-6.273C9.45.645 10.212 0 11.333 0c1.642 0 7.501.056 8.591.056 1.09 0 1.715.565 1.546 2.067-.242 2.196-.72 5.999-.72 5.999zm-9.416 3.174l-2.982-.573.227-1.708 4.477-.038a2.945 2.945 0 0 0-1.17.933 2.896 2.896 0 0 0-.552 1.382v.004zM3.805 2.337l.355-.794L8.28.988l-.161 1.57-4.313-.221zm4.026 3.002L0 5.114l.229-.676 7.77-.778-.168 1.679zM7.71 6.5l-.167 1.61-5.536-.22.305-.793 5.397-.597zm6.593 2.99c2.964 0 3.038 4.509.201 4.509-3.355 0-3.116-4.51-.2-4.51zm.097 3.196c1.18 0 1.148-1.881-.087-1.881-1.235 0-1.319 1.88.087 1.88zM25.067 9.49c2.963 0 3.038 4.509.2 4.509-3.357 0-3.11-4.51-.202-4.51h.002zm.094 3.196c1.18 0 1.148-1.881-.086-1.881-1.235 0-1.316 1.88.084 1.88h.002z"/></symbol><symbol id="icon-order-weight" viewBox="0 0 19 21"><path fill-rule="evenodd" clip-rule="evenodd" d="M10.059 12.58L19 12.326l-.082 1.59-4.092-.035.097 1.09h1.992l-.288 5.415h-1.17l-.89-1.399-9.631-.118-.773 1.631H2.91l-.448-5.468h1.63l-.55-2.937C-2.105 9.718-.877.5 6.352.5c7.23 0 8.072 9.344 2.726 11.628l-.518 2.867 3.295-.023.039-1.124-1.91-.01.075-1.258zM6.323 1.905c-6.36 0-6.668 9.323.107 9.323 6.188-.004 6.217-9.323-.107-9.323zm-1.21 5.827C3.768 6.44 5.138 4.74 6.528 4.968L8.53 3.367l.303.429-.986 2.188c.61 1.417-1.392 3.037-2.723 1.762l-.013-.014z" fill="#262626"/></symbol><symbol id="icon-paging-next" viewBox="0 0 8 14"><path fill-rule="evenodd" clip-rule="evenodd" d="M.235 12.865a.8.8 0 0 1 .067-1.13L5.629 7 .302 2.265a.8.8 0 0 1 1.063-1.196l6 5.333a.8.8 0 0 1 0 1.196l-6 5.333a.8.8 0 0 1-1.13-.066z" fill="#262626"/></symbol><symbol id="icon-paging-prev" viewBox="0 0 8 14"><path fill-rule="evenodd" clip-rule="evenodd" d="M7.765 1.135a.8.8 0 0 1-.067 1.13L2.371 7l5.327 4.735a.8.8 0 0 1-1.063 1.196l-6-5.333a.8.8 0 0 1 0-1.196l6-5.333a.8.8 0 0 1 1.13.066z" fill="#262626"/></symbol><symbol id="icon-partner-product" viewBox="0 0 33 33"><circle cx="16.5" cy="16.5" r="16.5" fill="#A4A9AD"/><mask id="partner-product-a" maskUnits="userSpaceOnUse" x="0" y="0" width="33" height="33"><circle cx="16.5" cy="16.5" r="16.5" fill="#88E3F8"/></mask><g mask="url(#partner-product-a)"><path fill-rule="evenodd" clip-rule="evenodd" d="M22.505 25.882s-1.243.465-1.416-.66c-.176-1.14-.681-4.608-.681-4.608l-.437.025s-.438 3.77-.511 4.668c-.083 1.011-1.313.617-1.313.617l.112-6.929s-1.098-.935-.959-2.108c.035-.293.05-.535.05-.535l5.412-1.087s.18 1.154.226 1.55c.143 1.235-1.05 2.122-1.05 2.122l.567 6.945zM16.218 15.63l.112 10.294s-1.23.394-1.313-.617c-.074-.898-.512-4.668-.512-4.668l-.436-.025s-.506 3.468-.681 4.608c-.173 1.125-1.417.66-1.417.66l.566-6.945s-1.185-.887-1.049-2.121c.1-.906.313-2.043.313-2.043s1.003-.896 3.216-.896l6.885.002s.675.16.341.85l-6.025.902zm2.425-3.713c0-1.995 2.641-1.695 2.418.08-.214 1.71-2.418 1.941-2.418-.08zm-5.61.08c-.223-1.775 2.418-2.075 2.418-.08 0 2.021-2.204 1.79-2.419.08zM14.09 9.2l.108-2.522 1.199.189-.753 2.429-.554-.096zm-2.648-2.844L12.678 6l.696 3.258-.564.267-1.367-3.17zm.527 3.893L10 9.238l.71-.992 1.514 1.537-.254.465z" fill="#fff"/></g></symbol><symbol id="icon-passport" viewBox="0 0 24 31"><path fill-rule="evenodd" clip-rule="evenodd" d="M22.008 26.685c-.342 3.09-1.853 4.63-5.276 4.261C9.706 30.191 0 28.7 0 28.7L3.323 0s9.714.794 16.363 1.62c2.969.368 4.705 1.905 4.239 5.743-.49 4.038-1.536 15.866-1.918 19.322zm-5.305-.13l.271-2.19L6.252 22.7l-.361 2.594 10.812 1.261zm-3.118-22.13c-.637-.847-1.788-.737-1.939.238-.128.831.78 1.724 1.53 2.4.91-.432 2.048-1.015 2.136-1.841.107-.997-.826-1.545-1.727-.798zm6.261 4.197c-.24.164-3.306 2.531-3.963 3.055.579.64.21 1.963-.873 1.85-.954-.099-1.185-1.008-.866-1.623.306-1.323 1.193-1.981 1.193-1.981s.875.029 1.199.544l.401-2.203-3.58.118.38 1.22-1.06 1.864-.583-2.068.659-1.091-3.445-.991-.137 2.236c.437-.421 1.293-.235 1.293-.235s.702.856.684 2.215c.163.674-.278 1.5-1.229 1.363-1.078-.156-1.118-1.53-.404-2.01-.523-.682-2.922-3.717-3.116-3.935-1.149 1.554-1.445 3.14-1.445 3.14l2.162.943c-.004.19 0 .377.013.559-.59-.024-2.069-.087-2.297-.12-.12 1.38.728 2.591.728 2.591l2.186-.432c.124.201.271.389.432.57-.537.217-1.552.634-1.754.757.654 1.163 2.417 1.505 2.417 1.505l.98-1.059c.294.143.612.272.956.387.188 1.273-2.082 1.791-2.95 2.153a4.797 4.797 0 0 0 1.618 1.794l1.101-1.545.486.125s-.155 1.042-.519 1.965a5.366 5.366 0 0 0 2.363.317c-.143-.832-.234-2.21-.234-2.21l.468-.071.82 2.06c.764-.254 1.446-.707 1.945-1.367-.81-.654-2.454-1.861-2.124-2.905.264-.028.513-.07.754-.12l.698 1.267s1.793.1 2.705-.868c-.167-.17-1.052-.822-1.52-1.165.198-.136.387-.282.554-.447l2.017.955s1.113-.967 1.326-2.335c-.229-.025-1.679-.326-2.256-.448.055-.173.104-.352.146-.539l2.322-.384c.002 0 .093-1.612-.65-3.401z" fill="#9E2C2C"/></symbol><symbol id="icon-pay-cash" viewBox="0 0 22 18"><path fill-rule="evenodd" clip-rule="evenodd" d="M20.066 8.219l-.845-2.812c-1.006.228-2.01-.252-2.508-1.263-3.499.94-8.007.254-11.088 1.892.316 1.243-.202 2.225-.926 2.814l.772 2.608c1.15-.297 1.831.351 2.203 1.214 1.12-.39 2.223-.621 3.291-.77-2.092-1.476-2.247-5.928 1.004-6.236 2.518-.24 3.503 1.962 3.488 3.784-1.616.516-2.322 2.24-1.967 3.712-2.761.15-5.618.321-8.337 2.294L2.621 6.66c3.85-4.296 7.799-2.037 13.554-3.824l-.252-.89C11.2 3.633 5.022 1.278 1.463 6.4l2.139 7.142-1.174.726L0 5.86C5.043-1.026 11.82 2.823 16.704 0l.748 2.381c.639-.257 1.3-.568 1.984-.947L22 10.316a8.395 8.395 0 0 1-2.655 1.835c-.611-1.25-.364-3.295.72-3.932zm-7.335 6.084c2.36 0 2.42 3.697.163 3.697-2.676 0-2.479-3.697-.164-3.697zm3.685-3.958c2.642 0 2.709 4.138.183 4.138-2.996 0-2.775-4.138-.183-4.138z"/></symbol><symbol id="icon-pay-online" viewBox="0 0 22 15"><path fill-rule="evenodd" clip-rule="evenodd" d="M16.9 10.932c-.005-2.113-.005-4.365.018-4.902a1.988 1.988 0 0 0-.049-.527l3.835-1.053c.52 1.428 1.055 2.886 1.208 3.36.298.92-.192 1.714-1.017 1.998-.315.108-1.986.573-3.994 1.124zM5.268 3.892c.068-.028.14-.054.216-.078C6.886 3.38 16.507.322 17.618.072c1.11-.25 1.655.141 1.99 1.274.038.126.102.319.185.56l-6.66 1.855c-2.064.015-5.743.087-7.866.131zm9.108 1.284c.875.068 1.32.686 1.28 1.645-.041.959 0 5.778-.016 6.741-.02 1.175-.756 1.393-1.898 1.428-1.142.035-10.505-.037-11.981.005-1.476.043-1.699-.69-1.676-1.44.023-.748-.111-5.728-.079-6.926.032-1.198.762-1.47 1.919-1.44 1.157.03 11.576-.081 12.45-.013zM8.747 9.55c-2.689 0-2.756 3.938-.187 3.938 3.048 0 2.824-3.938.187-3.938zm2.44.194c.826 1.054.853 2.6-.05 3.59.231.098.499.154.804.154 3.047 0 2.823-3.938.186-3.938-.361 0-.674.071-.94.194z"/></symbol><symbol id="icon-payment-apple-pay" viewBox="0 0 34 16"><g clip-path="url(#payment-apple-pay-a)" fill="#090E0D"><path d="M8.711 6.842c.018 1.842 1.698 2.46 1.722 2.466-.012.04-.267.874-.884 1.731-.535.74-1.087 1.48-1.96 1.498-.855.018-1.134-.484-2.113-.484-.98 0-1.288.467-2.102.502-.843.029-1.484-.805-2.024-1.545C.252 9.5-.591 6.738.536 4.872A3.16 3.16 0 0 1 3.19 3.345c.825-.017 1.61.53 2.114.53.504 0 1.454-.652 2.452-.559.415.018 1.59.163 2.345 1.207-.066.035-1.401.78-1.39 2.32zM7.103 2.314c.445-.513.748-1.23.665-1.947-.648.023-1.425.408-1.888.92-.416.455-.778 1.184-.677 1.883.718.059 1.448-.338 1.9-.856zM13.578 1.434c.33-.058.697-.104 1.1-.15.402-.046.84-.063 1.32-.063.686 0 1.28.08 1.773.236.498.161.907.386 1.225.68.277.265.487.576.643.939.156.363.228.777.228 1.25 0 .57-.108 1.066-.318 1.498-.21.426-.499.783-.865 1.077a3.745 3.745 0 0 1-1.304.65 5.968 5.968 0 0 1-1.645.214c-.535 0-.992-.04-1.352-.115v4.735h-.805V1.434zm.805 5.524c.192.052.409.093.649.116a8.1 8.1 0 0 0 .769.034c1.027 0 1.826-.23 2.39-.691.565-.46.847-1.135.847-2.022 0-.426-.072-.8-.222-1.118a2.067 2.067 0 0 0-.637-.783 2.977 2.977 0 0 0-.979-.461 4.709 4.709 0 0 0-1.25-.156c-.366 0-.678.012-.942.04a6.697 6.697 0 0 0-.637.093l.012 4.948zM26.277 10.507c0 .317.006.634.018.957.013.316.049.622.103.921h-.757l-.12-1.117h-.036a2.705 2.705 0 0 1-.397.46 3.147 3.147 0 0 1-.559.421c-.21.127-.45.225-.72.305-.27.075-.565.116-.883.116-.403 0-.751-.064-1.057-.19a2.04 2.04 0 0 1-1.183-1.193 2.287 2.287 0 0 1-.145-.79c0-.932.409-1.647 1.225-2.154.817-.507 2.049-.743 3.695-.726v-.213c0-.207-.018-.45-.06-.714a2.201 2.201 0 0 0-.265-.766 1.7 1.7 0 0 0-.619-.611c-.276-.167-.648-.248-1.117-.248-.354 0-.702.052-1.05.156a3.45 3.45 0 0 0-.95.438l-.258-.576a3.887 3.887 0 0 1 1.129-.519c.39-.104.793-.155 1.22-.155.57 0 1.038.092 1.399.282.36.184.643.426.847.726.204.294.348.628.42.996.073.37.114.732.114 1.095l.006 3.1zm-.81-2.35c-.433-.012-.89.006-1.364.052a5.093 5.093 0 0 0-1.31.288c-.402.15-.732.363-.99.65-.265.283-.397.663-.397 1.136 0 .558.168.967.499 1.232.33.265.702.392 1.11.392.331 0 .631-.046.89-.132.264-.087.492-.208.685-.352.192-.15.354-.317.486-.501s.234-.38.3-.576c.06-.219.085-.38.085-.478l.006-1.711zM27.851 4.493l2.09 5.127c.115.282.223.576.325.882.102.299.192.575.276.829h.036c.078-.242.175-.513.277-.812.102-.3.216-.61.342-.928l1.952-5.098h.86l-2.386 5.784c-.24.616-.468 1.17-.678 1.67-.21.502-.427.951-.643 1.349a9.655 9.655 0 0 1-.66 1.06 4.456 4.456 0 0 1-.746.806 3.903 3.903 0 0 1-.883.6c-.27.126-.45.207-.54.235l-.277-.64c.205-.086.433-.2.685-.345.253-.144.499-.328.739-.559.204-.195.432-.455.679-.783.246-.323.468-.714.66-1.175.067-.173.103-.288.103-.346 0-.075-.036-.19-.102-.346l-2.968-7.31h.86z"/></g></symbol><symbol id="icon-payment-google-pay" viewBox="0 0 35 14"><g clip-path="url(#payment-google-pay-a)"><path d="M16.558 2.056v3.538h2.163c.515 0 .942-.175 1.279-.524.346-.348.52-.764.52-1.245 0-.471-.174-.882-.52-1.232-.337-.358-.764-.538-1.279-.538h-2.163v.001zm0 4.784v4.104h-1.292V.81h3.428c.87 0 1.609.293 2.218.877.62.585.928 1.297.928 2.137 0 .859-.309 1.576-.928 2.15-.6.577-1.34.864-2.218.864h-2.136zM23.145 8.82c0 .34.142.623.428.85.287.226.62.34 1.005.34.543 0 1.027-.203 1.453-.609.426-.406.64-.882.64-1.428-.404-.322-.966-.482-1.686-.482-.525 0-.963.128-1.313.383-.351.254-.527.57-.527.947zm1.672-5.037c.955 0 1.709.257 2.262.771.553.515.828 1.22.828 2.116v4.274H26.67v-.962h-.056c-.534.792-1.245 1.188-2.135 1.188-.758 0-1.394-.226-1.903-.679a2.177 2.177 0 0 1-.767-1.699c0-.717.27-1.287.808-1.711.538-.425 1.257-.638 2.156-.638.768 0 1.4.142 1.896.425V6.57c0-.452-.178-.836-.534-1.153a1.82 1.82 0 0 0-1.25-.473c-.721 0-1.292.306-1.713.92l-1.138-.722c.628-.906 1.554-1.359 2.782-1.359zM35 4.01L30.688 14h-1.334l1.602-3.495-2.838-6.496h1.406l2.05 4.982h.028l1.994-4.982h1.406z" fill="#5F6368"/><path d="M11.335 5.955c0-.41-.034-.806-.1-1.184h-5.45v2.242h3.122a2.695 2.695 0 0 1-1.154 1.77v1.456h1.863c1.09-1.014 1.719-2.513 1.719-4.284z" fill="#4285F4"/><path d="M5.785 11.645c1.56 0 2.873-.516 3.83-1.406L7.753 8.782c-.518.352-1.186.558-1.967.558-1.507 0-2.787-1.024-3.245-2.403H.621v1.5a5.776 5.776 0 0 0 5.164 3.208z" fill="#34A853"/><path d="M2.54 6.937a3.525 3.525 0 0 1 0-2.23V3.209H.622a5.83 5.83 0 0 0-.615 2.614c0 .94.222 1.83.615 2.615l1.92-1.5z" fill="#FABB05"/><path d="M5.785 2.305c.852 0 1.615.294 2.217.873l1.65-1.661C8.65.577 7.344 0 5.785 0A5.775 5.775 0 0 0 .62 3.208l1.92 1.5c.457-1.38 1.737-2.403 3.244-2.403z" fill="#E94235"/></g></symbol><symbol id="icon-payment-mc" viewBox="0 0 30 18"><path d="M19.043 1.924h-8.11v14.152h8.11V1.924z" fill="#FF5F00"/><path d="M11.45 8.994c0-2.869 1.394-5.42 3.527-7.07A9.412 9.412 0 0 0 9.257 0C4.138 0 0 4.019 0 8.994c0 4.976 4.137 8.995 9.258 8.995a9.403 9.403 0 0 0 5.707-1.925 8.867 8.867 0 0 1-3.516-7.07z" fill="#EB001B"/><path d="M29.965 8.994c0 4.976-4.137 8.995-9.258 8.995A9.403 9.403 0 0 1 15 16.064c2.156-1.65 3.527-4.2 3.527-7.07 0-2.869-1.394-5.42-3.527-7.07A9.403 9.403 0 0 1 20.707 0c5.121 0 9.258 4.053 9.258 8.994z" fill="#F79E1B"/></symbol><symbol id="icon-payment-mir" viewBox="0 0 30 8"><g clip-path="url(#payment-mir-a)"><path d="M6.562 1.05L5.448 4.725h-.19L4.142 1.05C3.953.428 3.355 0 2.671 0H0v8h2.675V3.272h.19L4.396 8H6.31l1.528-4.728h.19V8h2.675V0H8.031c-.68 0-1.279.428-1.47 1.05zM21.372 8h2.69V5.634h2.708c1.416 0 2.622-.762 3.089-1.834H21.37V8zM16.603.844L14.72 4.728h-.19V0h-2.676v8h2.271a1.54 1.54 0 0 0 1.39-.844l1.883-3.881h.19V8h2.675V0h-2.27a1.54 1.54 0 0 0-1.39.844z" fill="#006848"/><path d="M27.036 0c.772 0 1.472.281 2 .744.592.512.964 1.25.964 2.072 0 .168-.02.334-.05.497h-4.968c-1.682 0-3.108-1.05-3.588-2.5-.007-.016-.01-.035-.016-.054-.014-.043-.023-.09-.037-.134A3.544 3.544 0 0 1 21.246 0h5.79z" fill="url(#payment-mir-b)"/></g></symbol><symbol id="icon-payment-visa" viewBox="0 0 30 10"><path fill-rule="evenodd" clip-rule="evenodd" d="M10.563 9.061L12.087.147h2.435l-1.525 8.914h-2.434zM21.813.369A6.522 6.522 0 0 0 19.636 0c-2.41 0-4.094 1.205-4.106 2.939-.013 1.278 1.205 1.991 2.127 2.422.947.442 1.266.713 1.254 1.106 0 .603-.75.873-1.451.873-.971 0-1.488-.135-2.287-.467l-.32-.148-.332 1.992c.566.258 1.611.467 2.705.48 2.558 0 4.205-1.193 4.23-3.05.012-1.008-.64-1.782-2.041-2.422-.848-.405-1.365-.676-1.365-1.094 0-.381.443-.774 1.39-.774.799-.013 1.377.16 1.82.344l.22.098.332-1.93zM28.046.16h-1.882c-.578 0-1.02.16-1.278.738l-3.603 8.176h2.545s.418-1.107.517-1.34h3.11c.074.307.296 1.34.296 1.34H30L28.045.16zm-3 5.742l.97-2.484c-.024.025.198-.516.32-.848l.16.762.566 2.57h-2.017zM8.533.16L6.148 6.234l-.246-1.23C5.46 3.578 4.07 2.041 2.533 1.266L4.71 9.062h2.57L11.103.16h-2.57z" fill="#01549A"/><path fill-rule="evenodd" clip-rule="evenodd" d="M3.947.147H.025L0 .344c3.037.738 5.066 2.52 5.902 4.66L5.04.91C4.893.344 4.475.172 3.947.147z" fill="#F7A707"/></symbol><symbol id="icon-pencil" viewBox="0 0 16 16"><path fill-rule="evenodd" clip-rule="evenodd" d="M10.467 4.038L7.304 3.44c.11-.61.207-1.082.275-1.328.38-1.356 3.333-.84 3.071.769-.036.22-.1.63-.183 1.157zm-1.305 8.368l-2.067 2.26L6 11.734s.64-4.413 1.134-7.319l3.18.602c-.45 2.872-1.152 7.39-1.152 7.39z"/></symbol><symbol id="icon-phone-wave" viewBox="0 0 19 16"><path fill-rule="evenodd" clip-rule="evenodd" d="M10.1 10.087C6.62 4.053 8.965 0 8.965 0l3.266.763-.056 4.4-1.25 1.317 2.55 4.291 1.775-.382L19 12.531 17.792 16s-4.212.122-7.692-5.913zM0 7.7l7.432-.182.606 1.419L.194 8.28 0 7.699zm1.698-2.384l4.721-.167.56 1.308-5.023-.452-.258-.69zm7.333 5.942l-5.509-.483-.301-.69 5.232-.18.578 1.353z"/></symbol><symbol id="icon-profile-small" viewBox="0 0 26 26"><path fill-rule="evenodd" clip-rule="evenodd" d="M23.338 20.883A12.943 12.943 0 0 0 26 13c0-7.18-5.82-13-13-13S0 5.82 0 13s5.82 13 13 13a12.979 12.979 0 0 1-10.338-5.117c5.328-4.344 15.385-4.307 20.676 0zM7.561 8.873c0-8.321 12.114-6.846 11.177.56-.903 7.127-11.177 7.868-11.177-.56z" fill="#262626"/></symbol><symbol id="icon-profile-status" viewBox="0 0 24 24"><path d="M12 0C5.381 0 0 5.381 0 12s5.381 12 12 12 12-5.381 12-12S18.619 0 12 0zm6.72 13.137h-1.819l-1.768 3.537c-.228.379-.607.631-1.036.631-.43 0-.834-.252-1.01-.631l-3.184-6.29-1.06 2.121c-.203.38-.582.632-1.011.632H5.305A1.132 1.132 0 0 1 4.168 12c0-.632.506-1.137 1.137-1.137h1.82l1.768-3.537c.379-.758 1.642-.758 2.02 0l3.159 6.29 1.086-2.146c.202-.38.58-.632 1.01-.632h2.527c.631 0 1.137.505 1.137 1.137 0 .631-.48 1.162-1.112 1.162z"/></symbol><symbol id="icon-quit-small" viewBox="0 0 14 20"><path fill-rule="evenodd" clip-rule="evenodd" d="M13.814 17.484L6.89 19.5l-1.039-.177L5.74 3.619l-4.101.052.172 12.777 2.73-.031-.074 1.45-4.214-.028L0 2.16l5.729.051-.01-1.465L6.672.5 14 2.474l-.186 15.01zM8.77 8.857c-1.149 0-1.246 2.04.081 2.04 1.12 0 1.09-2.04-.081-2.04z" fill="#E25959"/></symbol><symbol id="icon-refresh" viewBox="0 0 14 18"><path fill-rule="evenodd" clip-rule="evenodd" d="M7.123 17.667c-4.03 0-6.047-2.28-6.548-5.06l2.237-.596c.489 1.585 1.938 2.901 4.224 2.901 5.24 0 5.275-8.3-.092-8.3-1.148 0-2.165.195-2.877.719l3.955 1.33-1.19 2.464L.335 7.732 3.417.333 5.86 1.54 4.01 4.695a6.054 6.054 0 0 1 2.96-.762c8.932 0 8.876 13.734.153 13.734z"/></symbol><symbol id="icon-saw" viewBox="0 0 16 7"><path fill-rule="evenodd" clip-rule="evenodd" d="M6.395 5.348l.525-.905.497-2.6 7.712.81-.496 2.929-1.034-.753-.624.796-1.05-.647-.623.795-1.027-.696-.647.845-1.13-.565-.626.81-1.477-.819zm-1.184.76L.462 5.545s.793-1.865 1.1-2.634c.308-.77-.301-1.476-.301-1.476l.244-.602 5.306.552L6.39 4.06 5.211 6.108zM3.637 1.995l-1.2 2.871 1.376.146L4.848 2.29l-1.211-.295z" fill="#A4A9AD"/></symbol><symbol id="icon-shopping-cart" viewBox="0 0 24 24"><path fill-rule="evenodd" clip-rule="evenodd" d="M11.64 21.08a2.565 2.565 0 0 1-2.56 2.57 2.565 2.565 0 0 1-2.56-2.57 2.565 2.565 0 0 1 2.56-2.57 2.565 2.565 0 0 1 2.56 2.57zm-1.4 0c0 .646-.52 1.17-1.16 1.17-.64 0-1.16-.524-1.16-1.17 0-.646.52-1.17 1.16-1.17.64 0 1.16.524 1.16 1.17zM19.51 21.08a2.565 2.565 0 0 1-2.56 2.57 2.565 2.565 0 0 1-2.56-2.57 2.565 2.565 0 0 1 2.56-2.57 2.565 2.565 0 0 1 2.56 2.57zm-1.4 0c0 .646-.52 1.17-1.16 1.17-.64 0-1.16-.524-1.16-1.17 0-.646.52-1.17 1.16-1.17.64 0 1.16.524 1.16 1.17zM6.65 6.9c-.228 0-.4.207-.349.439v.001l1.52 6.986v.002a.363.363 0 0 0 .349.292h10.28a.347.347 0 0 0 .346-.28l.002-.01 1.52-6.99.001-.004a.36.36 0 0 0-.349-.436H6.65zm-1.912.78A1.956 1.956 0 0 1 6.65 5.3h13.32a1.96 1.96 0 0 1 1.911 2.382v.002l-1.518 6.981a1.947 1.947 0 0 1-1.913 1.555H8.17a1.963 1.963 0 0 1-1.91-1.546l-.002-.004-1.52-6.989z"/><path fill-rule="evenodd" clip-rule="evenodd" d="M1.95 2.75a.8.8 0 0 1 .8-.8h.83c.922 0 1.723.639 1.913 1.545l.93 4.337a.8.8 0 1 1-1.565.336l-.931-4.345a.348.348 0 0 0-.347-.273h-.83a.8.8 0 0 1-.8-.8zM4.62 16.92c0-1.272 1.028-2.3 2.3-2.3h10.43a.8.8 0 0 1 0 1.6H6.92c-.388 0-.7.312-.7.7 0 .388.312.7.7.7h12.51a.8.8 0 0 1 0 1.6H6.92a2.298 2.298 0 0 1-2.3-2.3z"/></symbol><symbol id="icon-small-add" viewBox="0 0 12 12"><path d="M6.896 12V6.882H12V5.118H6.896V0H5.104v5.118H0v1.764h5.104V12h1.792z"/></symbol><symbol id="icon-small-boxes" viewBox="0 0 18 16"><path fill-rule="evenodd" clip-rule="evenodd" d="M14.22 15.903l-5.978-1.582-2.241 1.52L0 14.254l.08-5.75 3.844-2.442 1.005.269.12-4.595L10.18 0l4.316 2.48.061 4.288 3.276.874.167 5.817-3.78 2.444zm-.716-1.533l-.025-3.676-3.996-.946-.028 3.573 4.05 1.05zM7.456 8.82l-.99-.58-1.865 1.226L5.8 9.8l1.656-.98zm-6.251 4.44l4.412 1.215-.025-3.676-1.508-.385-.072 1.768-1.395-.41.088-1.71-1.473-.375-.027 3.572zm4.03-5.74l-1.038-.24-2.405 1.404 1.356.378L5.371 7.6l-.136-.08zm.797-.875L9.02 8.44V4.91l-1.028-.516v1.64l-1.115-.677-.024-1.534-.812-.408-.009 3.23zm4.013-5.578L6.418 2.312l.78.377 3.604-1.212-.757-.41zm2.195 1.188L8.632 3.381 9.5 3.8l3.567-1.097-.827-.448zm3.88 6.455l-1.915-.508-1.599.507 2.555.542.097 2.254.886-.56-.024-2.235z"/></symbol><symbol id="icon-social-fb" viewBox="0 0 16 17"><g clip-path="url(#social-fb-a)"><path d="M8 .533a8 8 0 0 0-8 8c0 3.963 2.884 7.245 6.666 7.88v-6.21h-1.93V7.966h1.93V6.32c0-1.912 1.168-2.954 2.874-2.954.817 0 1.52.06 1.723.088V5.45l-1.183.001c-.928 0-1.107.44-1.107 1.088v1.426h2.214l-.29 2.235H8.974v6.266C12.931 15.985 16 12.62 16 8.53A8 8 0 0 0 8 .533z" fill="#010002"/></g></symbol><symbol id="icon-social-ig" viewBox="0 0 16 17"><g clip-path="url(#social-ig-a)" fill="#000"><path d="M8.002 4.392a4.105 4.105 0 1 0 0 8.21 4.105 4.105 0 0 0 0-8.21zm0 6.77a2.664 2.664 0 1 1 0-5.33 2.664 2.664 0 1 1 0 5.33z"/><path d="M11.299.55C9.827.483 6.18.486 4.707.55 3.413.612 2.271.925 1.35 1.846-.189 3.383.008 5.457.008 8.497c0 3.112-.173 5.138 1.342 6.653 1.545 1.544 3.648 1.342 6.653 1.342 3.082 0 4.146.002 5.236-.42 1.482-.575 2.601-1.9 2.71-4.28.07-1.472.066-5.117 0-6.59C15.819 2.391 14.31.688 11.3.55zm2.33 13.582c-1.009 1.009-2.408.919-5.646.919-3.333 0-4.67.05-5.645-.929-1.123-1.118-.92-2.913-.92-5.635 0-3.684-.378-6.336 3.319-6.526.85-.03 1.1-.04 3.237-.04l.03.02c3.553 0 6.34-.372 6.508 3.324.037.844.046 1.097.046 3.232 0 3.294.062 4.64-.93 5.635z"/><path d="M12.27 5.19a.96.96 0 1 0 0-1.92.96.96 0 0 0 0 1.92z"/></g></symbol><symbol id="icon-social-ok" viewBox="0 0 16 17"><g clip-path="url(#social-ok-a)" fill="#000"><path d="M8.008 7.13a1.37 1.37 0 0 0 1.37-1.382A1.372 1.372 0 0 0 8 4.372c-.77 0-1.386.62-1.38 1.393A1.373 1.373 0 0 0 8.008 7.13z"/><path d="M8 .5a8 8 0 1 0 0 16 8 8 0 0 0 0-16zm.011 2.433c1.559.004 2.81 1.279 2.801 2.854-.007 1.54-1.279 2.787-2.834 2.781a2.82 2.82 0 0 1-2.794-2.824 2.822 2.822 0 0 1 2.827-2.811zm3.157 6.743c-.345.353-.76.61-1.22.788-.436.169-.913.254-1.385.31.071.078.105.116.15.16.64.645 1.284 1.286 1.923 1.932.218.22.263.494.144.75-.131.28-.425.463-.713.444-.182-.013-.324-.104-.45-.23-.484-.488-.977-.966-1.451-1.462-.138-.144-.204-.117-.326.009-.487.501-.982.994-1.48 1.485-.223.22-.488.26-.748.134a.757.757 0 0 1-.437-.698c.01-.19.104-.337.235-.467l1.9-1.904c.042-.042.08-.086.142-.152-.863-.09-1.641-.303-2.308-.824-.083-.064-.168-.127-.243-.2-.292-.28-.321-.6-.09-.931.197-.283.528-.358.873-.196.067.031.13.07.19.113 1.243.853 2.949.877 4.195.038.123-.094.256-.172.409-.211a.64.64 0 0 1 .734.293c.183.298.18.588-.044.819z"/></g></symbol><symbol id="icon-social-vk" viewBox="0 0 14 9"><path d="M13.34 8.468c-.074.01-.148.02-.222.021-.722.002-1.445 0-2.168.002a.403.403 0 0 1-.26-.097c-.151-.123-.307-.244-.446-.381-.361-.359-.714-.728-1.073-1.09-.112-.113-.231-.217-.349-.323-.06-.058-.137-.07-.216-.069-.106.003-.193.05-.235.149a.987.987 0 0 0-.08.28c-.018.17-.018.343-.022.515a2.21 2.21 0 0 1-.064.573 1.138 1.138 0 0 1-.1.24.387.387 0 0 1-.343.202c-.63.014-1.262.023-1.893-.018a.887.887 0 0 1-.328-.097 5.343 5.343 0 0 1-1.554-1.15c-.546-.582-1.042-1.206-1.538-1.83a19.316 19.316 0 0 1-1.764-2.68A7.697 7.697 0 0 1 .176 1.66a.87.87 0 0 1-.016-.547.583.583 0 0 1 .07-.155.222.222 0 0 1 .193-.112h.091c.656 0 1.31.002 1.966-.003.13 0 .229.043.316.13.161.162.287.35.4.546.123.213.246.428.354.65.238.486.53.94.84 1.382.151.216.314.423.471.634a.349.349 0 0 0 .29.139c.113.004.16-.042.164-.156v-.08-2.22c0-.057 0-.115-.006-.172-.013-.132-.083-.21-.214-.235-.059-.011-.12-.017-.18-.025-.184-.024-.26-.102-.28-.287a.54.54 0 0 1 .368-.596.97.97 0 0 1 .349-.05h1.753c.118 0 .237-.006.354.004.124.012.248.028.368.063a.562.562 0 0 1 .432.516c.008.064.01.128.01.192v1.347l.001 1.429c0 .046.004.095.017.14.042.144.199.192.331.1.39-.267.645-.64.841-1.057.182-.384.339-.78.51-1.169.136-.309.276-.615.419-.921.034-.076.086-.145.134-.214.043-.063.1-.09.18-.09.849.003 1.696.002 2.544.001a.62.62 0 0 1 .502.242.396.396 0 0 1 .076.195c.05.334-.064.625-.224.905-.151.265-.331.51-.527.742-.406.48-.803.966-1.151 1.49-.09.135-.166.279-.248.418-.06.102-.052.2.024.29.153.185.301.375.462.55.383.42.775.83 1.16 1.247.124.135.235.279.35.42.038.048.066.103.103.15.287.372-.071.928-.434.976z" fill="#000"/></symbol><symbol id="icon-telegram-small" viewBox="0 0 18 18"><path d="M9 18A9 9 0 1 0 9 0a9 9 0 0 0 0 18z" fill="#A4A9AD"/><path d="M4.118 8.805l8.678-3.346c.402-.146.754.098.623.707h.001l-1.477 6.96c-.11.494-.403.614-.813.381L8.88 11.85l-1.086 1.045c-.12.12-.22.222-.453.222l.16-2.29 4.17-3.767c.181-.16-.041-.25-.28-.091l-5.154 3.244-2.221-.693c-.482-.153-.493-.482.102-.714z" fill="#fff"/></symbol><symbol id="icon-trash-can" viewBox="0 0 16 16"><path fill-rule="evenodd" clip-rule="evenodd" d="M14 12.067L14 13.395l-1.287 1.135-2.777.039-.392-.928-.702-.573.212-2.231.89-.009 1.084-1.21 2.463.78-.04 1.298.55.371zm-2.693-1.56l-.68.62.495.315 1.107-.618-.922-.317zm1.781 1.85l-1.287-.607-.674.382-.952-.394-.563 1.2 1.836-.027.306.74.568.135.362-.676.6-.103-.196-.65zM1.334 4.042l9.672-.11.034 1.788-9.546-.062-.16-1.616zm5.725-.776v-.63l-1.848-.02v.641L3.897 3.25s-.03-.473-.039-.858c-.017-.701.418-1.028 1.244-1.055.392-.013 1.559.013 2.05.013.888 0 1.239.34 1.243.904.003.392-.03 1.017-.03 1.017L7.06 3.265zm3.356 5.947l-1.412.928.12-2.027c.055-.909-1.096-.855-1.092-.027l.022 4.95.055-.002-.036.441.867 1.078-6.512.114-.293-8.224 8.384.006-.103 2.763zM3.61 8.154c0 .496.118 4.236.146 5.12l.9-.05c.013-.816.065-4.406.065-5.113 0-.866-1.11-.88-1.11.043zm2.243-.011c.052.473.104 3.942.118 5.009l.93-.051c.017-1.126.063-4.258.063-5.002 0-.91-1.2-.78-1.11.044z"/></symbol><symbol id="icon-user" viewBox="0 0 24 24"><path fill-rule="evenodd" clip-rule="evenodd" d="M8.53 9.99a3.27 3.27 0 1 1 6.54 0 3.27 3.27 0 0 1-6.54 0zm3.27-1.67a1.67 1.67 0 1 0 0 3.34 1.67 1.67 0 0 0 0-3.34zM9.78 15.72a2.16 2.16 0 0 0-2.16 2.16v1.41a.8.8 0 0 1-1.6 0v-1.41a3.76 3.76 0 0 1 3.76-3.76h4.43a3.76 3.76 0 0 1 3.76 3.76v1.41a.8.8 0 0 1-1.6 0v-1.41a2.16 2.16 0 0 0-2.16-2.16H9.78z"/><path fill-rule="evenodd" clip-rule="evenodd" d="M1.95 12C1.95 6.45 6.45 1.95 12 1.95c5.55 0 10.05 4.5 10.05 10.05 0 5.55-4.5 10.05-10.05 10.05-5.55 0-10.05-4.5-10.05-10.05zM12 3.55a8.45 8.45 0 1 0 0 16.9 8.45 8.45 0 0 0 0-16.9z"/></symbol><symbol id="icon-viber-small" viewBox="0 0 16 19"><path d="M15.536 4.308c-.297-1.092-.887-1.954-1.75-2.563C12.697.973 11.444.7 10.362.534 8.865.304 7.51.273 6.216.434c-1.21.153-2.123.396-2.955.79-1.63.77-2.61 2.015-2.91 3.701-.145.82-.243 1.56-.3 2.266-.13 1.632-.012 3.077.363 4.415.366 1.306 1.005 2.238 1.953 2.851.24.156.55.27.85.378.17.06.334.12.47.186.125.06.125.07.123.177-.01.928 0 2.747 0 2.747l.003.388h.679l.11-.11c.073-.07 1.754-1.74 2.354-2.412l.082-.093c.103-.122.103-.122.208-.124.81-.016 1.637-.049 2.459-.095.995-.055 2.148-.154 3.235-.619.994-.426 1.72-1.103 2.156-2.011.455-.948.725-1.973.826-3.137.178-2.045.052-3.82-.386-5.424zm-3.58 7.953c-.25.417-.622.707-1.061.895-.321.138-.649.109-.966-.029-2.653-1.154-4.735-2.971-6.11-5.585-.284-.538-.48-1.125-.707-1.693-.046-.117-.043-.254-.064-.383.02-.918.706-1.436 1.4-1.592.264-.061.5.035.696.229a6.26 6.26 0 0 1 1.299 1.845c.141.304.077.573-.164.8-.05.047-.103.09-.158.132-.55.425-.63.748-.338 1.388.5 1.09 1.33 1.822 2.404 2.276.282.12.549.06.765-.176.03-.03.062-.06.083-.098.423-.724 1.037-.652 1.604-.24.372.273.734.56 1.101.837.561.423.557.82.216 1.394zm-3.52-7.232c-.124 0-.25.011-.373.032a.383.383 0 0 1-.439-.322.39.39 0 0 1 .314-.45c.164-.029.332-.042.499-.042 1.65 0 2.992 1.378 2.992 3.073 0 .173-.013.346-.041.513a.384.384 0 0 1-.44.32.39.39 0 0 1-.312-.449c.02-.125.031-.254.031-.384 0-1.262-1.001-2.29-2.23-2.29zm1.85 2.348a.387.387 0 0 1-.38.391.387.387 0 0 1-.382-.391c0-.647-.513-1.174-1.142-1.174A.387.387 0 0 1 8 5.812c0-.216.17-.391.38-.391 1.051 0 1.905.877 1.905 1.956zm2.176.87a.384.384 0 0 1-.457.295.393.393 0 0 1-.287-.47 3.56 3.56 0 0 0 .083-.767c0-1.901-1.507-3.45-3.358-3.45-.253 0-.505.03-.747.086a.38.38 0 0 1-.456-.295.39.39 0 0 1 .287-.468c.298-.07.606-.105.916-.105 2.272 0 4.12 1.898 4.12 4.232 0 .318-.034.635-.101.942z" fill="#A4A9AD"/></symbol><symbol id="icon-warning" viewBox="0 0 18 19"><circle cx="9" cy="9.5" r="9" fill="#fff"/><path d="M9.6 12.463L9.902 3.5H8.098l.302 8.963h1.2zM8 14.658c0 .248.088.454.263.61.176.158.42.232.732.232s.556-.074.732-.231a.793.793 0 0 0 .273-.61.776.776 0 0 0-.273-.603c-.176-.157-.42-.24-.732-.24s-.556.083-.732.24a.767.767 0 0 0-.263.602z" fill="#FB8951"/></symbol><symbol id="icon-whatsapp-small" viewBox="0 0 18 18"><path d="M9 .667A8.667 8.667 0 0 0 .333 9.333c0 1.626.457 3.142 1.236 4.442L.41 18l4.315-1.133A8.62 8.62 0 0 0 9 18 8.667 8.667 0 0 0 9 .667zM6.033 5.29c.141 0 .286-.001.41.005.155.004.324.015.485.371.191.423.608 1.485.661 1.593.054.107.092.234.017.375-.07.144-.107.232-.211.36-.108.124-.226.278-.323.372-.108.108-.22.226-.095.44.124.215.556.918 1.193 1.486.82.732 1.512.957 1.727 1.065.215.107.34.09.464-.054.128-.14.537-.624.681-.84.141-.215.285-.177.48-.107.198.071 1.253.591 1.469.699.215.107.356.16.41.248.056.09.056.52-.123 1.021-.178.5-1.054.985-1.447 1.019-.396.036-.767.178-2.577-.535-2.184-.86-3.562-3.097-3.67-3.242-.107-.14-.874-1.163-.874-2.217 0-1.058.555-1.576.75-1.791a.789.789 0 0 1 .573-.268z" fill="#A4A9AD"/></symbol></svg>