<svg width="72" height="72" viewBox="0 0 72 72" fill="none" xmlns="http://www.w3.org/2000/svg">
<g clip-path="url(#clip0)">
<path d="M0 34.2444L5.47146 33.9561L5.53808 35.2161L1.21486 35.4428L5.63383 37.0546L5.69712 38.2521L1.47133 40.3173L5.79371 40.0898L5.85949 41.349L0.388023 41.6374L0.284773 39.6731L4.39982 37.7229L0.103251 36.2079L0 34.2444Z" fill="#262626"/>
<path d="M5.36552 28.7626L4.81429 31.7194L5.78185 32.3786L5.53205 33.6954L0.611816 30.1952L0.89992 28.6684L6.75025 27.1875L6.50461 28.5017L5.36552 28.7626ZM4.34134 29.0018L1.69678 29.6068L3.94499 31.1269L4.34134 29.0018Z" fill="#262626"/>
<path d="M6.56494 20.5186C8.58333 21.352 8.48841 23.0421 7.83809 24.6205L6.88885 26.924L1.82373 24.8347L2.77297 22.5321C3.42329 20.9511 4.54572 19.6852 6.56494 20.5186ZM6.072 21.7137C4.76971 21.1762 4.12106 21.8062 3.62229 23.0154L3.20596 24.0297L6.47668 25.3797L6.89302 24.3663C7.39178 23.1563 7.38179 22.2512 6.072 21.7137Z" fill="#262626"/>
<path d="M12.1116 17.0467L9.40873 21.1202L4.8457 18.0892L7.50192 14.084L8.31127 14.6207L6.35117 17.575L7.36203 18.2459L9.20056 15.4716L10.0033 16.0041L8.16472 18.7784L9.29965 19.5285L11.3022 16.5058L12.1116 17.0467Z" fill="#262626"/>
<path d="M17.1748 9.94077C17.9908 10.87 17.6511 11.67 16.3629 12.8018L13.8866 14.9777L10.272 10.8575L12.8716 8.57319C13.8591 7.70481 14.6726 7.39646 15.4004 8.2265C15.8242 8.70903 15.8092 9.19156 15.4761 9.71326L15.502 9.74326C16.1539 9.39657 16.7102 9.41074 17.1748 9.94077ZM11.859 10.755L12.7109 11.7267L14.4112 10.2325C14.8225 9.87076 14.9332 9.53408 14.6235 9.18073C14.3137 8.82737 13.9407 8.92571 13.5585 9.26406L11.859 10.755ZM16.1481 10.7175C15.8442 10.37 15.4928 10.4808 15.0282 10.8892L13.3054 12.4034L14.1988 13.4218L15.9216 11.9075C16.4687 11.4267 16.4529 11.065 16.1481 10.7175Z" fill="#262626"/>
<path d="M20.7648 3.35352L20.3485 7.6871L21.3244 9.36636L20.2336 10.0072L19.2552 8.32797L15.2842 6.5437L16.5498 5.80699L19.2718 7.09457L19.4991 4.09439L20.7648 3.35352Z" fill="#262626"/>
<path d="M29.6229 5.11959L26.7136 5.86964L26.5271 7.02637L25.2314 7.35972L26.3139 1.41521L27.8127 1.02686L31.6322 5.70213L30.3365 6.03548L29.6229 5.11959ZM28.9768 4.29288L27.3115 2.15192L26.8818 4.83374L28.9768 4.29288Z" fill="#262626"/>
<path d="M37.4128 0L37.6368 5.47948L36.2213 5.53699L33.0272 1.7501L33.1871 5.66699L31.9281 5.71866L31.7041 0.23418L33.1121 0.175843L36.3046 3.97356L36.1464 0.0516697L37.4128 0Z" fill="#262626"/>
<path d="M42.8549 5.20787L39.8923 4.69951L39.2486 5.6779L37.9297 5.45205L41.3545 0.475098L42.8824 0.737613L44.4495 6.57128L43.1322 6.34377L42.8549 5.20787ZM42.6051 4.18615L41.9607 1.54849L40.4718 3.82112L42.6051 4.18615Z" fill="#262626"/>
<path d="M47.1827 7.80735C45.549 7.17231 44.3983 5.80724 45.1244 3.93963C45.8505 2.07202 47.659 1.86617 49.1254 2.43954C50.431 2.94707 51.3736 3.92879 51.267 5.27304L50.0338 4.79384C49.9905 4.21048 49.6549 3.67128 48.7798 3.33126C47.5616 2.85706 46.6981 3.43043 46.3209 4.40882C45.9437 5.38721 46.281 6.43144 47.5358 6.9173C48.7257 7.37983 49.3677 6.83396 49.6216 6.3256L47.9438 5.67306L48.2944 4.77634L51.1762 5.89641C50.5309 8.0082 48.9605 8.50072 47.1827 7.80735Z" fill="#262626"/>
<path d="M54.1954 11.5084L54.2454 9.31993L54.2196 9.30326L52.5775 8.22404L51.5592 9.77579L50.5059 9.08409L53.5135 4.50049L56.3395 6.3581C57.5827 7.17481 57.8325 8.19153 57.2272 9.11575C56.7542 9.83579 56.1305 10.0441 55.3953 9.8583L55.3711 12.2793L54.1954 11.5084ZM53.1013 7.42482L54.8349 8.56406C55.4761 8.98575 55.9049 8.78907 56.1539 8.40988C56.412 8.01652 56.422 7.5765 55.7675 7.14314L54.0339 6.00057L53.1013 7.42482Z" fill="#262626"/>
<path d="M59.4565 14.8659L57.3399 12.7299L56.2482 13.1525L55.3057 12.2016L60.9811 10.1406L62.0728 11.2424L59.9636 16.9002L59.021 15.9493L59.4565 14.8659ZM59.8429 13.8867L60.8487 11.3649L58.3216 12.3516L59.8429 13.8867Z" fill="#262626"/>
<path d="M68.6817 20.5681L63.9979 23.4133L63.3443 22.3349L67.0447 20.0847L62.39 20.7589L61.7689 19.7339L64.5167 15.9128L60.8163 18.163L60.1602 17.0846L64.8447 14.2402L65.8639 15.9178L63.1611 19.5847L67.6625 18.8847L68.6817 20.5681Z" fill="#262626"/>
<path d="M69.4786 30.6026L67.73 29.1475L65.8149 30.3609L66.6534 28.2516L64.9131 26.8024L67.1704 26.9482L68.0173 24.8423L68.576 27.0441L70.8409 27.1883L68.9207 28.4033L69.4786 30.6026Z" fill="#262626"/>
<path d="M69.1772 39.5339C66.9939 39.5022 66.461 37.8963 66.4851 36.1887L66.521 33.6978L71.9999 33.7761L71.9641 36.2671C71.9425 37.9747 71.3596 39.5647 69.1772 39.5339ZM69.1955 38.2413C70.6044 38.2613 70.9766 37.4363 70.9949 36.1279L71.0107 35.0312L67.4735 34.9803L67.4577 36.0771C67.4386 37.3855 67.7791 38.2205 69.1947 38.2413H69.1955Z" fill="#262626"/>
<path d="M65.3032 44.8061L66.3083 40.0225L71.6706 41.1509L70.6814 45.8586L69.7314 45.6586L70.4616 42.1851L69.2742 41.9351L68.5889 45.1936L67.6472 44.9952L68.3316 41.7367L66.9994 41.4567L66.25 45.0061L65.3032 44.8061Z" fill="#262626"/>
<path d="M64.6061 51.0736C63.5078 50.6161 63.2988 49.4677 64.0482 47.6667C64.7768 45.9166 65.8168 45.2724 66.8426 45.7008L66.3372 46.9192C65.7976 46.7284 65.2772 47.2242 64.895 48.1426C64.4945 49.1043 64.5786 49.6152 64.9616 49.7752C65.4821 49.9919 65.7568 49.1918 66.5629 47.9051C67.3689 46.6183 67.9684 46.3608 68.7636 46.6917C69.5963 47.0384 70.1259 47.9218 69.3523 49.7802C68.6087 51.5669 67.6403 51.9778 66.7327 51.6336L67.2015 50.5027C67.5812 50.6102 68.0808 50.326 68.4697 49.3935C68.9027 48.3518 68.7236 47.9884 68.3764 47.8434C67.8993 47.6451 67.5213 48.4718 67.0283 49.3102C66.2523 50.6227 65.7335 51.5436 64.6061 51.0736Z" fill="#262626"/>
<path d="M66.7157 54.7529L61.9878 51.982L62.6248 50.8936L67.3527 53.6646L66.7157 54.7529Z" fill="#262626"/>
<path d="M59.6381 55.0958C60.7347 53.7266 62.3793 53.0374 63.943 54.2908C65.5068 55.5442 65.1587 57.3334 64.1753 58.5627C63.2994 59.6569 62.0803 60.2653 60.8321 59.7569L61.6598 58.7235C62.2252 58.856 62.8431 58.6985 63.4301 57.9651C64.2469 56.9434 63.9597 55.95 63.1403 55.2983C62.321 54.6466 61.2202 54.6525 60.3783 55.7042C59.5815 56.7042 59.912 57.4776 60.3176 57.871L61.4433 56.4642L62.1927 57.0668L60.2601 59.4836C58.4424 58.2327 58.444 56.5867 59.6381 55.0958Z" fill="#262626"/>
<path d="M56.4365 65.7539L52.9917 61.4895L54.0933 60.5978L58.9161 61.7329L56.4548 58.6835L57.4348 57.8901L60.8804 62.1545L59.7854 63.0413L54.956 61.9004L57.4223 64.9522L56.4365 65.7539Z" fill="#262626"/>
<path d="M45.7634 66.7489C45.2788 65.6096 45.8517 64.9571 47.4287 64.2854L50.4596 62.9937L52.6054 68.0389L49.4221 69.3949C48.2123 69.9107 47.3405 69.9482 46.9117 68.9323C46.6619 68.3415 46.8284 67.8881 47.3047 67.4964L47.2888 67.4606C46.5611 67.5873 46.039 67.3972 45.7634 66.7489ZM46.9808 66.3322C47.1623 66.7572 47.5295 66.7622 48.099 66.5205L50.2098 65.6213L49.6794 64.3712L47.5695 65.2696C46.8992 65.5588 46.8001 65.9072 46.9808 66.3322ZM51.0675 67.6389L50.5612 66.4497L48.4796 67.3364C47.975 67.5514 47.7651 67.8364 47.9492 68.2698C48.1332 68.7032 48.517 68.7257 48.985 68.5256L51.0675 67.6389Z" fill="#262626"/>
<path d="M40.2853 71.8277L39.6567 68.6225C39.2878 66.7391 40.421 66.0924 41.9049 65.8016C43.3887 65.5107 44.681 65.6799 45.0507 67.5633L45.6793 70.7685L44.4428 71.0118L43.8291 67.8825C43.6135 66.7833 43.0106 66.5583 42.0889 66.7399C41.1671 66.9216 40.695 67.3566 40.9098 68.4559L41.5218 71.5877L40.2853 71.8277Z" fill="#262626"/>
<path d="M33.9806 66.4587L35.1147 68.3305H35.1463L37.1106 68.3563L37.1372 66.5037L38.3979 66.5195L38.3254 72.0032L34.944 71.959C33.4577 71.939 32.6999 71.2165 32.7141 70.1114C32.7257 69.2497 33.1396 68.738 33.8623 68.4972L32.5825 66.4429L33.9806 66.4587ZM37.0981 69.3122L35.0239 69.2847C34.257 69.2747 34.0014 69.6706 33.9956 70.1256C33.9889 70.5956 34.2187 70.974 35.0014 70.9848L37.0756 71.0123L37.0981 69.3122Z" fill="#262626"/>
<path d="M27.3442 65.3188L32.1262 66.3189L31.0088 71.6842L26.3042 70.7033L26.5015 69.7541L29.9763 70.4758L30.2261 69.2874L26.9695 68.6082L27.1652 67.6648L30.4226 68.344L30.6999 67.0106L27.1452 66.2697L27.3442 65.3188Z" fill="#262626"/>
<path d="M22.3986 64.4844L25.168 65.6511L26.0174 64.8444L27.2506 65.3653L22.785 69.4322L21.3569 68.8296L21.1562 62.7935L22.3894 63.3143L22.3986 64.4844ZM22.4136 65.5361L22.4419 68.2521L24.4045 66.3762L22.4136 65.5361Z" fill="#262626"/>
<path d="M13.3594 64.022L15.2162 61.3368C16.307 59.7534 17.5594 60.1201 18.8025 60.9801C20.0457 61.8402 20.8259 62.8861 19.7351 64.4645L17.8783 67.1513L16.8424 66.4338L18.6518 63.8112C19.288 62.8894 19.029 62.3002 18.2563 61.766C17.4836 61.2318 16.8408 61.196 16.2054 62.1177L14.3936 64.7395L13.3594 64.022Z" fill="#262626"/>
</g>
<defs>
<clipPath id="clip0">
<rect width="72" height="72" fill="white"/>
</clipPath>
</defs>
</svg>
