<svg width="16" height="16" viewBox="0 0 16 16" xmlns="http://www.w3.org/2000/svg">
<g clip-path="url(#clip0)">
<path fill-rule="evenodd" clip-rule="evenodd" d="M4.44633 0.849074C4.7933 0.942042 4.9992 1.29868 4.90623 1.64564L4.51909 3.09047L5.03679 2.79157C8.11301 1.01552 12.0466 2.06951 13.8226 5.14573C15.5987 8.22195 14.5447 12.1555 11.4685 13.9315C8.39224 15.7076 4.45869 14.6536 2.68264 11.5774C2.50303 11.2663 2.60962 10.8685 2.9207 10.6889C3.23177 10.5093 3.62955 10.6159 3.80915 10.927C5.226 13.3811 8.364 14.2219 10.8181 12.805C13.2721 11.3882 14.113 8.25018 12.6961 5.79612C11.2792 3.34206 8.14125 2.50123 5.68718 3.91809L5.16948 4.21698L6.61431 4.60412C6.96127 4.69709 7.16718 5.05373 7.07421 5.40069C6.98124 5.74765 6.62461 5.95355 6.27764 5.86059L3.31613 5.06705C2.96917 4.97408 2.76326 4.61745 2.85623 4.27048L3.64977 1.30897C3.74273 0.962008 4.09937 0.756105 4.44633 0.849074Z"/>
</g>
<defs>
<clipPath id="clip0">
<rect width="16" height="16" fill="white"/>
</clipPath>
</defs>
</svg>
