<svg width="20" height="20" viewBox="0 0 20 20" fill="none" xmlns="http://www.w3.org/2000/svg">
<path fill-rule="evenodd" clip-rule="evenodd" d="M5.49242 13.8488L2.08147 2.74156C2.08147 2.74156 1.30387 2.66876 0.86887 2.65813C-0.0184623 2.63595 -0.446303 0.30852 0.669042 0.246123C1.00609 0.227404 3.82657 0 3.82657 0L4.92713 4.47482L20 5.28368L18.1731 13.4337L5.49242 13.8488ZM5.75671 15.1813C8.85417 15.1813 8.93225 19.9156 5.97155 19.9156C2.45988 19.9159 2.71838 15.1813 5.75671 15.1813ZM16.2134 15.2657C19.3109 15.2657 19.3885 20 16.4283 20C12.9164 20 13.1746 15.2657 16.2134 15.2657Z" fill="#262626"/>
</svg>
