<?xml version="1.0" encoding="UTF-8"?>
<svg width="16px" height="17px" viewBox="0 0 16 17" version="1.1" xmlns="http://www.w3.org/2000/svg" xmlns:xlink="http://www.w3.org/1999/xlink">
    <!-- Generator: Sketch 64 (93537) - https://sketch.com -->
    <title>download-file</title>
    <desc>Created with Sketch.</desc>
    <g id="Page-1" stroke="none" stroke-width="1" fill="none" fill-rule="evenodd">
        <g id="download-file" transform="translate(0.000000, 1.000000)">
            <circle id="Oval" stroke="#A4A9AD" stroke-width="1.3" cx="8" cy="7.5" r="7.35"></circle>
            <path d="M7.64645,10.3536 C7.84171,10.5488 8.15829,10.5488 8.35355,10.3536 L11.5355,7.17157 C11.7308,6.97631 11.7308,6.65973 11.5355,6.46447 C11.3403,6.2692 11.0237,6.2692 10.8284,6.46447 L8,9.2929 L5.17157,6.46447 C4.97631,6.2692 4.65973,6.2692 4.46447,6.46447 C4.2692,6.65973 4.2692,6.97631 4.46447,7.17157 L7.64645,10.3536 Z M7.5,0 L7.5,10 L8.5,10 L8.5,0 L7.5,0 Z" id="Shape" fill="#A4A9AD" fill-rule="nonzero"></path>
            <line x1="5.5" y1="11.5" x2="10.5" y2="11.5" id="Path" stroke="#A4A9AD" stroke-linecap="round"></line>
        </g>
    </g>
</svg>