<svg width="60" height="46" viewBox="0 0 60 46" xmlns="http://www.w3.org/2000/svg">
<path fill-rule="evenodd" clip-rule="evenodd" d="M1.58983 45.5001L0.994629 25.9892L15.4949 16.5615L20.3061 25.9892L34.984 16.7391L39.7952 25.9892L53.4074 16.5615L59.3066 25.9892L58.9173 45.1449L1.58983 45.5001ZM19.128 31.1967L6.44316 31.5012V38.6089L19.7354 38.8495L19.128 31.1967ZM36.6538 30.7759L23.4549 31.0927L23.2346 38.9119L36.6842 39.1551L36.6538 30.7759ZM40.5552 30.6825L40.1669 39.218L53.6133 39.4612L53.8245 30.3641L40.5552 30.6825ZM42.5733 0.644137L49.0357 0.533203L49.9909 16.1679L41.6464 20.7924L42.5733 0.644137ZM23.6864 5.36627L29.8032 5.2548L31.2576 16.1012L22.712 20.3897L23.6864 5.36627Z"/>
</svg>
