<svg width="41" height="53" viewBox="0 0 41 53" fill="none" xmlns="http://www.w3.org/2000/svg">
<path fill-rule="evenodd" clip-rule="evenodd" d="M19.4924 45.3685C13.487 45.3685 8.6209 43.9371 4.83103 41.5845L6.10996 38.7739C6.6465 39.1227 7.21236 39.4475 7.8017 39.7509L8.95903 37.4053C-5.3055 29.7099 -1.05697 5.3968 17.4401 5.3968C19.9569 5.3968 22.1953 5.83253 24.1606 6.6016L25.334 4.224C24.3649 3.8432 23.3404 3.528 22.255 3.29493L23.7542 0C47.4598 5.98347 46.0881 45.3685 19.4924 45.3685ZM8.0481 32.8581C7.5537 28.7387 8.28596 24.5963 9.88116 20.8496L4.34676 18.1003C2.75903 23.1749 3.88436 29.128 8.0481 32.8581ZM17.4614 8.60907C12.0577 8.60907 8.1505 11.1621 5.90036 14.7221L11.4673 17.7195C13.6742 13.9979 16.7494 10.8683 20.2636 8.85067C19.3809 8.696 18.4486 8.60907 17.4614 8.60907ZM11.6918 35.2373C15.4342 33.8096 18.6593 30.416 20.9222 26.3349L12.8262 22.3125C10.9612 26.5429 10.2849 31.2395 11.6918 35.2373ZM24.1057 10.7611C20.4913 11.8821 16.9164 15.1787 14.4044 19.3008L22.278 23.5397C24.0684 19.2699 24.8246 14.6032 24.1057 10.7611ZM24.0188 27.8731C22.0486 31.2773 19.3222 34.2176 16.0204 36.3307C16.8758 36.4427 17.7761 36.5029 18.7244 36.5029C23.887 36.5029 27.4769 34.048 29.4988 30.5952L24.0188 27.8731ZM30.6518 28.048C32.3852 22.9051 31.3041 16.5776 27.4124 12.5675C27.8369 16.9141 27.0753 21.2784 25.3676 25.2032L30.6518 28.048ZM27.3745 8.3104C39.3356 16.5957 36.5697 39.7131 18.9948 39.7131C16.2449 39.7131 13.8161 39.3093 11.6966 38.592L10.4998 40.9035C13.0209 41.7797 15.9233 42.2757 19.2257 42.2757C39.8652 42.2757 42.9628 15.2219 28.6177 5.90827L27.3745 8.3104ZM9.9393 49.6251L16.6737 49.4885L16.8412 47.528L21.6321 47.4192V49.3877L28.1606 49.2549L28.6977 52.9963L9.5681 52.8171L9.9393 49.6251Z" fill="#262626"/>
</svg>
