<svg width="17" height="21" viewBox="0 0 17 21" fill="none" xmlns="http://www.w3.org/2000/svg">
<path fill-rule="evenodd" clip-rule="evenodd" d="M10.5393 21L0 19.2043L2.10634 1.38252L5.51152 1.85498C6.51706 -1.07343 11.1135 -0.325623 11.1473 2.63704L17 3.44904L15.3994 16.8103L10.5393 21ZM7.70325 3.43769L8.00387 2.20087L9.86477 2.45921C9.51104 0.853363 6.90193 1.10944 6.70641 2.63137C6.56629 3.72303 6.06718 8.06745 5.63217 11.4967C5.45886 12.8616 7.73027 13.401 7.92213 11.6525C7.96838 11.2293 8.606 5.34771 8.606 5.34771L9.86523 5.55638C9.86523 5.55638 9.31415 11.4998 9.27522 11.9444C8.99362 15.15 3.95717 14.4332 4.27725 11.4361C4.74499 7.05426 5.03828 4.88523 5.27707 3.1138L3.15516 2.83051L1.47696 18.1349L9.44831 19.5824L10.0777 15.027L14.273 15.6474L15.5317 4.48309L7.70325 3.43769Z" fill="#262626"/>
</svg>
