<svg width="14" height="13" viewBox="0 0 14 13" fill="none" xmlns="http://www.w3.org/2000/svg">
<path fill-rule="evenodd" clip-rule="evenodd" d="M0 8.05656C0 8.05656 0 4.11166 0 2.94472C0 1.44166 0.841046 0.166748 3.04891 0.166748C4.10029 0.166748 13.155 0.277978 13.155 0.277978L13.3333 8.00095L0 8.05656ZM4.26108 3.33858C4.26108 1.09561 1.03077 0.98731 1.03077 3.37679C1.03077 3.82773 1.03923 6.81938 1.03923 6.81938L4.28001 6.7623C4.28001 6.76246 4.26108 4.06076 4.26108 3.33858ZM10.8828 3.54331L5.64713 3.44737L5.63605 4.50112L9.32952 4.50893C9.32952 5.63667 10.231 5.91361 10.9319 5.91361L10.8828 3.54331ZM8.30337 8.95681L8.34476 12.8334L5.37201 12.7869L5.38032 9.00933L8.30337 8.95681Z" fill="#262626"/>
</svg>
