<svg width="14" height="12" viewBox="0 0 14 12" fill="none" xmlns="http://www.w3.org/2000/svg">
<path fill-rule="evenodd" clip-rule="evenodd" d="M10.2893 11.8333L3.75157 9.91237L4.31616 8.29388L2.80171 7.9024L2.3845 4.01879L5.43774 1.84808L6.46182 2.1421L7.03449 0.5L13.6668 2.47275L10.2893 11.8333ZM12.5257 3.53233L9.08086 5.93987L10.0833 10.2438L12.5257 3.53233ZM7.5511 1.44627L7.22925 2.36237L9.566 3.03318C9.74854 3.90842 8.86887 4.42529 8.12875 4.3485C7.71546 4.30565 7.05539 4.18106 6.62108 4.09417L4.74477 9.43647L9.44962 10.8813L8.20417 5.61134L12.3039 2.79036L7.5511 1.44627ZM0.333496 3.71057L1.47455 3.671L2.2465 8.98477L0.405822 8.98746L0.333496 3.71057Z" fill="black"/>
</svg>
