<svg width="20" height="20" viewBox="0 0 20 20" xmlns="http://www.w3.org/2000/svg">
<path fill-rule="evenodd" clip-rule="evenodd" d="M18.2053 15.3367C17.826 17.5519 16.7761 18.7674 14.767 19.3634C13.7194 19.6743 12.3781 19.8125 10.6756 19.8282C10.6092 19.8286 9.08358 19.8333 9.08358 19.8333L9.11243 18.6038C9.11243 18.6038 10.643 18.6124 10.7273 18.6113C14.9032 18.5721 16.4708 17.9526 16.9462 15.4743C16.6132 15.4743 16.2407 15.4743 15.9629 15.4743L15.5922 16.8183L13.6793 16.8299V14.464L11.8288 14.4353V16.8412L10.7065 16.8479V14.4181L8.66095 14.3864V16.8601L7.4547 16.8672V14.3673L5.53826 14.3379V16.8788L2.77206 16.8957C2.77206 16.8957 2.77188 11.6041 2.82676 9.56166C2.88016 7.58021 4.29903 5.63755 7.0716 5.64195C7.09389 5.64195 11.888 5.6838 11.9105 5.6838C14.7561 5.70386 16.1675 7.7264 16.1587 9.74263C16.4421 9.74263 16.7982 9.74263 17.1251 9.74263C17.1251 9.71205 17.1251 9.68148 17.1251 9.65052C17.1251 7.37689 15.6349 4.83706 12.4256 4.81413C12.4005 4.81413 6.59745 4.76751 6.57235 4.76751C3.46333 4.76235 1.93636 7.19057 1.8766 9.4128C1.85768 10.1095 1.83557 12.1523 1.83557 12.1523L0.732542 12.2467C0.732542 12.2467 0.658919 10.0354 0.667723 9.19553C0.695262 6.60162 2.66285 3.48508 6.29153 3.491C6.30315 3.491 7.3157 3.4996 8.53488 3.51011L9.07253 0.5H10.2709L10.6862 3.52807C11.8234 3.5382 12.7379 3.54565 12.7492 3.54603C16.4942 3.57221 18.3786 6.71781 18.3786 9.37095C18.3786 9.53376 18.3786 9.68855 18.3784 9.83779C19.6231 10.5091 19.7385 14.5389 18.2053 15.3367ZM6.77055 8.4174C4.42211 8.4174 4.30878 12.0635 6.81064 12.0635C9.09538 12.0635 9.11018 8.4174 6.77055 8.4174ZM12.7954 8.98246C11.1422 8.98246 11.0626 11.5492 12.8235 11.5492C14.432 11.5492 14.4425 8.98246 12.7954 8.98246Z"/>
</svg>
