<svg width="56" height="56" viewBox="0 0 56 56" xmlns="http://www.w3.org/2000/svg">
<path fill-rule="evenodd" clip-rule="evenodd" d="M4.66699 49.997L11.7452 1.55554L42.6925 4.22229L51.3337 13.804L45.4729 54.4444L4.66699 49.997ZM29.7916 46.1849C30.8593 45.547 35.2083 42.1947 35.2083 42.1947L31.4973 41.1521L31.3277 33.7156C31.3277 33.7156 26.9058 35.1362 23.4019 33.5831C23.4019 34.0045 23.337 35.2748 23.299 35.7252C12.8067 39.927 17.6128 45.8873 29.7916 46.1849ZM27.971 17.3964C23.9744 16.8959 23.2622 20.4115 23.0925 21.8773C23.0052 22.6291 22.8599 23.637 22.8599 24.8707C22.409 28.7316 23.8547 29.5181 24.2719 30.0681C24.4709 30.3317 24.7341 31.3724 26.06 31.5382C27.6766 31.7406 27.9997 31.0643 28.2548 30.857C28.6533 30.5328 30.1757 30.0452 30.3391 28.645C30.636 26.1045 31.5079 26.2858 31.6177 25.6745C31.7674 24.8454 31.7125 23.9389 31.851 22.681C32.1921 19.5577 31.0763 17.7844 27.971 17.3964ZM38.404 15.3119L39.0483 7.37289L14.3023 5.41088L9.12635 42.1328C11.5232 38.4322 15.6526 36.1342 18.6962 33.1024C17.6047 29.6449 18.2147 23.5559 19.3093 22.4292C19.086 22.0344 19.1452 21.1701 19.2432 20.3713C19.3542 19.4549 20.8348 18.1766 21.2626 17.2906C22.0472 15.6664 24.7908 12.9619 29.1248 13.4235C37.3375 14.2984 37.8845 19.3498 37.9699 23.301C38.041 26.5494 38.139 29.4642 38.2568 31.3761C38.3697 33.1921 38.0005 38.0442 39.9907 40.5711C40.7927 41.589 42.9663 43.452 42.9663 43.452L43.3062 44.0874L47.3371 16.5475L38.404 15.3119Z" />
</svg>
