<svg width="180" height="20" viewBox="0 0 180 20" fill="none" xmlns="http://www.w3.org/2000/svg">
<path fill-rule="evenodd" clip-rule="evenodd" d="M88.2205 19.4394H90.3179L92.633 14.1826H102.62L104.992 19.4394H107.115L98.5904 0.270508H96.7148L88.2205 19.4394ZM93.3119 12.4159L97.6417 2.80315L101.967 12.4159H93.3119ZM67.0146 19.4398H69.0033V3.43016L75.2827 11.7505H76.5142L82.7501 3.43016V19.4398H84.7388V0.384033H82.7762L75.892 9.60946L69.0033 0.384033H67.0146V19.4398ZM112.612 19.4398H110.597V0.384033H119.118C120.971 0.384033 122.436 0.851107 123.513 1.78525C124.049 2.25081 124.474 2.83147 124.755 3.48396C125.036 4.13646 125.166 4.84396 125.136 5.55375C125.178 6.79658 124.755 8.01039 123.948 8.95672C123.087 9.90457 121.915 10.5128 120.645 10.6713L126.794 19.4398H124.427L118.439 10.8801H112.612V19.4398ZM112.612 2.20736V9.0394H119.009C120.094 9.1124 121.172 8.80463 122.055 8.16907C122.413 7.85986 122.695 7.47274 122.88 7.03747C123.064 6.6022 123.147 6.13036 123.121 5.65819C123.146 5.18088 123.061 4.70419 122.872 4.26502C122.684 3.82586 122.397 3.43598 122.033 3.12555C121.161 2.48263 120.091 2.16547 119.009 2.22912L112.612 2.20736ZM132.646 0.384033H130.632V19.4398H132.646V9.74871L142.733 19.4354H145.579L134.77 9.08727L144.135 0.384033H141.467L132.646 8.6521V0.384033ZM162.101 19.4398H148.611V0.384033H161.666V2.20736H150.613V8.29962H159.704V10.1229H150.639V17.6164H162.101V19.4398ZM171.327 19.4398H173.342V2.20736H180V0.384033H164.769V2.20736H171.327V19.4398Z" fill="#262626"/>
<path d="M4.89992 19.4405H0V0.384766H4.87381L9.69106 7.70418L14.5388 0.384766H19.3821V19.4405H14.5083V7.83473L11.1053 12.9305H8.41168L4.89992 7.83473V19.4405Z" fill="#2F2BDF"/>
<path d="M29.753 19.8177C26.8142 19.8177 24.3483 19.1374 22.3552 17.7768V12.7681C23.3154 13.5892 24.425 14.2172 25.6233 14.6175C26.8722 15.106 28.1988 15.3655 29.5397 15.3834C31.4835 15.3834 32.4553 14.8844 32.4553 13.8865C32.4346 13.6538 32.3566 13.4299 32.2283 13.2348C32.1 13.0396 31.9253 12.8793 31.7199 12.7681C31.3316 12.5598 30.9215 12.3949 30.4971 12.2764L28.8043 11.7498L27.4162 11.3538L26.1629 10.8795C25.725 10.7245 25.3048 10.5232 24.9096 10.279C24.1943 9.81207 23.5668 9.22285 23.0558 8.53832C22.6048 7.67335 22.3718 6.71135 22.377 5.73588C22.3344 4.9199 22.4941 4.10604 22.8418 3.36662C23.1895 2.6272 23.7145 1.98511 24.37 1.4974C25.7103 0.50088 27.5424 0.000444446 29.8618 0.000444446C32.1108 -0.0177869 34.3289 0.52514 36.3152 1.58008V6.28853C35.3707 5.72173 34.3552 5.28274 33.2952 4.98305C32.2021 4.63798 31.0645 4.45472 29.9183 4.43909C28.2502 4.43909 27.4162 4.8554 27.4162 5.68801C27.4162 6.05354 27.6816 6.3451 28.2081 6.55833L29.0785 6.85424C29.2786 6.92822 29.7051 7.05442 30.3578 7.23718C31.0106 7.41995 31.4545 7.54615 31.6938 7.62013C33.2605 8.08532 34.7211 8.85256 35.9932 9.87862C37.0289 10.7663 37.5453 12.0356 37.5424 13.6863C37.5663 14.5514 37.381 15.4094 37.0022 16.1875C36.6234 16.9656 36.0623 17.6407 35.3666 18.1554C33.9276 19.2636 32.0564 19.8177 29.753 19.8177Z" fill="#2F2BDF"/>
<path d="M49.8427 19.8174C47.1089 19.8937 44.4537 18.8972 42.445 17.0411C41.4736 16.1303 40.707 15.0234 40.1961 13.7937C39.6852 12.564 39.4416 11.2398 39.4815 9.9088C39.4378 8.57533 39.6818 7.24809 40.197 6.01735C40.7121 4.78662 41.4862 3.68127 42.4668 2.77649C44.4424 0.925604 46.9678 0.000160112 50.0429 0.000160112C51.9777 -0.00993974 53.8851 0.45793 55.5956 1.36222V5.96188C54.0123 5.0488 52.2229 4.55316 50.3954 4.52149C48.8359 4.46057 47.3136 5.0065 46.1482 6.04456C45.606 6.54868 45.1788 7.16373 44.8957 7.84784C44.6126 8.53194 44.4802 9.26902 44.5077 10.0089C44.4662 10.7266 44.5747 11.4451 44.8263 12.1185C45.0779 12.792 45.4671 13.4056 45.9691 13.9202C46.4711 14.4349 47.0748 14.8393 47.7417 15.1077C48.4087 15.376 49.1242 15.5024 49.8427 15.4789C50.9229 15.5389 51.9903 15.2221 52.8628 14.5824V9.6564H57.7931V16.7974C56.8621 17.742 55.7386 18.4752 54.499 18.9471C53.0157 19.5285 51.4358 19.8238 49.8427 19.8174Z" fill="#2F2BDF"/>
</svg>
