<?xml version="1.0" encoding="UTF-8"?>
<svg width="91px" height="11px" viewBox="0 0 91 11" version="1.1" xmlns="http://www.w3.org/2000/svg" xmlns:xlink="http://www.w3.org/1999/xlink">
    <!-- Generator: Sketch 64 (93537) - https://sketch.com -->
    <title>msg-market-grey-logo</title>
    <desc>Created with Sketch.</desc>
    <g id="Page-1" stroke="none" stroke-width="1" fill="none" fill-rule="evenodd">
        <g id="msg-market-grey-logo" fill="#A4A9AD">
            <path d="M21.4127,9.09728 C22.4261,10.0337 23.7656,10.5364 25.1449,10.4979 C25.9486,10.5012 26.7456,10.3522 27.4939,10.0589 C28.1193,9.82078 28.6861,9.4509 29.1559,8.97433 L29.1559,5.37168 L26.6685,5.37168 L26.6685,7.85687 C26.2283,8.17957 25.6898,8.33942 25.1449,8.30913 C24.7824,8.32102 24.4214,8.25724 24.0849,8.12185 C23.7484,7.98646 23.4438,7.78244 23.1906,7.52279 C22.9374,7.26315 22.741,6.95358 22.6141,6.61383 C22.4871,6.27407 22.4324,5.91159 22.4533,5.54951 C22.4395,5.17624 22.5062,4.80438 22.6491,4.45925 C22.7919,4.11412 23.0074,3.80382 23.281,3.54949 C23.8689,3.02579 24.6369,2.75037 25.4237,2.7811 C26.3456,2.79708 27.2484,3.04713 28.0472,3.50778 L28.0472,1.18724 C27.1842,0.731027 26.222,0.494985 25.2458,0.500000204 C23.6944,0.500000204 22.4204,0.96697 21.4237,1.90075 C20.929,2.35721 20.5384,2.91486 20.2785,3.53577 C20.0187,4.15668 19.8956,4.82627 19.9176,5.49901 C19.8975,6.1705 20.0203,6.83859 20.2781,7.45896 C20.5359,8.07933 20.9226,8.63779 21.4127,9.09728 Z M15.0112,10.4981 C13.5286,10.4981 12.2845,10.1549 11.279,9.46844 L11.279,6.94153 C11.7634,7.35578 12.3233,7.6726 12.9278,7.87458 C13.5578,8.12102 14.2271,8.25191 14.9036,8.26097 C15.8842,8.26097 16.3746,8.00923 16.3746,7.50575 C16.3641,7.38838 16.3248,7.27542 16.26,7.17697 C16.1953,7.07851 16.1072,6.99763 16.0035,6.94153 C15.8076,6.83645 15.6007,6.75326 15.3866,6.69345 L14.5326,6.42781 L13.8323,6.22802 L13.2,5.98873 C12.9791,5.91053 12.7671,5.80896 12.5677,5.68576 C12.2068,5.45021 11.8903,5.15295 11.6325,4.8076 C11.4049,4.37122 11.2874,3.88589 11.29,3.39376 C11.2685,2.9821 11.3491,2.57151 11.5245,2.19847 C11.6999,1.82543 11.9648,1.50149 12.2955,1.25544 C12.9717,0.752695 13.8959,0.500224 15.0661,0.500224 C16.2007,0.491026 17.3198,0.764934 18.3219,1.29715 L18.3219,3.67258 C17.8454,3.38663 17.333,3.16515 16.7983,3.01396 C16.2468,2.83987 15.6729,2.74742 15.0946,2.73953 C14.2531,2.73953 13.8323,2.94956 13.8323,3.36961 C13.8323,3.55403 13.9662,3.70112 14.2318,3.80869 L14.6709,3.95798 C14.7719,3.9953 14.9871,4.05897 15.3164,4.15118 C15.6457,4.24338 15.8696,4.30705 15.9904,4.34437 C16.7808,4.57906 17.5176,4.96614 18.1594,5.48378 C18.6819,5.93165 18.9424,6.57197 18.941,7.40476 C18.9531,7.84119 18.8596,8.27408 18.6685,8.66663 C18.4773,9.05918 18.1943,9.39977 17.8433,9.65944 C17.1173,10.2185 16.1733,10.4981 15.0112,10.4981 Z M2.47202,10.3078 L0,10.3078 L0,0.694092 L2.45885,0.694092 L4.88916,4.38676 L7.33484,0.694092 L9.77832,0.694092 L9.77832,10.3078 L7.31947,10.3078 L7.31947,4.45262 L5.60267,7.02343 L4.24371,7.02343 L2.47202,4.45262 L2.47202,10.3078 Z M34.8122,10.3078 L33.8089,10.3078 L33.8089,0.694092 L34.8122,0.694092 L38.2875,5.34834 L41.7606,0.694092 L42.7507,0.694092 L42.7507,10.3078 L41.7474,10.3078 L41.7474,2.23087 L38.6014,6.42848 L37.9801,6.42848 L34.8122,2.23087 L34.8122,10.3078 Z M44.5071,10.3075 L45.5653,10.3075 L46.7332,7.65542 L51.7717,7.65542 L52.9682,10.3075 L54.0395,10.3075 L49.7388,0.636719 L48.7925,0.636719 L44.5071,10.3075 Z M47.0757,6.76409 L49.2602,1.91444 L51.4424,6.76409 L47.0757,6.76409 Z M56.8129,10.3078 L55.7964,10.3078 L55.7964,0.694092 L60.0951,0.694092 C61.0303,0.694092 61.7694,0.929731 62.3124,1.40101 C62.5831,1.63589 62.7974,1.92883 62.9392,2.25801 C63.081,2.5872 63.1466,2.94414 63.1313,3.30223 C63.1527,3.92924 62.939,4.54161 62.5319,5.01903 C62.0977,5.49723 61.5066,5.80408 60.8656,5.88402 L63.9677,10.3078 L62.7734,10.3078 L59.7526,5.9894 L56.8129,5.9894 L56.8129,10.3078 Z M56.8129,1.61396 L56.8129,5.06074 L60.0402,5.06074 C60.5879,5.09757 61.1313,4.94231 61.5769,4.62166 C61.7574,4.46566 61.8998,4.27036 61.993,4.05077 C62.0863,3.83117 62.1279,3.59313 62.1148,3.35492 C62.1275,3.11411 62.0845,2.87362 61.9894,2.65206 C61.8942,2.4305 61.7493,2.2338 61.566,2.07719 C61.1258,1.75284 60.586,1.59283 60.0402,1.62494 L56.8129,1.61396 Z M66.9198,0.694092 L65.9033,0.694092 L65.9033,10.3078 L66.9198,10.3078 L66.9198,5.41859 L72.0087,10.3056 L73.4445,10.3056 L67.9912,5.08489 L72.7157,0.694092 L71.3699,0.694092 L66.9198,4.86535 L66.9198,0.694092 Z M81.7811,10.3078 L74.9753,10.3078 L74.9753,0.694092 L81.5615,0.694092 L81.5615,1.61396 L75.9852,1.61396 L75.9852,4.68753 L80.5714,4.68753 L80.5714,5.6074 L75.9984,5.6074 L75.9984,9.38788 L81.7811,9.38788 L81.7811,10.3078 Z M86.4354,10.3078 L87.4518,10.3078 L87.4518,1.61396 L90.8108,1.61396 L90.8108,0.694092 L83.1269,0.694092 L83.1269,1.61396 L86.4354,1.61396 L86.4354,10.3078 Z" id="Shape"></path>
        </g>
    </g>
</svg>