<svg width="180" height="20" viewBox="0 0 180 20" fill="none" xmlns="http://www.w3.org/2000/svg">
<path fill-rule="evenodd" clip-rule="evenodd" d="M88.2204 19.6147H90.3179L92.633 14.3106H102.62L104.992 19.6147H107.115L98.5903 0.273193H96.7148L88.2204 19.6147ZM93.3118 12.5279L97.6417 2.82864L101.967 12.5279H93.3118ZM67.0144 19.6153H69.0031V3.4615L75.2825 11.8567H76.514L82.7498 3.4615V19.6153H84.7385V0.387939H82.7759L75.8917 9.69644L69.0031 0.387939H67.0144V19.6153ZM112.612 19.6153H110.597V0.387939H119.118C120.971 0.387939 122.436 0.859219 123.513 1.80178C124.049 2.27153 124.474 2.85742 124.755 3.51578C125.036 4.17415 125.166 4.88803 125.136 5.60421C125.178 6.85823 124.755 8.08297 123.948 9.03782C123.087 9.99421 121.915 10.6079 120.645 10.7678L126.794 19.6153H124.426L118.439 10.9786H112.612V19.6153ZM112.612 2.22769V9.12124H119.009C120.094 9.1949 121.172 8.88437 122.055 8.24308C122.413 7.93108 122.695 7.54048 122.88 7.10129C123.064 6.6621 123.147 6.18601 123.121 5.70959C123.146 5.22798 123.061 4.747 122.872 4.30388C122.684 3.86076 122.397 3.46736 122.033 3.15414C121.161 2.50543 120.091 2.18541 119.009 2.24964L112.612 2.22769ZM132.646 0.387939H130.632V19.6153H132.646V9.83694L142.733 19.6109H145.579L134.77 9.16954L144.135 0.387939H141.467L132.646 8.73046V0.387939ZM162.101 19.6153H148.611V0.387939H161.666V2.22769H150.613V8.37481H159.703V10.2146H150.639V17.7755H162.101V19.6153ZM171.327 19.6153H173.342V2.22769H180V0.387939H164.769V2.22769H171.327V19.6153Z" fill="white"/>
<path d="M4.89992 19.6155H0V0.388184H4.87381L9.69106 7.77351L14.5388 0.388184H19.3821V19.6155H14.5083V7.90524L11.1053 13.0469H8.41168L4.89992 7.90524V19.6155Z" fill="white"/>
<path d="M29.753 19.9962C26.8142 19.9962 24.3483 19.3097 22.3553 17.9369V12.8831C23.3154 13.7116 24.4251 14.3452 25.6233 14.7492C26.8722 15.242 28.1989 15.5038 29.5398 15.5219C31.4835 15.5219 32.4554 15.0185 32.4554 14.0115C32.4347 13.7768 32.3567 13.5508 32.2284 13.3539C32.1 13.157 31.9254 12.9953 31.72 12.8831C31.3316 12.6729 30.9216 12.5065 30.4972 12.3869L28.8044 11.8556L27.4162 11.4561L26.1629 10.9775C25.725 10.8211 25.3049 10.6179 24.9097 10.3715C24.1944 9.90042 23.5669 9.3059 23.0559 8.6152C22.6049 7.74245 22.3718 6.77179 22.377 5.78753C22.3345 4.9642 22.4942 4.14301 22.8419 3.39694C23.1896 2.65086 23.7145 2.00299 24.3701 1.51088C25.7104 0.505391 27.5424 0.000448448 29.8618 0.000448448C32.1109 -0.017947 34.3289 0.529869 36.3153 1.59431V6.34516C35.3708 5.77325 34.3552 5.33031 33.2952 5.02792C32.2022 4.67975 31.0645 4.49484 29.9184 4.47907C28.2503 4.47907 27.4162 4.89912 27.4162 5.73923C27.4162 6.10805 27.6817 6.40224 28.2082 6.61739L29.0785 6.91596C29.2787 6.99061 29.7052 7.11794 30.3579 7.30235C31.0106 7.48677 31.4545 7.6141 31.6939 7.68874C33.2606 8.15812 34.7211 8.93228 35.9932 9.96757C37.0289 10.8633 37.5453 12.1439 37.5424 13.8095C37.5664 14.6824 37.3811 15.5482 37.0022 16.3333C36.6234 17.1184 36.0623 17.7995 35.3666 18.3189C33.9277 19.4371 32.0565 19.9962 29.753 19.9962Z" fill="white"/>
<path d="M49.8428 19.9959C47.109 20.0729 44.4537 19.0674 42.4451 17.1946C41.4737 16.2756 40.7071 15.1587 40.1962 13.9179C39.6853 12.6772 39.4417 11.341 39.4816 9.99802C39.4379 8.65255 39.6819 7.31335 40.1971 6.07154C40.7122 4.82973 41.4863 3.71442 42.4668 2.80149C44.4425 0.933939 46.9679 0.000161554 50.043 0.000161554C51.9778 -0.0100292 53.8852 0.462054 55.5957 1.37448V6.01556C54.0124 5.09427 52.2229 4.59416 50.3955 4.56221C48.836 4.50073 47.3137 5.05158 46.1483 6.09899C45.6061 6.60765 45.1789 7.22824 44.8958 7.91851C44.6127 8.60877 44.4803 9.35249 44.5078 10.099C44.4663 10.8232 44.5748 11.5481 44.8264 12.2277C45.078 12.9072 45.4672 13.5263 45.9692 14.0456C46.4712 14.5649 47.0749 14.9729 47.7418 15.2437C48.4088 15.5145 49.1243 15.642 49.8428 15.6183C50.923 15.6788 51.9904 15.3591 52.8629 14.7137V9.74336H57.7932V16.9487C56.8621 17.9018 55.7386 18.6416 54.4991 19.1177C53.0158 19.7044 51.4359 20.0023 49.8428 19.9959Z" fill="white"/>
</svg>
