<svg width="141" height="16" viewBox="0 0 141 16" fill="none" xmlns="http://www.w3.org/2000/svg">
<path fill-rule="evenodd" clip-rule="evenodd" d="M68.7989 15.1198H70.4347L72.2401 11.0312H80.0284L81.8779 15.1198H83.534L76.8859 0.210693H75.4233L68.7989 15.1198ZM72.7695 9.65708L76.1461 2.18052L79.5194 9.65708H72.7695ZM52.2617 15.1201H53.8126V2.66822L58.7096 9.13955H59.67L64.5331 2.66822V15.1201H66.0839V0.299011H64.5534L59.1847 7.47434L53.8126 0.299011H52.2617V15.1201ZM87.8209 15.1201H86.2496V0.299011H92.8943C94.34 0.299011 95.4825 0.66229 96.3219 1.38885C96.7404 1.75095 97.0716 2.20257 97.2907 2.71007C97.5099 3.21756 97.6114 3.76784 97.5877 4.3199C97.6209 5.28654 97.2904 6.23062 96.6613 6.96665C95.99 7.70387 95.0763 8.17694 94.0855 8.30018L98.8807 15.1201H97.0346L92.3649 8.46264H87.8209V15.1201ZM87.8209 1.71715V7.03096H92.8095C93.6562 7.08774 94.4962 6.84836 95.185 6.35404C95.4641 6.11353 95.6841 5.81245 95.8282 5.4739C95.9723 5.13536 96.0367 4.76837 96.0165 4.40113C96.036 4.02989 95.9697 3.65913 95.8226 3.31756C95.6754 2.97598 95.4515 2.67274 95.1681 2.4313C94.4877 1.93125 93.6532 1.68457 92.8095 1.73408L87.8209 1.71715ZM103.445 0.299011H101.873V15.1201H103.445V7.58264L111.311 15.1167H113.53L105.101 7.06819L112.404 0.299011H110.323L103.445 6.72973V0.299011ZM126.415 15.1201H115.895V0.299011H126.076V1.71715H117.456V6.45558H124.545V7.87372H117.476V13.702H126.415V15.1201ZM133.61 15.1201H135.181V1.71715H140.374V0.299011H128.496V1.71715H133.61V15.1201Z" fill="#262626"/>
<path d="M3.82121 15.1199H0V0.298828H3.80085L7.55759 5.9917L11.3381 0.298828H15.1152V15.1199H11.3143V6.09324L8.66051 10.0566H6.55986L3.82121 6.09324V15.1199Z" fill="#262626"/>
<path d="M23.2027 15.4138C20.9109 15.4138 18.9879 14.8846 17.4336 13.8264V9.93073C18.1824 10.5694 19.0477 11.0578 19.9822 11.3692C20.9561 11.7491 21.9907 11.9509 23.0364 11.9649C24.5523 11.9649 25.3102 11.5768 25.3102 10.8006C25.294 10.6196 25.2332 10.4455 25.1331 10.2937C25.033 10.1419 24.8968 10.0172 24.7366 9.93073C24.4338 9.76873 24.114 9.64047 23.783 9.54827L22.4629 9.13873L21.3804 8.83073L20.403 8.46181C20.0615 8.34125 19.7338 8.18468 19.4256 7.99474C18.8678 7.6316 18.3784 7.17332 17.98 6.64091C17.6282 5.96816 17.4465 5.21994 17.4506 4.46123C17.4174 3.82658 17.5419 3.19358 17.8131 2.61848C18.0842 2.04338 18.4936 1.54397 19.0048 1.16464C20.0501 0.389573 21.4788 0.00034568 23.2876 0.00034568C25.0415 -0.0138342 26.7712 0.408442 28.3203 1.22895V4.89107C27.5837 4.45023 26.7918 4.10879 25.9651 3.8757C25.1127 3.60732 24.2255 3.46478 23.3317 3.45262C22.0308 3.45262 21.3804 3.77642 21.3804 4.424C21.3804 4.70831 21.5874 4.93507 21.998 5.10092L22.6767 5.33107C22.8328 5.38861 23.1654 5.48676 23.6744 5.62891C24.1835 5.77107 24.5296 5.86922 24.7163 5.92676C25.9381 6.28857 27.0771 6.88532 28.0692 7.68336C28.8769 8.37381 29.2796 9.36099 29.2773 10.6449C29.296 11.3177 29.1515 11.9851 28.856 12.5903C28.5606 13.1954 28.123 13.7205 27.5805 14.1208C26.4583 14.9828 24.9991 15.4138 23.2027 15.4138Z" fill="#262626"/>
<path d="M38.8702 15.4136C36.7382 15.4729 34.6675 14.6979 33.1011 13.2542C32.3435 12.5458 31.7457 11.6849 31.3473 10.7285C30.9488 9.77205 30.7589 8.74206 30.79 7.70685C30.7559 6.66971 30.9462 5.63741 31.3479 4.68017C31.7497 3.72293 32.3534 2.86322 33.118 2.1595C34.6587 0.719915 36.6282 0.000124532 39.0263 0.000124532C40.5352 -0.00773092 42.0226 0.356168 43.3566 1.0595V4.63702C42.1218 3.92685 40.7264 3.54135 39.3012 3.51672C38.0851 3.46933 36.8978 3.89395 35.989 4.70133C35.5662 5.09342 35.233 5.5718 35.0122 6.10388C34.7915 6.63596 34.6883 7.20925 34.7096 7.7847C34.6773 8.34292 34.7619 8.90174 34.9581 9.42553C35.1544 9.94932 35.4579 10.4266 35.8493 10.8269C36.2408 11.2272 36.7116 11.5417 37.2317 11.7504C37.7519 11.9591 38.3099 12.0575 38.8702 12.0391C39.7126 12.0858 40.545 11.8394 41.2254 11.3419V7.51054H45.0704V13.0647C44.3442 13.7994 43.4681 14.3696 42.5014 14.7367C41.3447 15.1889 40.1126 15.4185 38.8702 15.4136Z" fill="#262626"/>
</svg>
