<svg width="26" height="62" viewBox="0 0 26 62" fill="none" xmlns="http://www.w3.org/2000/svg">
<path fill-rule="evenodd" clip-rule="evenodd" d="M22.4091 15.4791C22.4091 15.4791 23.2946 21.2874 24.0185 24.8386C24.7418 28.3891 20.0877 33.5774 20.0877 33.5774L21.1803 61.6992C21.1803 61.6992 16.5694 63.2885 15.9947 59.1609C15.4892 55.5398 14.6789 49.2374 14.6789 49.2374L10.6469 49.1324C10.6469 49.1324 10.0278 54.2796 9.39978 58.8135C8.75935 63.4432 3.9188 61.523 3.9188 61.523L5.51219 33.4417C5.51219 33.4417 0.478101 28.7862 1.35648 24.7262C2.1289 21.1573 3.18781 15.5215 3.18781 15.5215C3.61812 15.0758 4.12301 14.6781 4.68413 14.3245L0.5 8.50455L3.06114 6.40824L7.53116 13.0495C7.82829 12.9587 8.13075 12.874 8.43972 12.7991C8.45274 10.677 8.48589 5.39047 8.48589 4.08972C8.48589 -1.13233 17.3839 -1.65595 17.3839 4.28247C17.3839 5.78334 17.3945 11.0017 17.3981 12.8862C17.9533 13.0323 18.4907 13.2097 19.0087 13.4123L22.8163 6.17682L25.5 8.18902L21.4638 14.7131C21.7995 14.9512 22.1179 15.2048 22.4091 15.4791ZM15.9462 4.82879L9.86146 4.81406C8.81202 8.16386 17.0974 7.97909 15.9462 4.82879Z" fill="#262626"/>
</svg>
