<svg width="30" height="14" viewBox="0 0 30 14" xmlns="http://www.w3.org/2000/svg">
<path fill-rule="evenodd" clip-rule="evenodd" d="M25.689 4.19782L25.7834 6.59827L30 6.97123L29.5663 11.0619L28.0825 11.5995C27.976 10.1494 26.9681 8.74479 25.0545 8.74479C23.0788 8.74479 22.0246 10.3021 22.0568 11.8317H17.3342C17.3342 10.6413 16.7157 9.45104 15.509 8.96897L21.6813 8.92929L22.4704 2.24373L27.9861 2.37863L28.8153 4.19782H25.689ZM20.7496 8.12186L8.71829 8.00085C8.71829 8.00085 9.16405 3.6959 9.34877 1.72793C9.45117 0.64475 10.2122 0 11.3326 0C12.975 0 18.8341 0.0555474 19.9244 0.0555474C21.0147 0.0555474 21.6391 0.620943 21.4704 2.12271C21.2275 4.31883 20.7496 8.12186 20.7496 8.12186ZM11.3326 11.296L8.35085 10.7227L8.57774 9.0146L13.0554 8.9769C12.5903 9.183 12.1872 9.50456 11.8853 9.91028C11.5834 10.316 11.393 10.792 11.3326 11.292V11.296ZM3.80497 2.33697L4.16036 1.54343L8.27856 0.987956L8.11793 2.55718L3.80497 2.33697ZM7.8308 5.33853L0 5.11435L0.2289 4.43786L7.99946 3.66019L7.8308 5.33853ZM7.71033 6.50106L7.54367 8.11195L2.0079 7.89174L2.3131 7.0982L7.71033 6.50106ZM14.3043 9.49072C17.2679 9.49072 17.3422 14 14.5051 14C11.1499 14 11.3888 9.49072 14.3043 9.49072ZM14.4006 12.6867C15.5813 12.6867 15.5492 10.806 14.3143 10.806C13.0794 10.806 12.9951 12.6867 14.4006 12.6867ZM25.0666 9.49072C28.0303 9.49072 28.1045 14 25.2674 14C21.9102 14 22.1572 9.49072 25.0646 9.49072H25.0666ZM25.161 12.6867C26.3416 12.6867 26.3095 10.806 25.0746 10.806C23.8398 10.806 23.7595 12.6867 25.159 12.6867H25.161Z"/>
</svg>
