<svg width="19" height="21" viewBox="0 0 19 21" fill="none" xmlns="http://www.w3.org/2000/svg">
<path fill-rule="evenodd" clip-rule="evenodd" d="M10.0588 12.5802L19 12.3261L18.9177 13.9157L14.826 13.8807L14.9228 14.9715H16.9154L16.6273 20.3858H15.4579L14.5669 18.9874L4.93575 18.8685L4.16341 20.5H2.90927L2.46137 15.0321H4.09078L3.54118 12.0954C-2.10486 9.71804 -0.877351 0.5 6.3521 0.5C13.5815 0.5 14.4241 9.8439 9.07827 12.128L8.56015 14.9948L11.8553 14.9715L11.894 13.8481L9.98377 13.8388L10.0588 12.5802ZM6.32304 1.90543C-0.037224 1.90543 -0.344706 11.2284 6.42957 11.2284C12.6179 11.2237 12.647 1.90543 6.32304 1.90543ZM5.11249 7.73226C3.76877 6.4387 5.13912 4.7396 6.52884 4.96801L8.5311 3.3668L8.83374 3.79565L7.84835 5.98421C8.45847 7.40129 6.45621 9.02115 5.12459 7.74624L5.11249 7.73226Z" fill="#262626"/>
</svg>
