<svg width="33" height="33" viewBox="0 0 33 33" fill="none" xmlns="http://www.w3.org/2000/svg">
<circle cx="16.5" cy="16.5" r="16.5" fill="#A4A9AD"/>
<mask id="mask0" mask-type="alpha" maskUnits="userSpaceOnUse" x="0" y="0" width="33" height="33">
<circle cx="16.5" cy="16.5" r="16.5" fill="#88E3F8"/>
</mask>
<g mask="url(#mask0)">
<path fill-rule="evenodd" clip-rule="evenodd" d="M22.505 25.8818C22.505 25.8818 21.2617 26.3474 21.0885 25.2221C20.9129 24.0825 20.4077 20.614 20.4077 20.614L19.9713 20.6394C19.9713 20.6394 19.5333 24.4087 19.4596 25.3066C19.3767 26.3184 18.1468 25.9245 18.1468 25.9245L18.2589 18.9954C18.2589 18.9954 17.1608 18.0599 17.3004 16.8874C17.3352 16.5939 17.3503 16.352 17.3503 16.352L22.7615 15.2651C22.7615 15.2651 22.9423 16.4189 22.9882 16.8156C23.1307 18.0498 21.9389 18.9373 21.9389 18.9373L22.505 25.8818ZM16.2175 15.6305L16.3296 25.9245C16.3296 25.9245 15.0997 26.3184 15.0167 25.3066C14.943 24.4086 14.5051 20.6394 14.5051 20.6394L14.0688 20.614C14.0688 20.614 13.5635 24.0825 13.3879 25.2221C13.2147 26.3474 11.9714 25.8818 11.9714 25.8818L12.5375 18.9373C12.5375 18.9373 11.352 18.0502 11.4883 16.8156C11.5884 15.9095 11.8009 14.7726 11.8009 14.7726C11.8009 14.7726 12.8044 13.8768 15.0165 13.8768C15.972 13.8768 21.9017 13.8795 21.9017 13.8795C21.9017 13.8795 22.5774 14.0382 22.2434 14.7288L16.2175 15.6305ZM18.6426 11.9175C18.6426 9.92235 21.284 10.2217 21.0613 11.9976C20.8469 13.7066 18.6426 13.9385 18.6426 11.9175ZM13.0323 11.9976C12.8096 10.2217 15.4511 9.92235 15.4511 11.9175C15.4509 13.9385 13.2466 13.7066 13.0323 11.9976ZM14.0906 9.19876L14.1988 6.67696L15.3977 6.86585L14.6446 9.29455L14.0906 9.19876ZM11.4427 6.35492L12.6784 6L13.3745 9.25824L12.8097 9.52543L11.4427 6.35492ZM11.9702 10.2478L10 9.23746L10.7104 8.24623L12.2238 9.78292L11.9702 10.2478Z" fill="white"/>
</g>
</svg>
