<svg width="24" height="31" viewBox="0 0 24 31" fill="none" xmlns="http://www.w3.org/2000/svg">
<path fill-rule="evenodd" clip-rule="evenodd" d="M22.0075 26.6854C21.6664 29.7754 20.1546 31.3147 16.7318 30.9463C9.70636 30.1909 0 28.6986 0 28.6986L3.32281 0C3.32281 0 13.0366 0.793522 19.6861 1.61936C22.655 1.98847 24.3906 3.52453 23.9249 7.36289C23.4352 11.4012 22.3891 23.2294 22.0075 26.6854ZM16.7034 26.555L16.9743 24.3658L6.25199 22.6998L5.89098 25.294L16.7034 26.555ZM13.5845 4.42434C12.9483 3.57839 11.7969 3.68827 11.6465 4.66347C11.5185 5.49434 12.4263 6.3866 13.1756 7.06236C14.0863 6.63112 15.2239 6.04765 15.3119 5.22181C15.4186 4.22506 14.4856 3.67678 13.5845 4.42434ZM19.8464 8.62175C19.6056 8.7862 16.5396 11.1531 15.8832 11.6774C16.4616 12.3172 16.0931 13.6403 15.0104 13.5276C14.0555 13.4281 13.8249 12.5186 14.1441 11.9043C14.4501 10.5808 15.3374 9.92263 15.3374 9.92263C15.3374 9.92263 16.2116 9.95171 16.536 10.4673L16.9375 8.26449L13.3579 8.38154L13.7366 9.60235L12.6767 11.4659L12.0937 9.39804L12.7526 8.3065L9.30777 7.31585L9.17053 9.55172C9.60849 9.13054 10.4638 9.31689 10.4638 9.31689C10.4638 9.31689 11.1663 10.1729 11.1479 11.5319C11.3107 12.2059 10.8699 13.0321 9.91914 12.8946C8.84144 12.7387 8.80066 11.3646 9.51451 10.8853C8.99215 10.2031 6.59278 7.16756 6.39916 6.94997C5.25018 8.50434 4.95372 10.0907 4.95372 10.0907L7.1162 11.0325C7.11159 11.2235 7.1162 11.4095 7.12862 11.5915C6.53923 11.5675 5.06046 11.5046 4.83173 11.4723C4.71186 12.8529 5.56048 14.0633 5.56048 14.0633L7.74601 13.631C7.86978 13.8321 8.0173 14.0199 8.17794 14.2005C7.64104 14.4177 6.62647 14.8349 6.42434 14.9581C7.07755 16.1214 8.84144 16.4629 8.84144 16.4629L9.82162 15.404C10.1152 15.5466 10.4333 15.6758 10.7773 15.7915C10.9649 17.0643 8.69534 17.5821 7.82793 17.944C8.21943 18.6999 8.7847 19.2995 9.44501 19.7383L10.5461 18.1932L11.0323 18.3185C11.0323 18.3185 10.8773 19.3602 10.5131 20.283C11.2745 20.5666 12.0919 20.674 12.8756 20.6C12.7334 19.7681 12.6419 18.3893 12.6419 18.3893L13.1097 18.3189L13.9306 20.3788C14.6945 20.125 15.3764 19.6725 15.8747 19.0122C15.0654 18.3584 13.421 17.1509 13.7512 16.1067C14.0154 16.0787 14.2643 16.0367 14.5048 15.9864L15.203 17.2539C15.203 17.2539 16.9963 17.3548 17.9077 16.3861C17.741 16.2166 16.8563 15.5635 16.3874 15.2213C16.5864 15.0852 16.7747 14.9391 16.9424 14.7742L18.9595 15.729C18.9595 15.729 20.072 14.7624 20.2855 13.3937C20.056 13.3689 18.6063 13.0676 18.0286 12.9463C18.084 12.7732 18.1333 12.594 18.1747 12.4073L20.4975 12.0231C20.4986 12.0228 20.5901 10.4109 19.8464 8.62175Z" fill="#9E2C2C"/>
</svg>
