<svg width="22" height="15" viewBox="0 0 22 15" xmlns="http://www.w3.org/2000/svg">
<path fill-rule="evenodd" clip-rule="evenodd" d="M16.9009 10.9323C16.8953 8.8193 16.8953 6.56739 16.9181 6.03034C16.9257 5.8536 16.9089 5.67665 16.8694 5.50322L20.7039 4.44959C21.2236 5.87781 21.7586 7.33583 21.912 7.80997C22.2103 8.72906 21.72 9.5244 20.8945 9.80794C20.5798 9.91597 18.9089 10.381 16.9009 10.9323ZM5.26746 3.89246C5.33471 3.86432 5.40649 3.83804 5.48279 3.81444C6.8864 3.37921 16.5069 0.322238 17.618 0.0724399C18.7289 -0.177565 19.2727 0.212964 19.6087 1.34647C19.6458 1.47168 19.7096 1.66457 19.7926 1.90567L13.1332 3.76063C11.0688 3.77636 7.38969 3.84838 5.26746 3.89246ZM14.3747 5.17581C15.2496 5.2439 15.6949 5.86229 15.6544 6.82092C15.6139 7.77954 15.6546 12.5986 15.6387 13.5621C15.6191 14.7368 14.8832 14.9552 13.7413 14.9902C12.5993 15.0249 3.23577 14.9531 1.75995 14.9951C0.284138 15.0375 0.0612674 14.3043 0.0838993 13.5555C0.106531 12.807 -0.0271045 7.82714 0.0050112 6.62907C0.0366958 5.43099 0.767382 5.15987 1.92398 5.18967C3.08058 5.21989 13.5003 5.10793 14.3747 5.17581ZM8.74674 9.55089C6.05807 9.55089 5.99082 13.4893 8.56029 13.4893C11.6078 13.4893 11.3837 9.55089 8.74674 9.55089ZM11.1865 9.74523C12.0133 10.7988 12.04 12.3448 11.1375 13.3355C11.3682 13.4334 11.6356 13.4893 11.9406 13.4893C14.9882 13.4893 14.7642 9.55089 12.1269 9.55089C11.766 9.55089 11.4529 9.62229 11.1865 9.74523Z"/>
</svg>
