<svg width="22" height="18" viewBox="0 0 22 18" xmlns="http://www.w3.org/2000/svg">
<path fill-rule="evenodd" clip-rule="evenodd" d="M20.0655 8.21904L19.2209 5.40658C18.2155 5.63537 17.2104 5.15496 16.7132 4.14385C13.2144 5.08359 8.70591 4.39779 5.62471 6.03629C5.9406 7.27871 5.42331 8.26062 4.69879 8.84953L5.47113 11.458C6.62158 11.1611 7.30197 11.8094 7.67405 12.6716C8.79339 12.2826 9.89718 12.0509 10.9654 11.902C8.87251 10.4262 8.71816 5.97441 11.9685 5.66574C14.4871 5.4265 15.4717 7.62781 15.4572 9.45024C13.8413 9.96585 13.1353 11.69 13.4904 13.1618C10.7288 13.3119 7.87156 13.4831 5.15349 15.4562L2.62087 6.65983C6.47189 2.36377 10.4197 4.62252 16.1753 2.83606L15.9235 1.94563C11.2002 3.63268 5.02071 1.27781 1.46362 6.40028L3.602 13.5417L2.42842 14.2683L0 5.85933C5.04287 -1.02562 11.8196 2.82252 16.7036 0L17.4521 2.38118C18.091 2.12395 18.7516 1.81296 19.4361 1.43447L22 10.3157C21.16 11.1665 20.2708 11.7481 19.3449 12.1515C18.7335 10.9015 18.9812 8.85592 20.0655 8.21904ZM12.7305 14.3033C15.0913 14.3033 15.1504 18 12.8944 18C10.2183 18 10.4153 14.3033 12.7305 14.3033ZM16.4157 10.3447C19.0582 10.3447 19.1247 14.483 16.5989 14.483C13.6034 14.4832 13.8238 10.3447 16.4157 10.3447Z" />
</svg>
