<svg width="30" height="10" viewBox="0 0 30 10" fill="none" xmlns="http://www.w3.org/2000/svg">
<path fill-rule="evenodd" clip-rule="evenodd" d="M10.5625 9.06143L12.0871 0.147461H14.5216L12.997 9.06143H10.5625Z" fill="#01549A"/>
<path fill-rule="evenodd" clip-rule="evenodd" d="M21.8125 0.368858C21.333 0.196724 20.5707 0 19.6363 0C17.2264 0 15.542 1.20492 15.5297 2.93854C15.5174 4.21723 16.7346 4.93035 17.6568 5.36069C18.6035 5.8033 18.9232 6.0738 18.9109 6.46725C18.9109 7.0697 18.1609 7.34019 17.46 7.34019C16.4887 7.34019 15.9723 7.20495 15.1731 6.87299L14.8535 6.72545L14.5215 8.71725C15.0871 8.97545 16.1322 9.18447 17.2264 9.19676C19.7838 9.19676 21.4314 8.00414 21.456 6.14757C21.4683 5.13937 20.8166 4.36477 19.415 3.72543C18.5666 3.31969 18.0502 3.04919 18.0502 2.63116C18.0502 2.25 18.4928 1.85657 19.4396 1.85657C20.2387 1.84427 20.8166 2.01641 21.2593 2.20082L21.4806 2.29918L21.8125 0.368858Z" fill="#01549A"/>
<path fill-rule="evenodd" clip-rule="evenodd" d="M28.0456 0.159912H26.1644C25.5865 0.159912 25.1439 0.319751 24.8857 0.897612L21.2832 9.07388H23.8283C23.8283 9.07388 24.2463 7.96733 24.3447 7.73372C24.6275 7.73372 27.0988 7.73372 27.4554 7.73372C27.5292 8.0411 27.7505 9.07388 27.7505 9.07388H30.0005L28.0456 0.159912ZM25.0455 5.90174C25.2423 5.39765 26.0169 3.41813 26.0169 3.41813C25.9923 3.44272 26.2136 2.90172 26.3365 2.56975L26.4964 3.33206C26.4964 3.33206 26.9636 5.45911 27.0619 5.90174H25.0455Z" fill="#01549A"/>
<path fill-rule="evenodd" clip-rule="evenodd" d="M8.53326 0.159912L6.14799 6.23371L5.90209 5.0042C5.45946 3.57796 4.0701 2.04107 2.5332 1.26647L4.70945 9.06159H7.27914L11.103 0.159912H8.53326Z" fill="#01549A"/>
<path fill-rule="evenodd" clip-rule="evenodd" d="M3.94675 0.147461H0.0245905L0 0.344185C3.03691 1.08189 5.06562 2.86468 5.90169 5.00404L5.04103 0.909752C4.89348 0.344185 4.47544 0.172051 3.94675 0.147461Z" fill="#F7A707"/>
</svg>
