<svg width="35" height="14" viewBox="0 0 35 14" fill="none" xmlns="http://www.w3.org/2000/svg">
<g clip-path="url(#clip0)">
<path d="M16.5577 2.05629V5.59419H18.7212C19.2364 5.59419 19.6626 5.41945 19.9998 5.07038C20.3463 4.72179 20.5192 4.30588 20.5192 3.82488C20.5192 3.35354 20.3464 2.94274 19.9998 2.59327C19.6625 2.23494 19.2363 2.05549 18.7212 2.05549H16.5577V2.05629ZM16.5577 6.83977V10.9438H15.2656V0.810791H18.6935C19.5644 0.810791 20.3027 1.10356 20.9119 1.6883C21.5311 2.27295 21.8398 2.98547 21.8398 3.82488C21.8398 4.6837 21.5311 5.40084 20.9119 5.97584C20.3128 6.55163 19.5728 6.83897 18.6935 6.83897H16.5577V6.83977Z" fill="#5F6368"/>
<path d="M23.1446 8.82071C23.1446 9.16092 23.2872 9.44346 23.5733 9.67026C23.8595 9.89619 24.1933 10.0096 24.5776 10.0096C25.1213 10.0096 25.6046 9.80651 26.0308 9.40122C26.4571 8.99497 26.6702 8.51948 26.6702 7.97283C26.2675 7.65131 25.7053 7.49135 24.9846 7.49135C24.4603 7.49135 24.0222 7.61905 23.6715 7.87381C23.3207 8.12848 23.1446 8.44329 23.1446 8.82071ZM24.8167 3.78296C25.7724 3.78296 26.5259 4.03971 27.0788 4.55417C27.6317 5.06871 27.9069 5.77348 27.9069 6.66959V10.9437H26.671V9.98164H26.6149C26.0813 10.7737 25.3697 11.1696 24.4804 11.1696C23.7218 11.1696 23.0859 10.9438 22.5766 10.4911C22.0657 10.0375 21.8105 9.47229 21.8105 8.79196C21.8105 8.07521 22.0791 7.50493 22.6177 7.08055C23.1563 6.65617 23.8754 6.44343 24.774 6.44343C25.5417 6.44343 26.1743 6.5851 26.6702 6.86772V6.57032C26.6702 6.11768 26.4923 5.73355 26.1365 5.41746C25.78 5.10097 25.3646 4.94357 24.8864 4.94357C24.1648 4.94357 23.5943 5.24991 23.1731 5.8638L22.0346 5.14162C22.663 4.23569 23.5893 3.78296 24.8167 3.78296Z" fill="#5F6368"/>
<path d="M35.0007 4.00928L30.6872 14H29.3531L30.9549 10.5046L28.1172 4.00928H29.5226L31.5732 8.99073H31.6009L33.5952 4.00928H35.0007Z" fill="#5F6368"/>
<path d="M11.335 5.955C11.335 5.545 11.3006 5.14945 11.2355 4.77075H5.78516V7.01315H8.90673C8.77291 7.74419 8.36763 8.36614 7.75268 8.78254V10.2388H9.61576C10.7066 9.22504 11.335 7.72646 11.335 5.955Z" fill="#4285F4"/>
<path d="M5.78494 11.6451C7.34466 11.6451 8.65771 11.129 9.61554 10.2388L7.75246 8.7825C7.23396 9.13444 6.56603 9.34016 5.78494 9.34016C4.27764 9.34016 2.99816 8.31627 2.54039 6.93652H0.621094V8.43638C1.57219 10.3386 3.52712 11.6451 5.78494 11.6451Z" fill="#34A853"/>
<path d="M2.54059 6.93668C2.42355 6.58514 2.35941 6.2098 2.35941 5.82231C2.35941 5.43515 2.42355 5.05989 2.54059 4.70786V3.20801H0.621289C0.228213 3.99415 0.00585938 4.8818 0.00585938 5.82231C0.00585938 6.76283 0.228213 7.65135 0.621289 8.43654L2.54059 6.93668Z" fill="#FABB05"/>
<path d="M5.78502 2.30461C6.63658 2.30461 7.40016 2.59945 8.00213 3.17788V3.17868L9.65164 1.51679C8.64979 0.577069 7.34386 0 5.78493 0C3.52712 0 1.57219 1.30564 0.621094 3.20783L2.54039 4.70769C2.99824 3.32802 4.27772 2.30461 5.78502 2.30461Z" fill="#E94235"/>
</g>
<defs>
<clipPath id="clip0">
<rect width="35" height="14" fill="white"/>
</clipPath>
</defs>
</svg>
