<svg width="30" height="8" viewBox="0 0 30 8" fill="none" xmlns="http://www.w3.org/2000/svg">
<g clip-path="url(#clip0)">
<path d="M6.56189 1.05L5.44797 4.725H5.2574L4.14348 1.05C3.95291 0.428124 3.35487 0 2.67141 0H0V8H2.6747V3.27187H2.86529L4.3965 8H6.30888L7.83681 3.27187H8.02739V8H10.7021V0H8.03067C7.3505 0 6.75248 0.428124 6.56189 1.05ZM21.3713 8H24.0624V5.63437H26.7701C28.1862 5.63437 29.3922 4.87187 29.8587 3.8H21.3713V8ZM16.6035 0.84375L14.7207 4.72813H14.5301V0H11.8554V8H14.126C14.724 8 15.2661 7.66874 15.5159 7.15626L17.3987 3.275H17.5893V8H20.264V0H17.9934C17.3954 0 16.8533 0.33125 16.6035 0.84375Z" fill="#006848"/>
<path d="M27.0358 0C27.808 0 28.5079 0.28125 29.0369 0.74375C29.6284 1.25625 29.9997 1.99376 29.9997 2.81563C29.9997 2.98437 29.9799 3.15 29.9504 3.3125H24.9821C23.2998 3.3125 21.8737 2.2625 21.394 0.8125C21.3874 0.796874 21.3841 0.778124 21.3775 0.759374C21.3644 0.715624 21.3545 0.66875 21.3414 0.625C21.2921 0.421874 21.2592 0.215624 21.2461 0H27.0358Z" fill="url(#paint0_linear)"/>
</g>
<defs>
<linearGradient id="paint0_linear" x1="29.9997" y1="10.3599" x2="21.2997" y2="10.3599" gradientUnits="userSpaceOnUse">
<stop stop-color="#1E5CD8"/>
<stop offset="1" stop-color="#02AFFF"/>
</linearGradient>
<clipPath id="clip0">
<rect width="30" height="8" fill="white"/>
</clipPath>
</defs>
</svg>
