<svg width="34" height="16" viewBox="0 0 34 16" fill="none" xmlns="http://www.w3.org/2000/svg">
<g clip-path="url(#clip0)">
<path d="M8.71146 6.84247C8.72927 8.68437 10.4094 9.30222 10.4331 9.30805C10.4213 9.34885 10.166 10.1824 9.54854 11.0392C9.01423 11.7794 8.46211 12.5197 7.5894 12.5372C6.7345 12.5547 6.45548 12.0534 5.4759 12.0534C4.49633 12.0534 4.18762 12.5197 3.37428 12.5547C2.53126 12.5838 1.89008 11.7503 1.34984 11.01C0.25153 9.50039 -0.591495 6.73755 0.536496 4.87234C1.09455 3.94557 2.09787 3.36269 3.19024 3.34521C4.01545 3.32772 4.79911 3.87562 5.30374 3.87562C5.80837 3.87562 6.75825 3.2228 7.75563 3.31606C8.17121 3.33355 9.34669 3.47927 10.1007 4.52262C10.0354 4.55759 8.69958 5.30367 8.71146 6.84247ZM7.10259 2.31351C7.54784 1.80058 7.85062 1.08364 7.76751 0.366699C7.1204 0.390014 6.34268 0.774714 5.87961 1.28765C5.46403 1.74229 5.10189 2.47089 5.20281 3.17034C5.92116 3.22863 6.65139 2.83227 7.10259 2.31351Z" fill="#090E0D"/>
<path d="M13.5781 1.43385C13.9085 1.37625 14.2749 1.33016 14.6774 1.28407C15.0798 1.23799 15.5183 1.2207 15.9989 1.2207C16.6837 1.2207 17.2783 1.30135 17.7709 1.4569C18.2695 1.6182 18.6779 1.84287 18.9963 2.13667C19.2726 2.40167 19.4828 2.71276 19.639 3.07569C19.7952 3.43862 19.8673 3.8534 19.8673 4.32579C19.8673 4.89611 19.7591 5.39154 19.5489 5.8236C19.3387 6.2499 19.0503 6.60707 18.6839 6.90088C18.3175 7.18892 17.885 7.40783 17.3804 7.55185C16.8759 7.69587 16.3293 7.765 15.7346 7.765C15.2 7.765 14.7434 7.72467 14.383 7.64978V12.3852H13.5781V1.43385ZM14.383 6.95848C14.5753 7.01033 14.7915 7.05066 15.0318 7.0737C15.272 7.09674 15.5303 7.10827 15.8007 7.10827C16.8278 7.10827 17.6267 6.87783 18.1914 6.41697C18.756 5.9561 19.0383 5.28208 19.0383 4.39492C19.0383 3.96862 18.9662 3.59416 18.8161 3.27732C18.6659 2.96047 18.4557 2.70123 18.1794 2.49385C17.903 2.29222 17.5787 2.13667 17.2002 2.03298C16.8218 1.92928 16.4073 1.87744 15.9508 1.87744C15.5844 1.87744 15.272 1.88896 15.0077 1.91776C14.7434 1.94657 14.5332 1.97537 14.371 2.00994L14.383 6.95848Z" fill="#090E0D"/>
<path d="M26.2775 10.5072C26.2775 10.8241 26.2835 11.1409 26.2955 11.4635C26.3076 11.7804 26.3436 12.0857 26.3977 12.3853H25.6408L25.5207 11.2677H25.4846C25.3825 11.4232 25.2504 11.573 25.0882 11.7285C24.926 11.8841 24.7398 12.0223 24.5295 12.1491C24.3193 12.2758 24.079 12.3737 23.8087 12.4544C23.5384 12.5293 23.2441 12.5696 22.9257 12.5696C22.5233 12.5696 22.1749 12.5062 21.8685 12.3795C21.5682 12.2528 21.3159 12.0915 21.1237 11.8841C20.9315 11.6824 20.7813 11.4463 20.6852 11.187C20.5891 10.922 20.541 10.6628 20.541 10.3978C20.541 9.46453 20.9495 8.75019 21.7664 8.24324C22.5833 7.73628 23.8147 7.50009 25.4606 7.51737V7.30422C25.4606 7.09683 25.4426 6.85488 25.4005 6.58988C25.3585 6.31912 25.2744 6.06564 25.1362 5.82369C24.9981 5.58174 24.7938 5.38011 24.5175 5.21304C24.2412 5.04598 23.8688 4.96533 23.4003 4.96533C23.0459 4.96533 22.6975 5.01717 22.3491 5.12087C22.0007 5.22456 21.6823 5.36858 21.4 5.55869L21.1417 4.98261C21.5081 4.74066 21.8865 4.56783 22.271 4.46414C22.6614 4.36044 23.0639 4.30859 23.4904 4.30859C24.061 4.30859 24.5295 4.40077 24.89 4.59087C25.2504 4.77522 25.5327 5.01717 25.7369 5.31674C25.9411 5.61054 26.0853 5.94467 26.1574 6.31336C26.2295 6.68205 26.2715 7.04498 26.2715 7.40792L26.2775 10.5072ZM25.4666 8.15682C25.0341 8.1453 24.5776 8.16258 24.1031 8.20867C23.6285 8.25476 23.19 8.34693 22.7936 8.49671C22.3911 8.64649 22.0607 8.85964 21.8024 9.14768C21.5381 9.42996 21.406 9.81018 21.406 10.2826C21.406 10.8414 21.5742 11.2504 21.9046 11.5154C22.2349 11.7804 22.6074 11.9071 23.0158 11.9071C23.3462 11.9071 23.6465 11.861 23.9048 11.7746C24.1691 11.6882 24.3974 11.5672 24.5896 11.4232C24.7818 11.2734 24.944 11.1064 25.0762 10.922C25.2083 10.7377 25.3104 10.5418 25.3765 10.3459C25.4366 10.127 25.4606 9.96572 25.4606 9.86779L25.4666 8.15682Z" fill="#090E0D"/>
<path d="M27.8512 4.49292L29.9416 9.62005C30.0557 9.90233 30.1638 10.1961 30.2659 10.5015C30.368 10.801 30.4581 11.0775 30.5422 11.331H30.5783C30.6564 11.0891 30.7525 10.8183 30.8546 10.5187C30.9567 10.2192 31.0708 9.90809 31.197 9.59125L33.1492 4.49292H34.0082L31.6235 10.2768C31.3832 10.8932 31.1549 11.4462 30.9447 11.9474C30.7345 12.4486 30.5182 12.898 30.302 13.2955C30.0857 13.693 29.8635 14.0501 29.6412 14.3555C29.419 14.6608 29.1727 14.9315 28.8964 15.162C28.578 15.4385 28.2837 15.6344 28.0134 15.7611C27.743 15.8878 27.5628 15.9685 27.4727 15.9973L27.1964 15.3578C27.4007 15.2714 27.6289 15.1562 27.8812 15.0122C28.1335 14.8682 28.3798 14.6838 28.62 14.4534C28.8243 14.2575 29.0525 13.9983 29.2988 13.6699C29.5451 13.3473 29.7674 12.9556 29.9596 12.4947C30.0256 12.3219 30.0617 12.2067 30.0617 12.1491C30.0617 12.0742 30.0256 11.9589 29.9596 11.8034L26.9922 4.49292H27.8512Z" fill="#090E0D"/>
</g>
<defs>
<clipPath id="clip0">
<rect width="34" height="16" fill="white"/>
</clipPath>
</defs>
</svg>
