<svg width="30" height="18" viewBox="0 0 30 18" fill="none" xmlns="http://www.w3.org/2000/svg">
<path d="M19.043 1.92407H10.9336V16.0759H19.043V1.92407Z" fill="#FF5F00"/>
<path d="M11.4492 8.99431C11.4492 6.12524 12.8438 3.57495 14.9766 1.9241C13.4062 0.728653 11.4258 0 9.25781 0C4.13672 0 0 4.01898 0 8.99431C0 13.9696 4.13672 17.9886 9.25781 17.9886C11.4141 17.9886 13.3945 17.26 14.9648 16.0645C12.832 14.4478 11.4492 11.8748 11.4492 8.99431Z" fill="#EB001B"/>
<path d="M29.9648 8.99431C29.9648 13.9696 25.8281 17.9886 20.707 17.9886C18.5508 17.9886 16.5703 17.26 15 16.0645C17.1562 14.4137 18.5273 11.8634 18.5273 8.99431C18.5273 6.12524 17.1328 3.57495 15 1.9241C16.5703 0.728653 18.5508 0 20.707 0C25.8281 0 29.9648 4.05313 29.9648 8.99431Z" fill="#F79E1B"/>
</svg>
