<svg width="19" height="16" viewBox="0 0 19 16" xmlns="http://www.w3.org/2000/svg">
<path fill-rule="evenodd" clip-rule="evenodd" d="M10.0996 10.0874C6.61975 4.05336 8.96506 0 8.96506 0L12.2309 0.763453L12.1752 5.16379L10.9258 6.47999L13.4753 10.7711L15.2498 10.3892L19 12.5307L17.7921 15.9998C17.7921 15.9998 13.5796 16.1216 10.0996 10.0874ZM0 7.69909L7.43169 7.51683L8.03827 8.93574L0.193798 8.28097L0 7.69909ZM1.69773 5.31454L6.41914 5.14829L6.97808 6.45563L1.95584 6.0044L1.69773 5.31454ZM9.03056 11.2569L3.52222 10.7739L3.22055 10.084L8.45257 9.90445L9.03056 11.2569Z"/>
</svg>
