<svg width="16" height="7" viewBox="0 0 16 7" fill="none" xmlns="http://www.w3.org/2000/svg">
<path fill-rule="evenodd" clip-rule="evenodd" d="M6.39457 5.34845L6.92017 4.44287L7.41717 1.8426L15.1289 2.65344L14.633 5.58168L13.5986 4.82907L12.975 5.62452L11.9253 4.97778L11.3017 5.77323L10.2745 5.07653L9.62828 5.92181L8.49787 5.35726L7.87196 6.16668L6.39457 5.34845ZM5.21126 6.10805L0.462239 5.54453C0.462239 5.54453 1.25514 3.67991 1.56252 2.91061C1.87005 2.14144 1.26096 1.43465 1.26096 1.43465L1.50487 0.833343L6.81083 1.38482L6.38998 4.06094L5.21126 6.10805ZM3.63676 1.99454L2.43678 4.86596L3.81262 5.01247L4.84822 2.28976L3.63676 1.99454Z" fill="#A4A9AD"/>
</svg>
