<svg width="24" height="24" viewBox="0 0 24 24" xmlns="http://www.w3.org/2000/svg">
<path fill-rule="evenodd" clip-rule="evenodd" d="M11.6399 21.08C11.6399 22.488 10.505 23.65 9.0799 23.65C7.65476 23.65 6.5199 22.488 6.5199 21.08C6.5199 19.6719 7.65476 18.51 9.0799 18.51C10.505 18.51 11.6399 19.6719 11.6399 21.08ZM10.2399 21.08C10.2399 21.7262 9.72055 22.25 9.0799 22.25C8.43925 22.25 7.9199 21.7262 7.9199 21.08C7.9199 20.4338 8.43925 19.91 9.0799 19.91C9.72055 19.91 10.2399 20.4338 10.2399 21.08Z" />
<path fill-rule="evenodd" clip-rule="evenodd" d="M19.51 21.08C19.51 22.4881 18.3751 23.65 16.95 23.65C15.5248 23.65 14.39 22.488 14.39 21.08C14.39 19.672 15.5248 18.51 16.95 18.51C18.3751 18.51 19.51 19.6719 19.51 21.08ZM18.11 21.08C18.11 21.7262 17.5906 22.25 16.95 22.25C16.3093 22.25 15.79 21.7262 15.79 21.08C15.79 20.4338 16.3093 19.91 16.95 19.91C17.5906 19.91 18.11 20.4338 18.11 21.08Z" />
<path fill-rule="evenodd" clip-rule="evenodd" d="M6.65003 6.89999C6.42163 6.89999 6.25069 7.10697 6.30148 7.33871L6.30176 7.34L6.30176 7.34L7.82098 14.3264C7.82108 14.3269 7.82118 14.3273 7.82128 14.3278C7.86224 14.5093 8.01389 14.62 8.17003 14.62H18.45C18.6234 14.62 18.7628 14.5042 18.7961 14.3403L18.7982 14.33L18.7983 14.33L20.3183 7.34L20.3191 7.33644C20.3686 7.11385 20.196 6.89999 19.97 6.89999H6.65003ZM4.73842 7.68055C4.46973 6.45255 5.39867 5.29999 6.65003 5.29999H19.97C21.2235 5.29999 22.1507 6.46506 21.8814 7.68186C21.8812 7.68242 21.8811 7.68298 21.881 7.68353L20.3628 14.6655C20.1739 15.5785 19.3748 16.22 18.45 16.22H8.17003C7.24655 16.22 6.45856 15.5712 6.25908 14.6735L6.2583 14.67L4.73858 7.68126C4.73853 7.68103 4.73848 7.68079 4.73842 7.68055Z" />
<path fill-rule="evenodd" clip-rule="evenodd" d="M1.94995 2.75001C1.94995 2.30818 2.30812 1.95001 2.74995 1.95001H3.57995C4.50189 1.95001 5.30325 2.58874 5.49266 3.49456L6.42219 7.83239C6.51477 8.26441 6.23959 8.68968 5.80757 8.78225C5.37555 8.87483 4.95028 8.59966 4.85771 8.16764L3.92663 3.82259C3.89495 3.66994 3.75704 3.55001 3.57995 3.55001H2.74995C2.30812 3.55001 1.94995 3.19184 1.94995 2.75001Z" />
<path fill-rule="evenodd" clip-rule="evenodd" d="M4.61987 16.92C4.61987 15.6482 5.64805 14.62 6.91987 14.62H17.3499C17.7917 14.62 18.1499 14.9782 18.1499 15.42C18.1499 15.8618 17.7917 16.22 17.3499 16.22H6.91987C6.5317 16.22 6.21987 16.5318 6.21987 16.92C6.21987 17.3082 6.5317 17.62 6.91987 17.62H19.4299C19.8717 17.62 20.2299 17.9782 20.2299 18.42C20.2299 18.8618 19.8717 19.22 19.4299 19.22H6.91987C5.64805 19.22 4.61987 18.1918 4.61987 16.92Z" />
</svg>
