<svg width="18" height="16" viewBox="0 0 18 16" xmlns="http://www.w3.org/2000/svg">
<path fill-rule="evenodd" clip-rule="evenodd" d="M14.2201 15.903L8.24206 14.3211L6.00104 15.8413L0 14.2535L0.0802832 8.50397L3.92369 6.06233L4.92939 6.33063L5.04852 1.73567L10.1804 0L14.496 2.48066L14.5573 6.76796L17.8334 7.64175L18 13.4591L14.2201 15.903ZM13.5043 14.3705L13.4788 10.6944L9.48308 9.74845L9.45546 13.321L13.5043 14.3705ZM7.45649 8.81992L6.46616 8.24051L4.601 9.46616L5.79972 9.80007L7.45649 8.81992ZM1.20459 13.2593L5.61723 14.4748L5.59168 10.7987L4.08391 10.414L4.01226 12.1821L2.61689 11.7714L2.70546 10.0625L1.23222 9.68664L1.20459 13.2593ZM5.23515 7.52037L4.19665 7.27935L1.79213 8.68405L3.14831 9.06181L5.37068 7.59962L5.23515 7.52037ZM6.03246 6.64485L9.01985 8.44061V4.90953L7.9924 4.39416L7.99171 6.03453L6.87673 5.35704L6.85325 3.82251L6.04057 3.41488L6.03246 6.64485ZM10.0447 1.06682L6.41782 2.31216L7.1989 2.68923L10.8016 1.47669L10.0447 1.06682ZM12.2402 2.25535L8.63242 3.38104L9.49983 3.79972L13.0666 2.70287L12.2402 2.25535ZM16.1198 8.70995L14.2048 8.20235L12.6062 8.70908L15.1609 9.25052L15.2578 11.5045L16.144 10.9449L16.1198 8.70995Z"/>
</svg>
