<svg width="16" height="17" viewBox="0 0 16 17" fill="none" xmlns="http://www.w3.org/2000/svg">
<g clip-path="url(#clip0)">
<path d="M8.00231 4.39209C5.73364 4.39209 3.89697 6.23075 3.89697 8.49742C3.89697 10.7661 5.73564 12.6027 8.00231 12.6027C10.271 12.6027 12.1076 10.7641 12.1076 8.49742C12.1076 6.22875 10.269 4.39209 8.00231 4.39209ZM8.00231 11.1621C6.52964 11.1621 5.33764 9.96941 5.33764 8.49742C5.33764 7.02542 6.53031 5.83275 8.00231 5.83275C9.47431 5.83275 10.667 7.02542 10.667 8.49742C10.6676 9.96941 9.47497 11.1621 8.00231 11.1621Z" fill="black"/>
<path d="M11.2988 0.550746C9.82682 0.482079 6.18082 0.485413 4.70749 0.550746C3.41282 0.611413 2.27082 0.92408 1.35015 1.84475C-0.188515 3.38342 0.00815151 5.45675 0.00815151 8.49742C0.00815151 11.6094 -0.165182 13.6348 1.35015 15.1501C2.89482 16.6941 4.99815 16.4921 8.00282 16.4921C11.0855 16.4921 12.1495 16.4941 13.2395 16.0721C14.7215 15.4968 15.8402 14.1721 15.9495 11.7928C16.0188 10.3201 16.0148 6.67475 15.9495 5.20142C15.8175 2.39275 14.3102 0.689413 11.2988 0.550746ZM13.6288 14.1321C12.6202 15.1408 11.2208 15.0508 7.98349 15.0508C4.65015 15.0508 3.31348 15.1001 2.33815 14.1221C1.21482 13.0041 1.41815 11.2088 1.41815 8.48675C1.41815 4.80342 1.04015 2.15075 4.73682 1.96141C5.58615 1.93141 5.83615 1.92141 7.97415 1.92141L8.00415 1.94141C11.5568 1.94141 14.3442 1.56941 14.5115 5.26542C14.5495 6.10875 14.5582 6.36209 14.5582 8.49675C14.5575 11.7914 14.6202 13.1361 13.6288 14.1321Z" fill="black"/>
<path d="M12.2704 5.18943C12.8002 5.18943 13.2297 4.75992 13.2297 4.23009C13.2297 3.70026 12.8002 3.27075 12.2704 3.27075C11.7405 3.27075 11.311 3.70026 11.311 4.23009C11.311 4.75992 11.7405 5.18943 12.2704 5.18943Z" fill="black"/>
</g>
<defs>
<clipPath id="clip0">
<rect width="16" height="16" fill="white" transform="translate(0 0.5)"/>
</clipPath>
</defs>
</svg>
