<svg width="14" height="9" viewBox="0 0 14 9" fill="none" xmlns="http://www.w3.org/2000/svg">
<path d="M13.3393 8.4682C13.266 8.47742 13.1923 8.48883 13.1185 8.48927C12.3956 8.49059 11.6726 8.48883 10.9501 8.49146C10.8496 8.4919 10.7645 8.45459 10.6898 8.39446C10.5388 8.27111 10.3834 8.14953 10.2443 8.01257C9.88261 7.65396 9.53014 7.28524 9.17108 6.92311C9.05915 6.8103 8.93976 6.70627 8.82212 6.59961C8.7611 6.54211 8.68473 6.52982 8.60572 6.53113C8.49993 6.53377 8.41258 6.58161 8.37088 6.6795C8.33269 6.76816 8.30109 6.86429 8.29099 6.95911C8.27344 7.13073 8.27256 7.30324 8.26905 7.47487C8.2651 7.66712 8.25939 7.8607 8.2054 8.04769C8.18126 8.13021 8.14702 8.21405 8.10444 8.28867C8.02982 8.41684 7.91218 8.48664 7.7625 8.48971C7.1313 8.50419 6.49966 8.51341 5.86933 8.47215C5.75257 8.46337 5.64503 8.4265 5.541 8.37514C4.95282 8.08632 4.43618 7.70268 3.98714 7.22423C3.44065 6.64263 2.94464 6.01889 2.44863 5.39514C1.781 4.55412 1.20378 3.65429 0.684949 2.71582C0.495325 2.37388 0.312285 2.02712 0.176212 1.65884C0.109053 1.47712 0.109053 1.29496 0.159532 1.11192C0.174017 1.05749 0.199915 1.00437 0.229763 0.956529C0.272341 0.886298 0.338621 0.847232 0.423338 0.845476C0.453186 0.845037 0.484351 0.844159 0.514199 0.844159C1.16998 0.844159 1.82489 0.846793 2.48024 0.841964C2.60972 0.841087 2.70893 0.884542 2.79584 0.972331C2.95737 1.13386 3.08291 1.32217 3.19572 1.51794C3.31862 1.73127 3.44153 1.94591 3.54995 2.16714C3.78829 2.65393 4.08063 3.1078 4.39009 3.55026C4.54108 3.76578 4.70437 3.97296 4.86107 4.18409C4.93394 4.28242 5.0349 4.31973 5.15122 4.3228C5.26447 4.32675 5.31056 4.28066 5.31494 4.16741C5.31626 4.1402 5.31582 4.11342 5.31582 4.08621C5.31582 3.34615 5.31582 2.60696 5.31494 1.86734C5.31494 1.80984 5.31494 1.7519 5.30924 1.69484C5.29607 1.56271 5.22628 1.48546 5.09547 1.46C5.03621 1.44859 4.97564 1.44332 4.9155 1.43542C4.73115 1.41128 4.65477 1.33314 4.63546 1.14791C4.60693 0.868301 4.7408 0.650145 5.00285 0.55226C5.11566 0.510122 5.23242 0.500904 5.35182 0.501343C5.93605 0.502221 6.52029 0.501343 7.10452 0.501782C7.22304 0.501782 7.34155 0.495636 7.45919 0.506171C7.58254 0.518023 7.7072 0.534264 7.82703 0.569379C8.08249 0.643122 8.23042 0.816945 8.25939 1.0847C8.26685 1.14879 8.26861 1.21287 8.26861 1.27696C8.26948 1.726 8.26949 2.17504 8.26949 2.62408C8.26949 3.10034 8.26905 3.57659 8.27036 4.05285C8.27036 4.09938 8.27431 4.1481 8.28704 4.19243C8.32874 4.33685 8.48589 4.38469 8.61801 4.29383C9.00735 4.02563 9.26282 3.65209 9.45947 3.23641C9.64119 2.85233 9.79789 2.45641 9.96864 2.06706C10.1052 1.75848 10.2452 1.45166 10.3878 1.14571C10.4225 1.06978 10.4739 1.00086 10.5217 0.931509C10.5652 0.869179 10.6222 0.841964 10.7026 0.841964C11.551 0.844598 12.3978 0.844159 13.2458 0.843281C13.4534 0.843281 13.618 0.927559 13.7475 1.08514C13.7932 1.14133 13.812 1.20717 13.8239 1.27959C13.8744 1.61363 13.7598 1.90465 13.6 2.18514C13.4486 2.45026 13.2686 2.69475 13.0729 2.92695C12.6673 3.40716 12.2696 3.89307 11.9219 4.41761C11.8324 4.55237 11.756 4.6959 11.6744 4.83505C11.6142 4.93689 11.6221 5.03477 11.6976 5.12563C11.8508 5.30999 11.9992 5.49961 12.1603 5.67563C12.5431 6.09526 12.9355 6.5048 13.3204 6.92223C13.4438 7.05655 13.5553 7.20053 13.6698 7.34274C13.7076 7.38971 13.7357 7.44458 13.7725 7.49242C14.0601 7.86377 13.7019 8.42035 13.3393 8.4682Z" fill="black"/>
</svg>
