<svg width="16" height="17" viewBox="0 0 16 17" fill="none" xmlns="http://www.w3.org/2000/svg">
<g clip-path="url(#clip0)">
<path d="M8.00753 7.13021C8.77144 7.12742 9.37985 6.51378 9.37707 5.74823C9.37428 4.98236 8.76457 4.37297 8.00033 4.37232C7.22971 4.3715 6.61427 4.99218 6.62016 5.76493C6.62589 6.52769 7.24117 7.13299 8.00753 7.13021Z" fill="black"/>
<path d="M8 0.5C3.58171 0.5 0 4.08187 0 8.5C0 12.9181 3.58171 16.5 8 16.5C12.4183 16.5 16 12.9181 16 8.5C16 4.08187 12.4183 0.5 8 0.5ZM8.01146 2.93282C9.56972 2.93707 10.8204 4.21167 10.8124 5.78712C10.8045 7.32623 9.53338 8.57366 7.97774 8.56842C6.43797 8.56318 5.17516 7.28662 5.18433 5.7444C5.193 4.18532 6.45647 2.92856 8.01146 2.93282ZM11.1676 9.67557C10.823 10.0293 10.4083 10.2853 9.94766 10.4639C9.51227 10.6326 9.03513 10.7176 8.56274 10.7742C8.63427 10.8518 8.66783 10.8899 8.71235 10.9345C9.35333 11.5789 9.99742 12.22 10.6363 12.8662C10.854 13.0866 10.8993 13.3596 10.7795 13.6154C10.6487 13.8953 10.3552 14.0793 10.0673 14.0595C9.88497 14.0469 9.74273 13.9564 9.61653 13.8292C9.13269 13.3424 8.63967 12.8643 8.16597 12.3683C8.02766 12.2239 7.96153 12.2514 7.83959 12.3768C7.35296 12.878 6.85831 13.3712 6.36088 13.8618C6.13745 14.0821 5.87163 14.122 5.61236 13.996C5.33688 13.8627 5.16174 13.5814 5.17516 13.2984C5.18465 13.1075 5.27861 12.9612 5.40988 12.8306C6.04448 12.1973 6.67711 11.562 7.30991 10.9273C7.35198 10.8852 7.39094 10.8405 7.45199 10.775C6.58889 10.6848 5.81058 10.4724 5.14423 9.95138C5.0614 9.88656 4.97612 9.82403 4.90083 9.75136C4.60898 9.47129 4.57968 9.15031 4.81031 8.82C5.00788 8.53716 5.33917 8.46153 5.68372 8.62407C5.75051 8.65533 5.81401 8.69495 5.87491 8.73685C7.1166 9.59013 8.82251 9.61353 10.0691 8.77499C10.1925 8.68071 10.3246 8.60312 10.4777 8.564C10.7749 8.4874 11.0525 8.5969 11.2119 8.85716C11.3945 9.15457 11.3923 9.44461 11.1676 9.67557Z" fill="black"/>
</g>
<defs>
<clipPath id="clip0">
<rect width="16" height="16" fill="white" transform="translate(0 0.5)"/>
</clipPath>
</defs>
</svg>
