<svg width="16" height="17" viewBox="0 0 16 17" fill="none" xmlns="http://www.w3.org/2000/svg">
<g clip-path="url(#clip0)">
<path d="M8.00005 0.533203C3.58179 0.533203 0 4.11499 0 8.53325C0 12.4959 2.88417 15.7777 6.6658 16.4132V10.2023H4.73595V7.96724H6.6658V6.31921C6.6658 4.40702 7.83371 3.36498 9.53976 3.36498C10.3569 3.36498 11.0591 3.42587 11.2629 3.45269V5.45144L10.0796 5.45201C9.15202 5.45201 8.97318 5.89272 8.97318 6.53966V7.96609H11.1866L10.8979 10.2011H8.97318V16.4666C12.9314 15.9848 16 12.6195 16 8.53096C16 4.11499 12.4182 0.533203 8.00005 0.533203Z" fill="#010002"/>
</g>
<defs>
<clipPath id="clip0">
<rect width="16" height="16" fill="white" transform="translate(0 0.5)"/>
</clipPath>
</defs>
</svg>
