<svg width="18" height="18" viewBox="0 0 18 18" fill="none" xmlns="http://www.w3.org/2000/svg">
<path d="M9 18C13.9706 18 18 13.9706 18 9C18 4.02944 13.9706 0 9 0C4.02944 0 0 4.02944 0 9C0 13.9706 4.02944 18 9 18Z" fill="#A4A9AD"/>
<path d="M4.11796 8.80467L12.7955 5.45892C13.1982 5.31342 13.55 5.55717 13.4195 6.16617L13.4202 6.16542L11.9427 13.1262C11.8332 13.6197 11.54 13.7397 11.1297 13.5072L8.87971 11.8489L7.79446 12.8944C7.67446 13.0144 7.57321 13.1157 7.34071 13.1157L7.50046 10.8259L11.6705 7.05867C11.852 6.89892 11.63 6.80892 11.3907 6.96792L6.23746 10.2124L4.01596 9.51942C3.53371 9.36642 3.52321 9.03717 4.11796 8.80467Z" fill="white"/>
</svg>
