<svg width="16" height="16" viewBox="0 0 16 16" xmlns="http://www.w3.org/2000/svg">
<path fill-rule="evenodd" clip-rule="evenodd" d="M14.0002 12.0673L13.9989 13.395L12.7121 14.5297L9.93513 14.5686L9.54335 13.6414L8.84132 13.0684L9.05261 10.8367L9.9428 10.8282L11.0267 9.61886L13.4901 10.3978L13.4497 11.6956L14.0002 12.0673ZM11.3073 10.5073L10.6268 11.1271L11.1222 11.4417L12.2292 10.8243L11.3073 10.5073ZM13.0883 12.3579L11.801 11.7496L11.1271 12.1322L10.1748 11.7375L9.61197 12.9377L11.448 12.9105L11.7535 13.6507L12.3221 13.7858L12.6844 13.1096L13.2836 13.0065L13.0883 12.3579ZM1.3335 4.04121L11.0058 3.93122L11.0398 5.71943L1.49436 5.65724L1.3335 4.04121ZM7.0592 3.26507V2.6359L5.21149 2.61439V3.25625L3.89712 3.24991C3.89712 3.24991 3.86744 2.77668 3.85834 2.39178C3.84142 1.69067 4.27646 1.36378 5.10217 1.33686C5.49396 1.32402 6.66087 1.35016 7.15112 1.35016C8.03987 1.35016 8.39064 1.68943 8.39511 2.2544C8.3983 2.6458 8.36511 3.27141 8.36511 3.27141L7.0592 3.26507ZM10.4147 9.2123L9.0025 10.1401C9.05453 9.26119 9.10209 8.46215 9.12315 8.11329C9.17805 7.20411 8.02694 7.25764 8.03093 8.08591C8.03316 8.5248 8.04816 11.874 8.05343 13.0369L8.10833 13.0338L8.0721 13.4754L8.93915 14.5534L2.42699 14.6666L2.13447 6.44328L10.5181 6.44916L10.4147 9.2123ZM3.61114 8.15398C3.61114 8.65042 3.72875 12.3896 3.757 13.2746L4.65788 13.2248C4.66984 12.4081 4.72203 8.8175 4.72203 8.11066C4.72203 7.24495 3.61114 7.23118 3.61114 8.15398ZM5.85431 8.14284C5.90569 8.61639 5.95756 12.0853 5.9724 13.152L6.90168 13.1006C6.9186 11.9747 6.9652 8.84272 6.9652 8.09937C6.96536 7.18895 5.76494 7.31905 5.85431 8.14284Z"/>
</svg>
