<svg width="24" height="24" viewBox="0 0 24 24" xmlns="http://www.w3.org/2000/svg">
<path fill-rule="evenodd" clip-rule="evenodd" d="M8.52979 9.98997C8.52979 8.18399 9.99387 6.71997 11.7998 6.71997C13.6057 6.71997 15.0698 8.18399 15.0698 9.98997C15.0698 11.7959 13.6057 13.26 11.7998 13.26C9.99386 13.26 8.52979 11.7959 8.52979 9.98997ZM11.7998 8.31997C10.8775 8.31997 10.1298 9.06767 10.1298 9.98997C10.1298 10.9123 10.8775 11.66 11.7998 11.66C12.7221 11.66 13.4698 10.9123 13.4698 9.98997C13.4698 9.06767 12.7221 8.31997 11.7998 8.31997Z" />
<path fill-rule="evenodd" clip-rule="evenodd" d="M9.78001 15.72C8.59008 15.72 7.62002 16.6836 7.62002 17.88V19.29C7.62002 19.7318 7.26185 20.09 6.82002 20.09C6.37819 20.09 6.02002 19.7318 6.02002 19.29V17.88C6.02002 15.7964 7.70994 14.12 9.78001 14.12H14.21C16.2936 14.12 17.97 15.8099 17.97 17.88V19.29C17.97 19.7318 17.6118 20.09 17.17 20.09C16.7282 20.09 16.37 19.7318 16.37 19.29V17.88C16.37 16.6901 15.4064 15.72 14.21 15.72H9.78001Z" />
<path fill-rule="evenodd" clip-rule="evenodd" d="M1.9502 12C1.9502 6.44949 6.44974 1.94995 12.0002 1.94995C17.5506 1.94995 22.0502 6.44949 22.0502 12C22.0502 17.5504 17.5506 22.0499 12.0002 22.0499C6.44974 22.0499 1.9502 17.5504 1.9502 12ZM12.0002 3.54995C7.33339 3.54995 3.5502 7.33315 3.5502 12C3.5502 16.6667 7.3334 20.45 12.0002 20.45C16.667 20.45 20.4502 16.6667 20.4502 12C20.4502 7.33315 16.667 3.54995 12.0002 3.54995Z"/>
</svg>
