<svg width="16" height="19" viewBox="0 0 16 19" fill="none" xmlns="http://www.w3.org/2000/svg">
<path d="M15.5363 4.30781C15.2387 3.21646 14.6494 2.35438 13.7864 1.74451C12.6971 0.97261 11.4441 0.700536 10.3623 0.533929C8.86526 0.304653 7.50961 0.272554 6.21647 0.434576C5.00517 0.587427 4.09297 0.830459 3.26114 1.22328C1.6302 1.99365 0.651036 3.23938 0.351931 4.92532C0.206099 5.7446 0.107886 6.4844 0.0513387 7.19057C-0.0796126 8.82301 0.0394341 10.2675 0.414431 11.6064C0.7805 12.9118 1.41889 13.8442 2.3668 14.4571C2.60787 14.613 2.91739 14.7261 3.21649 14.8346C3.38613 14.8958 3.55131 14.9554 3.68673 15.0211C3.81173 15.0807 3.81173 15.0914 3.81024 15.1984C3.79982 16.1262 3.81024 17.9451 3.81024 17.9451L3.81321 18.3334H4.49178L4.6019 18.2233C4.67481 18.153 6.35635 16.4839 6.95605 15.8113L7.03789 15.7181C7.14057 15.5958 7.14057 15.5958 7.24622 15.5943C8.05574 15.5775 8.88312 15.5454 9.70454 15.4995C10.7001 15.4445 11.8533 15.3451 12.9396 14.8805C13.9337 14.454 14.6599 13.7769 15.0959 12.869C15.5512 11.9213 15.8206 10.8957 15.9218 9.73247C16.1003 7.68733 15.9738 5.91274 15.5363 4.30781ZM11.956 12.2606C11.706 12.6779 11.334 12.9683 10.895 13.1563C10.5736 13.2939 10.2462 13.2648 9.92924 13.1273C7.27599 11.9733 5.19416 10.1559 3.81917 7.54213C3.53494 7.00409 3.33852 6.41715 3.11233 5.84854C3.0662 5.73238 3.06917 5.59481 3.04834 5.46642C3.06768 4.54778 3.75369 4.02962 4.44714 3.87371C4.71202 3.81257 4.94713 3.90887 5.14356 4.10299C5.6882 4.63491 6.11826 5.25395 6.44266 5.94789C6.58403 6.25207 6.52004 6.52108 6.27897 6.7473C6.22837 6.79469 6.17629 6.83748 6.12123 6.88028C5.57064 7.30521 5.49028 7.62772 5.78344 8.26817C6.28343 9.35799 7.11378 10.0901 8.18669 10.5441C8.46943 10.6633 8.7358 10.6037 8.95157 10.3683C8.98133 10.3378 9.01407 10.3072 9.0349 10.2705C9.45752 9.546 10.0721 9.61784 10.6391 10.0305C11.0111 10.3026 11.3727 10.59 11.7402 10.8666C12.3012 11.29 12.2968 11.6874 11.956 12.2606ZM8.43669 5.02926C8.31169 5.02926 8.18669 5.03996 8.06318 5.06136C7.85485 5.09652 7.65991 4.95284 7.6242 4.73885C7.58997 4.52638 7.72985 4.32462 7.93818 4.28947C8.10187 4.26042 8.27003 4.24667 8.43669 4.24667C10.087 4.24667 11.4292 5.62538 11.4292 7.32049C11.4292 7.49321 11.4158 7.66593 11.3876 7.83254C11.3563 8.0236 11.1956 8.15964 11.0126 8.15964C10.9917 8.15964 10.9709 8.15811 10.9486 8.15353C10.7417 8.11837 10.6019 7.91661 10.6361 7.70415C10.6569 7.57881 10.6673 7.45042 10.6673 7.32049C10.6673 6.05795 9.66585 5.02926 8.43669 5.02926ZM10.2864 7.37705C10.2864 7.59257 10.1152 7.76834 9.90543 7.76834C9.69561 7.76834 9.52448 7.59257 9.52448 7.37705C9.52448 6.73049 9.01109 6.20316 8.38163 6.20316C8.17181 6.20316 8.00068 6.02738 8.00068 5.81186C8.00068 5.59634 8.17181 5.42056 8.38163 5.42056C9.43222 5.42056 10.2864 6.29792 10.2864 7.37705ZM12.462 8.24677C12.4218 8.42866 12.264 8.55094 12.0899 8.55094C12.0617 8.55094 12.0334 8.54788 12.0051 8.54177C11.7998 8.49286 11.6718 8.28345 11.7179 8.07252C11.773 7.82337 11.8012 7.56505 11.8012 7.30521C11.8012 5.40375 10.2938 3.85537 8.44264 3.85537C8.18967 3.85537 7.93818 3.88441 7.69562 3.94097C7.49027 3.98988 7.2864 3.8569 7.24027 3.64597C7.19265 3.43503 7.32212 3.22563 7.52747 3.17824C7.82509 3.10793 8.13312 3.07278 8.44264 3.07278C10.7149 3.07278 12.5631 4.97118 12.5631 7.30521C12.5631 7.62314 12.5289 7.93954 12.462 8.24677Z" fill="#A4A9AD"/>
</svg>
