<svg width="18" height="19" viewBox="0 0 18 19" fill="none" xmlns="http://www.w3.org/2000/svg">
<circle cx="9" cy="9.5" r="9" fill="white"/>
<path d="M9.6 12.4629L9.90244 3.5H8.09756L8.4 12.4629H9.6ZM8 14.6582C8 14.9058 8.0878 15.1121 8.26341 15.2689C8.43902 15.4257 8.68293 15.5 8.99512 15.5C9.30732 15.5 9.55122 15.4257 9.72683 15.2689C9.90244 15.1121 10 14.9058 10 14.6582C10 14.4106 9.90244 14.2125 9.72683 14.0557C9.55122 13.8989 9.30732 13.8164 8.99512 13.8164C8.68293 13.8164 8.43902 13.8989 8.26341 14.0557C8.0878 14.2125 8 14.4106 8 14.6582Z" fill="#FB8951"/>
</svg>
