<svg width="20" height="22" viewBox="0 0 20 22" fill="none" xmlns="http://www.w3.org/2000/svg">
<path fill-rule="evenodd" clip-rule="evenodd" d="M10 5.75C10.4142 5.75 10.75 6.08579 10.75 6.5V11C10.75 11.4142 10.4142 11.75 10 11.75C9.58579 11.75 9.25 11.4142 9.25 11V6.5C9.25 6.08579 9.58579 5.75 10 5.75Z" fill="#A4A9AD"/>
<path fill-rule="evenodd" clip-rule="evenodd" d="M9.99395 13.75C9.99564 13.75 9.99733 13.75 9.99902 13.75C10.0238 13.75 10.0483 13.7512 10.0725 13.7536C10.5566 13.7947 10.999 14.1902 10.999 14.75C10.999 15.0451 10.8663 15.2909 10.7031 15.4541C10.5399 15.6172 10.2942 15.75 9.99902 15.75C9.42557 15.75 8.99902 15.2747 8.99902 14.75C8.99902 14.22 9.40674 13.7891 9.9271 13.7525C9.94752 13.7509 9.96817 13.75 9.98902 13.75C9.99067 13.75 9.99231 13.75 9.99395 13.75Z" fill="#A4A9AD"/>
<path fill-rule="evenodd" clip-rule="evenodd" d="M11.869 2.74717C10.7117 2.06546 9.26544 2.06574 8.11073 2.74693L8.10703 2.74912L3.6058 5.36982C2.45917 6.03453 1.74966 7.26616 1.74966 8.61096V13.381C1.74966 13.4405 1.74264 13.4988 1.7293 13.5548C1.80341 14.8013 2.49328 15.9355 3.58727 16.573L8.08485 19.1916C8.08516 19.1917 8.08547 19.1919 8.08579 19.1921C9.25558 19.8675 10.6968 19.8671 11.8639 19.1919C11.864 19.1918 11.8639 19.1919 11.8639 19.1919L16.3634 16.5822C17.5136 15.9154 18.2297 14.6816 18.2297 13.351V8.59096C18.2297 7.25904 17.5225 6.03139 16.3724 5.35917C16.3721 5.35898 16.3717 5.35879 16.3714 5.35859L11.869 2.74717ZM0.249656 13.1313V8.61096C0.249656 6.736 1.23989 5.00783 2.85289 4.07247C2.8531 4.07235 2.85268 4.07259 2.85289 4.07247L7.35051 1.45385C8.97472 0.496634 11.0023 0.496845 12.628 1.45341C12.6288 1.45386 12.6296 1.4543 12.6303 1.45475L17.1279 4.06333C18.7372 5.00324 19.7297 6.72326 19.7297 8.59096V13.351C19.7297 15.2203 18.7256 16.9465 17.1159 17.8797C17.1159 17.8798 17.116 17.8797 17.1159 17.8797L12.6159 20.4897C10.9834 21.4343 8.96845 21.4344 7.33446 20.4904L7.33229 20.4891L2.83229 17.8691C1.21144 16.9246 0.222656 15.1975 0.222656 13.331C0.222656 13.2622 0.232014 13.1952 0.249656 13.1313Z" fill="#A4A9AD"/>
</svg>
