<svg width="18" height="18" viewBox="0 0 18 18" fill="none" xmlns="http://www.w3.org/2000/svg">
<path d="M8.99992 0.666626C4.21375 0.666626 0.333252 4.54713 0.333252 9.33329C0.333252 10.9592 0.789943 12.475 1.56893 13.7752L0.410834 18L4.72583 16.8673C5.98778 17.5847 7.4446 18 8.99992 18C13.7861 18 17.6666 14.1195 17.6666 9.33329C17.6666 4.54713 13.7861 0.666626 8.99992 0.666626ZM6.03345 5.29054C6.17428 5.29054 6.31898 5.28968 6.44393 5.29618C6.59848 5.29979 6.76671 5.31111 6.92776 5.66717C7.11915 6.09039 7.53588 7.15211 7.58933 7.25973C7.64277 7.36734 7.68064 7.49411 7.60625 7.63494C7.53548 7.77939 7.49867 7.86681 7.39467 7.99464C7.28706 8.11887 7.16914 8.27315 7.07164 8.36704C6.96403 8.47465 6.85291 8.59264 6.97713 8.80714C7.10135 9.02164 7.53277 9.72483 8.17049 10.2925C8.99021 11.0248 9.68183 11.2499 9.89705 11.3575C10.1123 11.4651 10.2369 11.4483 10.3611 11.3039C10.489 11.1631 10.898 10.6798 11.0425 10.4646C11.1833 10.2494 11.3271 10.2866 11.5221 10.3574C11.7199 10.4282 12.7753 10.948 12.9905 11.0556C13.2057 11.1632 13.3468 11.2165 13.401 11.3039C13.4566 11.3942 13.4566 11.8239 13.2782 12.3252C13.0998 12.8257 12.2239 13.3097 11.831 13.3436C11.4345 13.3804 11.0644 13.5218 9.25382 12.809C7.06982 11.9488 5.69249 9.7119 5.58488 9.56745C5.47727 9.42662 4.71031 8.40445 4.71031 7.35C4.71031 6.29195 5.26506 5.77378 5.45934 5.55855C5.65723 5.34333 5.889 5.29054 6.03345 5.29054Z" fill="#A4A9AD"/>
</svg>
